<svg width="342" height="335" viewBox="0 0 342 335" fill="none" xmlns="http://www.w3.org/2000/svg">
<path d="M221.9 196.98C221.54 197.047 221.187 197 220.84 196.84" stroke="#B3953B" stroke-width="2"/>
<path d="M216.17 197.92L213.19 196.9" stroke="#B3953B" stroke-width="2"/>
<path d="M200.13 199.55L198.98 199.84" stroke="#B3953B" stroke-width="2"/>
<path d="M194.51 198.02L193.04 197.19" stroke="#B3953B" stroke-width="2"/>
<path d="M190.73 197.58C190.01 197.273 189.417 197.173 188.95 197.28C188.423 197.4 188.407 197.57 188.9 197.79L190.47 198.48" stroke="#947C3A" stroke-width="2"/>
<path d="M191.49 199.26L189.94 200.99" stroke="#B3953B" stroke-width="2"/>
<path d="M184.04 198.49C183.553 198.65 183.197 198.887 182.97 199.2" stroke="#B3953B" stroke-width="2"/>
<path d="M180 199.33L179.51 198.25" stroke="#B3953B" stroke-width="2"/>
<path d="M173.38 199.19C173.107 199.683 172.68 199.867 172.1 199.74" stroke="#B3953B" stroke-width="2"/>
<path d="M171.8 199.64L169.83 199.05" stroke="#B3953B" stroke-width="2"/>
<path d="M169.18 198.34C168.82 198.227 168.5 197.957 168.22 197.53" stroke="#B3953B" stroke-width="2"/>
<path d="M163.01 198C162.957 198.193 163.03 198.373 163.23 198.54C163.377 198.667 163.373 198.787 163.22 198.9C163.147 198.96 163.067 199.01 162.98 199.05" stroke="#B3953B" stroke-width="2"/>
<path d="M159.29 199.54L159.16 198.59" stroke="#B3953B" stroke-width="2"/>
<path d="M153.57 200.55L152.21 200.49C151.877 200.47 151.72 200.293 151.74 199.96C151.753 199.713 151.837 199.5 151.99 199.32" stroke="#B3953B" stroke-width="2"/>
<path d="M150.23 197.01L148.29 197.75" stroke="#B3953B" stroke-width="2"/>
<path d="M144.05 199.84C143.31 199.853 142.903 199.633 142.83 199.18" stroke="#B3953B" stroke-width="2"/>
<path d="M130.79 196.7L127.01 197.98" stroke="#B3953B" stroke-width="2"/>
<path d="M122.22 197.01L121.48 196.96" stroke="#B3953B" stroke-width="2"/>
<path d="M171.92 227.97L170.79 228.75" stroke="#B3953B" stroke-width="2"/>
<path d="M165.48 228.75L164.51 229.33" stroke="#9A8436" stroke-width="2"/>
<path d="M163.98 230.22C164.72 230.133 165.11 230.343 165.15 230.85" stroke="#9A8436" stroke-width="2"/>
<path d="M120.86 82.86C141.13 40.54 203.13 38.62 222.47 82.64C222.63 83 222.53 83.2667 222.17 83.44C221.917 83.56 221.65 83.5567 221.37 83.43C221.157 83.3367 220.977 83.1433 220.83 82.85C200.03 41.39 143.76 42.02 122.7 82.71C122.413 83.27 122.14 83.6267 121.88 83.78C121.748 83.8577 121.595 83.8913 121.442 83.8759C121.29 83.8604 121.146 83.7968 121.033 83.6942C120.919 83.5916 120.841 83.4554 120.81 83.3053C120.779 83.1553 120.796 82.9993 120.86 82.86Z" fill="#9B8436" fill-opacity="0.996"/>
<path d="M186.99 119.71C187.497 119.823 187.93 119.82 188.29 119.7C188.61 119.6 188.637 119.447 188.37 119.24L187.66 118.68C178.83 110.84 187.04 101.52 195.97 100.09C215.13 97.03 228.06 117.77 245.53 113.44C263.03 109.11 253.95 85.72 238.54 91.64C228.14 95.64 234.41 108.3 242.56 104.05C243.88 103.36 244.18 102.04 243.27 100.88C243.185 100.771 243.142 100.636 243.15 100.499C243.157 100.362 243.215 100.233 243.313 100.134C243.41 100.036 243.54 99.9748 243.679 99.9631C243.818 99.9513 243.957 99.9893 244.07 100.07C246.02 101.5 246.03 104.23 244.49 106.05C240.13 111.19 231.29 108.36 229.9 101.97C228.35 94.87 235.78 89.55 242 89.42C252.09 89.2 256.2 95.09 257.65 104.3C257.662 104.385 257.693 104.466 257.739 104.538C257.785 104.61 257.847 104.671 257.919 104.718C257.991 104.764 258.072 104.795 258.156 104.807C258.241 104.82 258.328 104.814 258.41 104.79C262.85 103.56 269.05 100.4 271.81 106.19C272.603 107.857 272.147 109.083 270.44 109.87C270.073 110.043 269.92 109.93 269.98 109.53C270.94 103.17 261.16 105.3 258.47 107.05C257.857 107.45 256.497 108.89 254.39 111.37C242.48 125.39 222.95 112.42 211.56 105.52C211.45 105.456 211.323 105.43 211.197 105.446C211.072 105.462 210.955 105.518 210.864 105.606C210.773 105.695 210.714 105.81 210.695 105.936C210.676 106.061 210.699 106.189 210.76 106.3C213.427 110.947 212.773 115.033 208.8 118.56C208.347 118.713 207.987 118.937 207.72 119.23C207.433 119.543 207.483 119.783 207.87 119.95C208.143 120.07 208.52 120.073 209 119.96C232.913 119.987 256.83 119.99 280.75 119.97C282.797 119.963 284.823 119.68 286.83 119.12C287.19 119.02 287.44 118.793 287.58 118.44L288.42 116.2C288.471 116.065 288.564 115.951 288.685 115.873C288.807 115.796 288.95 115.759 289.093 115.769C289.237 115.779 289.374 115.835 289.483 115.929C289.592 116.023 289.668 116.15 289.7 116.29L290.29 119C290.383 119.427 290.617 119.523 290.99 119.29C293.1 117.95 292.84 114.94 292.44 112.88C292.415 112.747 292.431 112.609 292.484 112.485C292.537 112.36 292.625 112.254 292.738 112.179C292.851 112.105 292.984 112.065 293.119 112.065C293.255 112.065 293.387 112.105 293.5 112.18C295.567 113.553 296.28 115.49 295.64 117.99C294.86 121.05 291.67 121.73 288.62 121.73C210.747 121.75 132.873 121.757 55 121.75C52.29 121.75 48.72 121.03 48.01 117.98C47.67 116.48 48.19 112.82 50.31 112.53C50.4219 112.514 50.5359 112.528 50.6405 112.571C50.7451 112.614 50.8366 112.683 50.9057 112.772C50.9748 112.862 51.0189 112.968 51.0338 113.08C51.0486 113.192 51.0335 113.306 50.99 113.41C49.9633 115.903 50.52 117.92 52.66 119.46C52.7637 119.537 52.8886 119.581 53.0179 119.585C53.1472 119.589 53.2746 119.553 53.3827 119.482C53.4909 119.411 53.5745 119.308 53.6224 119.188C53.6702 119.068 53.6798 118.936 53.65 118.81C53.45 117.87 53.6333 117.023 54.2 116.27C54.2468 116.208 54.3094 116.159 54.3813 116.129C54.4532 116.098 54.5319 116.088 54.6092 116.098C54.6865 116.108 54.7598 116.139 54.8214 116.187C54.8831 116.234 54.9309 116.298 54.96 116.37C55.9067 118.763 57.8367 119.963 60.75 119.97C76.3567 120.003 91.9633 120 107.57 119.96C108.277 119.953 109.503 119.417 111.25 118.35C111.563 118.157 111.867 118.167 112.16 118.38C114.76 120.26 117.717 120.677 121.03 119.63C121.343 119.537 121.5 119.323 121.5 118.99V116.48C121.498 116.347 121.54 116.218 121.62 116.113C121.7 116.007 121.814 115.932 121.943 115.898C122.071 115.863 122.209 115.873 122.333 115.924C122.457 115.975 122.562 116.065 122.63 116.18L124.06 118.66C124.142 118.803 124.252 118.927 124.382 119.027C124.513 119.127 124.662 119.199 124.82 119.24C128.327 120.14 131.877 120.277 135.47 119.65C135.837 119.59 135.87 119.443 135.57 119.21C130.97 115.703 129.983 111.377 132.61 106.23C133.003 106.097 133.29 105.907 133.47 105.66C133.717 105.32 133.633 105.187 133.22 105.26L131.82 105.52C121.45 112.45 103.75 123.58 91.33 113.57C89.13 111.8 87.41 108.35 84.59 106.69C81.21 104.683 77.64 104.597 73.88 106.43C73.7944 106.473 73.721 106.537 73.6667 106.618C73.6125 106.698 73.5792 106.792 73.57 106.89L73.33 109.61C73.3254 109.679 73.3033 109.746 73.2659 109.804C73.2285 109.862 73.1769 109.91 73.116 109.943C73.0551 109.976 72.9868 109.993 72.9176 109.993C72.8483 109.992 72.7804 109.974 72.72 109.94C72.3867 109.767 72.12 109.513 71.92 109.18C71.7333 108.88 71.6633 108.493 71.71 108.02C72.45 100.67 80.01 102.62 84.43 104.71C84.5853 104.785 84.756 104.822 84.9285 104.819C85.1011 104.816 85.2708 104.773 85.4241 104.692C85.5774 104.612 85.7102 104.496 85.8119 104.355C85.9136 104.214 85.9814 104.052 86.01 103.88C90.79 74.78 126.26 96.03 109.83 107.39C103.54 111.74 93.48 104.02 99.56 100.07C99.6197 100.033 99.6893 100.016 99.7592 100.02C99.8292 100.024 99.8962 100.05 99.9509 100.094C100.006 100.138 100.046 100.197 100.065 100.265C100.085 100.332 100.083 100.404 100.06 100.47C97.89 106.64 107.94 106.27 110.02 100.75C114.16 89.75 92.47 86.47 88.77 99.48C86.54 107.36 93.29 113.5 100.79 113.94C117.22 114.91 127.85 98.82 145.47 99.77C154.42 100.26 165.92 110.24 155.9 118.66C155.835 118.713 155.787 118.783 155.761 118.863C155.735 118.943 155.734 119.028 155.756 119.109C155.778 119.19 155.824 119.262 155.887 119.317C155.949 119.373 156.027 119.408 156.11 119.42C162.74 120.3 167.1 117.89 167.72 111.02C168.4 103.58 164.41 97.02 161.26 90.59C157.147 82.2033 156.723 73.8933 159.99 65.66C160.57 64.21 163.06 64.81 164.05 64.77C169.863 64.55 175.683 64.58 181.51 64.86C181.837 64.88 182.057 65.0433 182.17 65.35C184.637 72.01 185.187 78.06 183.82 83.5C182.21 89.92 176.81 97.18 175.2 103.6C172.51 114.33 175.4 119.61 186.99 119.71ZM178.42 67.14C173 66.9333 167.577 67.03 162.15 67.43C161.69 67.4633 161.42 67.7067 161.34 68.16L160.6 72.52C160.533 72.9 160.687 73.14 161.06 73.24C169.22 75.45 172.13 70.21 179.98 70.53C180.333 70.5433 180.56 70.3833 180.66 70.05C180.92 69.1967 180.84 68.4867 180.42 67.92C180.067 67.44 179.4 67.18 178.42 67.14ZM167.47 118.47L166.5 119.24C166.444 119.283 166.4 119.341 166.373 119.407C166.347 119.472 166.338 119.544 166.348 119.614C166.358 119.684 166.387 119.751 166.431 119.806C166.476 119.862 166.534 119.904 166.6 119.93C166.967 120.07 167.45 120.087 168.05 119.98L174.55 120.07C175.623 120.083 175.827 119.667 175.16 118.82C168.81 110.77 173.19 100.42 177.73 91.71C181.45 84.58 182.7 80.61 181.78 73.16C181.735 72.798 181.55 72.4676 181.265 72.2383C180.98 72.0089 180.616 71.8984 180.25 71.93C173.22 72.6 168.66 76.71 161.29 75.05C161.169 75.0221 161.044 75.0209 160.923 75.0465C160.802 75.0721 160.688 75.1239 160.589 75.1982C160.49 75.2725 160.408 75.3675 160.349 75.4767C160.291 75.5858 160.257 75.7064 160.25 75.83C159.82 83.88 162.75 88.8 166.72 96.26C169.95 102.31 172.12 112.26 167.47 118.47ZM193.92 112.17C194.95 109.9 197.53 109.19 199.67 110.53C199.87 110.657 199.98 110.827 200 111.04C200.04 111.453 199.873 111.563 199.5 111.37C197.39 110.22 195.89 111.5 195.92 113.71C196.03 122.86 212.49 118.09 210.44 109.78C208.14 100.43 195.75 100.01 189.4 104.71C181.16 110.81 186.74 120.02 195.48 119.72C195.793 119.713 195.883 119.567 195.75 119.28C194.61 116.85 192.61 115.1 193.92 112.17ZM148.19 118.49L147.6 119.04C147.353 119.267 147.367 119.48 147.64 119.68C148.053 119.993 148.417 120.003 148.73 119.71C153.61 119.59 158.28 116.57 158.23 111.41C158.12 100.2 133.91 97.42 133.25 111.24C132.97 117.02 140.24 119.62 144.7 118.03C148.76 116.58 149.04 109.42 144.22 111.34C143.867 111.473 143.737 111.36 143.83 111C144.88 106.99 153.9 112.12 148.19 118.49Z" fill="#CAA63F"/>
<path d="M115.63 76.98C112.06 82.78 118.69 87.5 123.77 88.27C127.403 88.8233 130.36 89.1733 132.64 89.32C132.993 89.3467 133.283 89.22 133.51 88.94C135.12 86.97 136.5 85.17 139.03 84.43C147.56 81.93 155.87 86.29 157.21 95.42C157.219 95.5085 157.197 95.5974 157.146 95.6705C157.095 95.7435 157.019 95.7957 156.933 95.8176C156.847 95.8395 156.755 95.8295 156.676 95.7895C156.596 95.7496 156.534 95.6823 156.5 95.6C153.61 87.49 144.54 84.19 136.94 88.04C136.76 88.133 136.612 88.2781 136.515 88.4564C136.418 88.6347 136.378 88.8379 136.398 89.0397C136.419 89.2415 136.499 89.4324 136.63 89.5876C136.761 89.7428 136.935 89.8552 137.13 89.91C139.52 90.56 140.8 94.31 137.68 95.16C134.84 95.93 134.21 93.12 132.92 91.49C132.824 91.3659 132.696 91.2699 132.55 91.2119C132.404 91.1538 132.245 91.1359 132.09 91.16C125.72 92.07 116.76 91.23 113.4 84.81C110.55 79.38 113.15 75.24 118.38 72.97C118.526 72.8986 118.694 72.8837 118.85 72.9281C119.007 72.9726 119.141 73.0733 119.228 73.2109C119.315 73.3486 119.348 73.5134 119.32 73.6738C119.293 73.8342 119.207 73.9789 119.08 74.08C118.02 75 116.34 75.83 115.63 76.98ZM137.66 92.42L135.94 91.67C135.587 91.5167 135.44 91.63 135.5 92.01C135.613 92.79 136.023 93.33 136.73 93.63C137.023 93.75 137.26 93.68 137.44 93.42L137.79 92.88C137.816 92.8424 137.833 92.7996 137.841 92.7545C137.848 92.7095 137.846 92.6633 137.833 92.6194C137.821 92.5754 137.799 92.5348 137.769 92.5003C137.739 92.4658 137.702 92.4384 137.66 92.42Z" fill="#CAA63F"/>
<path d="M207.31 88.86C206.197 87.5867 204.867 86.85 203.32 86.65C195.16 85.61 189.7 88.7433 186.94 96.05C186.925 96.1032 186.899 96.1529 186.865 96.1962C186.831 96.2396 186.788 96.2758 186.74 96.3027C186.692 96.3296 186.639 96.3468 186.584 96.3532C186.529 96.3596 186.473 96.3551 186.42 96.34C186.367 96.3249 186.317 96.2995 186.274 96.2652C186.23 96.2309 186.194 96.1883 186.167 96.1401C186.14 96.0918 186.123 96.0387 186.117 95.9837C186.11 95.9288 186.115 95.8732 186.13 95.82C187.63 87.92 192.417 83.8733 200.49 83.68C204.39 83.5933 207.463 85.2733 209.71 88.72C209.793 88.8498 209.906 88.9576 210.038 89.0342C210.17 89.1108 210.319 89.1539 210.47 89.16C215.36 89.38 223.23 88.69 226.83 84.96C230.33 81.34 229.37 75.68 224.25 74C224.01 73.92 223.927 73.7567 224 73.51C224.027 73.43 224.053 73.3467 224.08 73.26C224.1 73.2067 224.14 73.1833 224.2 73.19C229.85 74.07 232.56 78.75 230.39 84.01C227.39 91.25 217.87 92.07 211.23 91.27C211.063 91.2497 210.895 91.2778 210.746 91.3506C210.596 91.4235 210.473 91.538 210.39 91.68C206.11 99.12 200.58 92.63 207.12 89.71C207.567 89.51 207.63 89.2267 207.31 88.86ZM206.221 93.4173C206.374 93.5487 206.603 93.5782 206.86 93.4991C207.116 93.42 207.377 93.2389 207.586 92.9956C207.795 92.7523 207.935 92.4668 207.975 92.2018C208.015 91.9368 207.952 91.7141 207.799 91.5827C207.646 91.4513 207.417 91.4218 207.16 91.5009C206.904 91.58 206.643 91.7611 206.434 92.0044C206.225 92.2477 206.085 92.5332 206.045 92.7982C206.005 93.0632 206.068 93.2859 206.221 93.4173Z" fill="#CAA63F"/>
<path d="M178.91 75.5C178.904 75.3739 178.946 75.2503 179.028 75.154C179.109 75.0576 179.224 74.9956 179.349 74.9804C179.475 74.9653 179.601 74.998 179.703 75.0721C179.805 75.1462 179.876 75.2562 179.9 75.38C180.96 80.71 179.35 85.4 176.46 89.96C176.419 90.0343 176.35 90.0892 176.268 90.1126C176.187 90.136 176.099 90.1261 176.025 90.085C175.951 90.0439 175.896 89.975 175.872 89.8934C175.849 89.8118 175.859 89.7243 175.9 89.65C178.06 85.1967 179.063 80.48 178.91 75.5Z" fill="#9B8436" fill-opacity="0.996"/>
<path d="M170.88 80.78C171.36 80.78 171.75 80.5427 171.75 80.25C171.75 79.9573 171.36 79.72 170.88 79.72C170.4 79.72 170.01 79.9573 170.01 80.25C170.01 80.5427 170.4 80.78 170.88 80.78Z" fill="#9B8436" fill-opacity="0.996"/>
<path d="M166.287 83.6405C166.79 83.9385 167.411 83.8217 167.672 83.3796C167.934 82.9375 167.737 82.3375 167.233 82.0395C166.73 81.7415 166.109 81.8583 165.848 82.3004C165.586 82.7425 165.783 83.3425 166.287 83.6405Z" fill="#9B8436" fill-opacity="0.996"/>
<path d="M170.19 86.25C170.886 86.25 171.45 85.6859 171.45 84.99C171.45 84.2941 170.886 83.73 170.19 83.73C169.494 83.73 168.93 84.2941 168.93 84.99C168.93 85.6859 169.494 86.25 170.19 86.25Z" fill="#9B8436" fill-opacity="0.996"/>
<path d="M165.32 88.3836C165.898 89.0157 166.809 89.1236 167.355 88.6246C167.902 88.1256 167.877 87.2086 167.3 86.5764C166.722 85.9443 165.811 85.8364 165.265 86.3354C164.718 86.8344 164.743 87.7514 165.32 88.3836Z" fill="#9B8436" fill-opacity="0.996"/>
<path d="M169.68 92.55C170.68 92.55 171.49 91.7396 171.49 90.74C171.49 89.7404 170.68 88.93 169.68 88.93C168.68 88.93 167.87 89.7404 167.87 90.74C167.87 91.7396 168.68 92.55 169.68 92.55Z" fill="#CAA63F"/>
<path d="M38.47 120.86L43.66 118.14C43.708 118.114 43.7619 118.102 43.8163 118.103C43.8708 118.105 43.9238 118.121 43.97 118.15L48.92 121.28C48.9762 121.316 49.019 121.37 49.0421 121.433C49.0652 121.496 49.0674 121.564 49.0483 121.629C49.0291 121.693 48.9897 121.749 48.936 121.789C48.8822 121.829 48.817 121.85 48.75 121.85L38.6 121.45C38.5299 121.449 38.4621 121.425 38.4076 121.381C38.3532 121.337 38.3154 121.275 38.3003 121.207C38.2852 121.138 38.2938 121.067 38.3246 121.004C38.3554 120.941 38.4067 120.89 38.47 120.86Z" fill="#CAA63F"/>
<path d="M297.21 119.82L298.7 118.13C298.806 118.01 298.949 117.929 299.106 117.898C299.263 117.867 299.426 117.889 299.57 117.96L305.43 120.99C305.497 121.028 305.55 121.086 305.582 121.157C305.613 121.227 305.621 121.306 305.604 121.38C305.587 121.454 305.546 121.52 305.487 121.567C305.428 121.614 305.356 121.64 305.28 121.64L295.48 121.77C295.385 121.776 295.291 121.748 295.214 121.692C295.137 121.636 295.082 121.555 295.058 121.463C295.034 121.37 295.043 121.273 295.084 121.186C295.125 121.1 295.194 121.031 295.28 120.99L296.5 120.37C296.773 120.23 297.01 120.047 297.21 119.82Z" fill="#CAA63F"/>
<path d="M47.99 194.88C48.11 194.877 48.2269 194.918 48.3177 194.997C48.4084 195.076 48.4664 195.185 48.4803 195.305C48.4941 195.424 48.4627 195.544 48.3923 195.641C48.3219 195.738 48.2176 195.806 48.1 195.83C46.7067 196.13 45.6833 196.913 45.03 198.18C44.9371 198.36 44.778 198.497 44.5871 198.56C44.3961 198.624 44.1888 198.609 44.01 198.52L37.84 195.45C37.0667 195.063 37.11 194.87 37.97 194.87L47.99 194.88Z" fill="#CAA63F"/>
<path d="M221.9 196.98C221.54 197.047 221.187 197 220.84 196.84C219.5 196.84 218.323 197.273 217.31 198.14L216.17 197.92L213.19 196.9C209.897 196.627 207.143 197.04 204.93 198.14C204.177 197.647 203.447 197.437 202.74 197.51C202.353 197.55 202.263 197.73 202.47 198.05C202.757 198.49 203.273 198.817 204.02 199.03C205.427 199.303 205.883 200.087 205.39 201.38C205.331 201.529 205.236 201.661 205.114 201.764C204.991 201.867 204.844 201.938 204.687 201.97C204.53 202.002 204.367 201.994 204.214 201.946C204.061 201.899 203.922 201.815 203.81 201.7C203.07 200.94 202.3 200.147 201.5 199.32C201.253 199.067 201.027 198.957 200.82 198.99C200.56 199.037 200.33 199.223 200.13 199.55L198.98 199.84C197.527 198.407 196.037 197.8 194.51 198.02L193.04 197.19C192.367 196.857 191.757 196.867 191.21 197.22C190.843 197.233 190.683 197.353 190.73 197.58C190.01 197.273 189.417 197.173 188.95 197.28C188.423 197.4 188.407 197.57 188.9 197.79L190.47 198.48C190.63 198.813 190.97 199.073 191.49 199.26L189.94 200.99C188.393 198.583 186.58 197.503 184.5 197.75C184.073 197.803 183.92 198.05 184.04 198.49C183.553 198.65 183.197 198.887 182.97 199.2L180 199.33L179.51 198.25L180.67 197.82C181.51 197.893 182.04 197.73 182.26 197.33C182.291 197.271 182.306 197.205 182.304 197.139C182.302 197.072 182.283 197.007 182.249 196.95C182.215 196.893 182.167 196.846 182.109 196.812C182.052 196.779 181.986 196.761 181.92 196.76L175.51 196.75C175.15 196.75 174.913 196.92 174.8 197.26C174.613 197.84 174.343 198.32 173.99 198.7L173.38 199.19C173.107 199.683 172.68 199.867 172.1 199.74C172 199.707 171.9 199.673 171.8 199.64L169.83 199.05L169.18 198.34C168.82 198.227 168.5 197.957 168.22 197.53C168.067 197.037 167.827 196.777 167.5 196.75C166.787 196.69 165.217 196.707 162.79 196.8C161.79 196.6 161.077 196.653 160.65 196.96C160.601 196.993 160.562 197.038 160.536 197.091C160.509 197.143 160.496 197.202 160.498 197.26C160.5 197.319 160.517 197.377 160.547 197.427C160.577 197.478 160.619 197.52 160.67 197.55C161.097 197.81 161.717 197.94 162.53 197.94C162.67 198.007 162.83 198.027 163.01 198C162.957 198.193 163.03 198.373 163.23 198.54C163.377 198.667 163.373 198.787 163.22 198.9C163.147 198.96 163.067 199.01 162.98 199.05L159.29 199.54L159.16 198.59C157.57 196.28 154.63 198.91 153.57 200.55L152.21 200.49C151.877 200.47 151.72 200.293 151.74 199.96C151.753 199.713 151.837 199.5 151.99 199.32C152.263 199.16 152.44 198.973 152.52 198.76L154.85 197.33C154.948 197.265 155.022 197.168 155.056 197.054C155.091 196.941 155.085 196.819 155.039 196.711C154.993 196.603 154.911 196.515 154.807 196.464C154.703 196.412 154.583 196.4 154.47 196.43L152.01 197.08L150.23 197.01L148.29 197.75C146.663 197.817 145.25 198.513 144.05 199.84C143.31 199.853 142.903 199.633 142.83 199.18C142.81 199.06 142.773 198.963 142.72 198.89C142.587 198.69 142.43 198.673 142.25 198.84L139.2 201.58C139.079 201.69 138.921 201.75 138.758 201.746C138.596 201.742 138.442 201.676 138.33 201.56L137.61 200.84C137.263 200.5 137.29 200.193 137.69 199.92L139.3 198.79C139.793 198.643 140.127 198.407 140.3 198.08C140.48 197.74 140.377 197.553 139.99 197.52C139.623 197.487 139.173 197.653 138.64 198.02C137.68 198.107 136.76 197.793 135.88 197.08C135.672 196.917 135.416 196.826 135.15 196.82H131.382L129 197C128.573 196.98 128.177 197 127.5 197C125.5 197 123.453 196.963 122.22 197.01L121.48 196.96C102.69 195.93 83.58 196.46 64.75 196.45C61.46 196.44 55.59 196.27 55.14 200.46C55.1186 200.609 55.0434 200.746 54.9286 200.844C54.8137 200.942 54.6671 200.994 54.5162 200.992C54.3653 200.99 54.2204 200.932 54.1088 200.83C53.9972 200.729 53.9265 200.59 53.91 200.44L53.68 197.7C53.66 197.427 53.5133 197.297 53.24 197.31C50.19 197.45 50.38 201.36 51.13 203.27C51.1752 203.387 51.1845 203.515 51.1568 203.637C51.129 203.759 51.0654 203.87 50.9742 203.956C50.8829 204.042 50.7681 204.099 50.6445 204.119C50.5208 204.139 50.3939 204.122 50.28 204.07C44.07 201.18 49.34 194.82 54.5 194.81C132.5 194.81 210.5 194.783 288.5 194.73C294.02 194.73 300.37 201.18 292.91 204.52C292.57 204.673 292.423 204.567 292.47 204.2C292.77 201.82 293.43 197.89 290.49 197.25C290.417 197.235 290.342 197.238 290.271 197.259C290.2 197.28 290.135 197.318 290.083 197.37C290.032 197.422 289.994 197.486 289.974 197.556C289.954 197.626 289.953 197.699 289.97 197.77C290.217 198.897 289.923 199.823 289.09 200.55C288.73 200.87 288.5 200.793 288.4 200.32C287.913 198.06 286.343 196.903 283.69 196.85C265.957 196.483 248.227 196.363 230.5 196.49C227.707 196.51 224.84 196.673 221.9 196.98ZM144.07 197.83C144.59 197.823 145.04 197.63 145.42 197.25C145.86 196.803 145.767 196.6 145.14 196.64L142.88 196.8C142.761 196.807 142.647 196.849 142.553 196.921C142.458 196.993 142.387 197.092 142.348 197.204C142.309 197.317 142.305 197.438 142.336 197.553C142.366 197.668 142.431 197.772 142.52 197.85C142.813 198.11 143.173 198.137 143.6 197.93C143.747 197.863 143.903 197.83 144.07 197.83ZM200.668 197.454C200.672 197.37 200.64 197.284 200.571 197.203C200.503 197.121 200.401 197.044 200.27 196.977C200.139 196.91 199.982 196.854 199.808 196.812C199.634 196.769 199.447 196.742 199.257 196.731C198.873 196.709 198.501 196.755 198.222 196.859C197.944 196.963 197.782 197.117 197.772 197.286C197.768 197.37 197.8 197.456 197.868 197.537C197.937 197.619 198.039 197.696 198.17 197.763C198.301 197.83 198.458 197.886 198.632 197.928C198.806 197.971 198.993 197.998 199.183 198.009C199.567 198.031 199.939 197.985 200.217 197.881C200.496 197.777 200.658 197.623 200.668 197.454Z" fill="#CAA63F"/>
<path d="M296.64 196.31L295.39 195.81C295.291 195.772 295.209 195.7 295.158 195.608C295.106 195.515 295.089 195.408 295.11 195.304C295.13 195.2 295.186 195.106 295.269 195.04C295.351 194.973 295.454 194.938 295.56 194.94L305.24 194.92C306.187 194.92 306.24 195.137 305.4 195.57L300.04 198.36C299.854 198.457 299.646 198.505 299.437 198.498C299.228 198.491 299.026 198.43 298.85 198.32C298.27 197.96 297.797 197.503 297.43 196.95C297.23 196.657 296.967 196.443 296.64 196.31Z" fill="#CAA63F"/>
<path d="M130.79 196.7C130.49 196.927 130.307 197.153 130.24 197.38C130.18 197.587 130.273 197.823 130.52 198.09C132.667 200.363 135.27 202.067 138.33 203.2C138.65 203.32 138.963 203.307 139.27 203.16C140.797 202.427 141.983 201.1 142.83 199.18C142.903 199.633 143.31 199.853 144.05 199.84C141.73 202.9 139.983 206.26 138.81 209.92C138.75 210.109 138.763 210.313 138.846 210.493C138.929 210.672 139.077 210.814 139.26 210.89C143.71 212.76 148.33 214.79 153.25 213.46C153.607 213.365 153.914 213.137 154.108 212.823C154.301 212.508 154.366 212.131 154.29 211.77C154.083 210.763 154.203 209.83 154.65 208.97C154.708 208.858 154.73 208.731 154.713 208.605C154.697 208.48 154.643 208.363 154.558 208.27C154.473 208.176 154.362 208.111 154.239 208.082C154.116 208.054 153.987 208.063 153.87 208.11L149.73 209.79C149.443 209.903 149.157 209.903 148.87 209.79C147.55 209.237 146.19 208.97 144.79 208.99C144.605 208.993 144.422 208.947 144.26 208.857C144.098 208.766 143.963 208.635 143.869 208.475C143.774 208.316 143.724 208.134 143.722 207.949C143.721 207.763 143.768 207.581 143.86 207.42C145.527 204.487 147.89 202.397 150.95 201.15C151.062 201.104 151.159 201.026 151.228 200.926C151.296 200.826 151.334 200.708 151.336 200.587C151.338 200.465 151.305 200.346 151.24 200.243C151.175 200.141 151.081 200.06 150.97 200.01C149.983 199.577 149.09 198.823 148.29 197.75L150.23 197.01C150.243 198.35 150.83 199.12 151.99 199.32C151.837 199.5 151.753 199.713 151.74 199.96C151.72 200.293 151.877 200.47 152.21 200.49L153.57 200.55L152.44 201.96C152.12 202.747 151.617 203.467 150.93 204.12L149.8 203.44C149.447 203.233 149.12 203.267 148.82 203.54L145.86 206.21C145.699 206.354 145.586 206.543 145.536 206.753C145.486 206.963 145.501 207.183 145.579 207.385C145.657 207.586 145.795 207.758 145.974 207.879C146.153 208 146.364 208.063 146.58 208.06L151.26 208.01C151.377 208.019 151.492 207.982 151.581 207.906C151.67 207.83 151.726 207.722 151.735 207.605C151.744 207.488 151.707 207.373 151.631 207.284C151.555 207.195 151.447 207.139 151.33 207.13L149.18 206.76C148.86 206.707 148.65 206.53 148.55 206.23C147.97 204.6 149.96 203.81 150.83 205.13C150.96 205.318 151.145 205.462 151.36 205.54C154.52 206.707 157.42 207.077 160.06 206.65C160.907 206.51 161.283 205.997 161.19 205.11C161.15 204.743 160.95 204.6 160.59 204.68C159.01 205.007 157.587 204.767 156.32 203.96C156.02 203.767 155.873 203.493 155.88 203.14C155.92 200.953 157.013 199.437 159.16 198.59L159.29 199.54C158.223 199.833 157.443 200.53 156.95 201.63C156.815 201.929 156.767 202.26 156.811 202.585C156.855 202.91 156.989 203.216 157.199 203.468C157.408 203.72 157.685 203.909 157.996 204.012C158.307 204.114 158.641 204.128 158.96 204.05C161.287 203.483 163.197 202.2 164.69 200.2C164.754 200.114 164.793 200.011 164.801 199.904C164.809 199.796 164.787 199.689 164.737 199.594C164.687 199.498 164.611 199.419 164.517 199.366C164.424 199.312 164.318 199.286 164.21 199.29C163.75 199.303 163.34 199.223 162.98 199.05C163.067 199.01 163.147 198.96 163.22 198.9C163.373 198.787 163.377 198.667 163.23 198.54C163.03 198.373 162.957 198.193 163.01 198C164.79 198.347 166.527 198.19 168.22 197.53C168.5 197.957 168.82 198.227 169.18 198.34C166.68 199.553 164.82 201.37 163.6 203.79C163.531 203.928 163.506 204.084 163.53 204.236C163.554 204.389 163.625 204.53 163.733 204.64C163.841 204.75 163.98 204.824 164.132 204.851C164.284 204.878 164.441 204.856 164.58 204.79C167.08 203.59 168.83 201.677 169.83 199.05L171.8 199.64C171.513 199.68 171.27 199.75 171.07 199.85C170.883 199.95 170.74 200.14 170.64 200.42C169.753 203.047 169.893 205.66 171.06 208.26C171.09 208.326 171.138 208.383 171.199 208.423C171.26 208.464 171.331 208.486 171.404 208.488C171.477 208.49 171.549 208.472 171.612 208.435C171.675 208.398 171.726 208.345 171.76 208.28C173.213 205.54 173.327 202.693 172.1 199.74C172.68 199.867 173.107 199.683 173.38 199.19C174.46 202.05 176.233 203.817 178.7 204.49C179.193 204.63 179.38 204.45 179.26 203.95C178.74 201.843 177.27 200.11 174.85 198.75C174.803 198.07 175.54 197.813 177.06 197.98C177.9 198.267 178.717 198.357 179.51 198.25L180 199.33L178.96 199.56C178.892 199.576 178.829 199.61 178.778 199.658C178.727 199.706 178.689 199.767 178.67 199.833C178.65 199.9 178.649 199.97 178.667 200.036C178.685 200.103 178.72 200.163 178.77 200.21L182.14 203.49C182.408 203.752 182.74 203.94 183.103 204.035C183.465 204.131 183.847 204.131 184.209 204.035C184.572 203.939 184.903 203.751 185.172 203.489C185.44 203.227 185.636 202.9 185.74 202.54C186.233 200.86 185.31 199.747 182.97 199.2C183.197 198.887 183.553 198.65 184.04 198.49C185.553 199.29 186.72 200.563 187.54 202.31C187.693 202.643 187.957 202.793 188.33 202.76C189.01 202.693 189.56 202.78 189.98 203.02L190.8 203.99L190.72 204.75L188.69 205.34L187.5 203.91C187.267 203.63 187.01 203.61 186.73 203.85C185.583 204.803 184.253 205.173 182.74 204.96C182.594 204.938 182.445 204.97 182.321 205.049C182.197 205.128 182.105 205.25 182.064 205.392C182.022 205.533 182.033 205.685 182.095 205.819C182.157 205.953 182.265 206.06 182.4 206.12C184.607 207.133 186.75 207.11 188.83 206.05L191.54 205.86C191.96 205.707 192.197 205.42 192.25 205C192.297 204.64 192.133 204.29 191.76 203.95L190.55 202.24C190.47 201.48 190.267 201.063 189.94 200.99L191.49 199.26C191.703 199.22 191.877 199.06 192.01 198.78C192.503 198.82 192.847 198.29 193.04 197.19L194.51 198.02C193.837 199.06 193.003 199.683 192.01 199.89C191.879 199.92 191.761 199.991 191.673 200.093C191.586 200.195 191.533 200.323 191.523 200.457C191.513 200.591 191.546 200.725 191.617 200.839C191.689 200.953 191.795 201.041 191.92 201.09C195.287 202.35 197.847 204.573 199.6 207.76C199.76 208.06 199.687 208.287 199.38 208.44C195.953 210.12 192.667 210.027 189.52 208.16C189.398 208.089 189.255 208.061 189.114 208.08C188.974 208.099 188.844 208.164 188.746 208.264C188.647 208.365 188.586 208.495 188.573 208.634C188.559 208.773 188.593 208.913 188.67 209.03C189.297 210.003 189.317 210.97 188.73 211.93C188.684 212.006 188.654 212.09 188.642 212.177C188.629 212.265 188.635 212.353 188.659 212.438C188.682 212.522 188.723 212.601 188.778 212.668C188.833 212.736 188.902 212.791 188.98 212.83C193.49 215.19 199.47 212.82 203.87 210.66C204.177 210.507 204.283 210.267 204.19 209.94C203.157 206.173 201.42 202.807 198.98 199.84L200.13 199.55L203.76 203.06C204.007 203.3 204.297 203.37 204.63 203.27C208.23 202.17 211.083 200.047 213.19 196.9L216.17 197.92C214.51 198.453 213.133 199.527 212.04 201.14C211.927 201.313 211.923 201.49 212.03 201.67L213.39 204.02C213.523 204.247 213.713 204.327 213.96 204.26C214.073 204.233 214.177 204.183 214.27 204.11C214.47 203.93 214.533 203.663 214.46 203.31C214.293 202.53 213.793 202.013 212.96 201.76C212.573 201.64 212.52 201.437 212.8 201.15C212.873 201.077 212.953 201.017 213.04 200.97C213.28 200.823 213.513 200.833 213.74 201L215.33 202.17C215.424 202.241 215.537 202.282 215.654 202.285C215.771 202.289 215.887 202.255 215.985 202.19C216.084 202.124 216.16 202.029 216.204 201.918C216.248 201.808 216.257 201.686 216.23 201.57C216.05 200.837 215.607 200.26 214.9 199.84C214.824 199.795 214.764 199.728 214.728 199.648C214.693 199.568 214.683 199.478 214.7 199.391C214.718 199.304 214.761 199.223 214.826 199.161C214.89 199.098 214.972 199.056 215.06 199.04C215.9 198.913 216.437 199.26 216.67 200.08C216.694 200.168 216.738 200.249 216.797 200.318C216.857 200.387 216.931 200.442 217.014 200.479C217.097 200.516 217.187 200.535 217.278 200.533C217.369 200.532 217.458 200.51 217.54 200.47C218.44 200.023 218.72 199.317 218.38 198.35C219.467 197.923 220.287 197.42 220.84 196.84C221.187 197 221.54 197.047 221.9 196.98C219.75 200.87 216.81 205 212.63 206.87C209.7 208.18 204.44 209.84 206.37 214.4C208.457 219.32 208.917 224.693 207.75 230.52C206.68 235.91 193.36 233.32 190 231.92C187.73 230.98 186.2 231.16 184.27 232.34C183.97 232.52 183.767 232.78 183.66 233.12C181.773 239.487 177.863 244.147 171.93 247.1C171.657 247.233 171.383 247.23 171.11 247.09C165.83 244.323 162.163 240.253 160.11 234.88C159.13 232.32 156.92 230.2 154.28 231.28C148.073 233.833 142.247 234.307 136.8 232.7C136.629 232.65 136.472 232.561 136.342 232.439C136.212 232.318 136.112 232.167 136.05 232C134.037 226.687 134.067 221.48 136.14 216.38C137.64 212.7 137.54 209.36 133.37 208.09C127.85 206.39 124.36 202.2 121.48 196.96L122.22 197.01L124.93 198.66C124.55 198.947 124.32 199.267 124.24 199.62C124.208 199.753 124.216 199.893 124.262 200.021C124.309 200.15 124.392 200.262 124.502 200.344C124.611 200.426 124.742 200.474 124.879 200.482C125.015 200.49 125.151 200.458 125.27 200.39L127.92 198.88C128.493 198.553 128.453 198.353 127.8 198.28C127.467 198.247 127.203 198.147 127.01 197.98L130.79 196.7ZM126.19 201.8L126.98 202.75C127.023 202.8 127.083 202.831 127.149 202.837C127.214 202.842 127.279 202.822 127.33 202.78L127.41 202.72C127.811 202.387 128.197 202.045 128.546 201.713C128.896 201.381 129.202 201.065 129.446 200.785C129.69 200.504 129.869 200.264 129.971 200.077C130.073 199.891 130.096 199.763 130.04 199.7L129.75 199.35C129.697 199.284 129.566 199.285 129.364 199.351C129.162 199.418 128.893 199.549 128.573 199.737C128.252 199.926 127.887 200.168 127.497 200.45C127.107 200.732 126.7 201.048 126.3 201.38L126.22 201.44C126.194 201.461 126.172 201.488 126.156 201.517C126.141 201.547 126.131 201.58 126.128 201.614C126.125 201.647 126.129 201.681 126.14 201.713C126.151 201.745 126.168 201.775 126.19 201.8ZM128.07 203.7L128.61 204.32C128.997 204.767 129.353 204.743 129.68 204.25L131.38 201.67C131.56 201.39 131.493 201.2 131.18 201.1L130.84 200.99C130.547 200.897 130.333 200.99 130.2 201.27C129.787 202.177 129.137 202.77 128.25 203.05C128.186 203.07 128.127 203.105 128.081 203.153C128.034 203.202 128 203.261 127.982 203.326C127.964 203.39 127.963 203.459 127.978 203.524C127.993 203.59 128.025 203.65 128.07 203.7ZM133.859 203.418C133.894 203.353 133.915 203.282 133.922 203.209C133.929 203.136 133.922 203.062 133.9 202.992C133.879 202.921 133.844 202.856 133.797 202.799C133.75 202.742 133.693 202.695 133.628 202.661L132.957 202.304C132.892 202.27 132.821 202.248 132.747 202.241C132.674 202.234 132.6 202.241 132.53 202.263C132.46 202.284 132.394 202.32 132.338 202.366C132.281 202.413 132.234 202.471 132.199 202.536L131.101 204.602C131.066 204.667 131.045 204.738 131.038 204.811C131.031 204.884 131.038 204.958 131.06 205.028C131.081 205.099 131.116 205.164 131.163 205.221C131.21 205.278 131.267 205.325 131.332 205.359L132.003 205.716C132.068 205.75 132.139 205.772 132.213 205.779C132.286 205.786 132.36 205.779 132.43 205.757C132.5 205.736 132.566 205.7 132.622 205.654C132.679 205.607 132.726 205.549 132.761 205.484L133.859 203.418ZM210.988 202.9C210.912 202.766 210.787 202.668 210.638 202.626C210.49 202.585 210.332 202.604 210.198 202.68L209.762 202.925C209.696 202.963 209.637 203.013 209.59 203.073C209.543 203.133 209.509 203.201 209.488 203.275C209.468 203.348 209.462 203.425 209.471 203.5C209.48 203.576 209.504 203.649 209.542 203.715L210.592 205.58C210.668 205.714 210.793 205.812 210.942 205.854C211.09 205.895 211.248 205.876 211.382 205.8L211.818 205.555C211.884 205.517 211.943 205.467 211.99 205.407C212.037 205.347 212.071 205.279 212.092 205.205C212.112 205.132 212.118 205.055 212.109 204.98C212.1 204.904 212.076 204.831 212.038 204.765L210.988 202.9ZM194.96 205.48C194.853 205.96 194.627 206.33 194.28 206.59C193.993 206.817 193.673 206.88 193.32 206.78C192.827 206.633 192.417 206.717 192.09 207.03C192.013 207.104 191.959 207.199 191.936 207.303C191.913 207.407 191.921 207.516 191.96 207.615C191.998 207.715 192.065 207.8 192.153 207.862C192.24 207.923 192.343 207.957 192.45 207.96L196.88 208.01C196.956 208.01 197.031 207.995 197.1 207.966C197.17 207.936 197.234 207.894 197.287 207.84C197.34 207.786 197.381 207.722 197.41 207.651C197.438 207.581 197.451 207.506 197.45 207.43C197.43 206.67 196.857 205.93 195.73 205.21C195.28 203.98 194.66 202.6 193.01 203.38C192.57 203.587 192.57 203.787 193.01 203.98C193.863 204.36 194.513 204.86 194.96 205.48ZM134.142 206.711C134.342 206.851 134.631 206.847 134.944 206.7C135.257 206.553 135.57 206.275 135.814 205.928C136.057 205.58 136.211 205.191 136.242 204.846C136.273 204.502 136.178 204.229 135.978 204.089C135.778 203.949 135.489 203.953 135.176 204.1C134.863 204.247 134.55 204.525 134.306 204.872C134.063 205.22 133.909 205.609 133.878 205.954C133.847 206.298 133.942 206.571 134.142 206.711ZM139.483 205.297C139.529 205.22 139.559 205.136 139.572 205.047C139.585 204.959 139.58 204.869 139.559 204.782C139.537 204.696 139.498 204.614 139.445 204.543C139.391 204.471 139.324 204.411 139.247 204.365L139.059 204.252C138.982 204.207 138.897 204.176 138.809 204.164C138.72 204.151 138.63 204.155 138.544 204.177C138.457 204.199 138.376 204.238 138.304 204.291C138.232 204.345 138.172 204.411 138.126 204.488L136.437 207.323C136.391 207.4 136.361 207.484 136.348 207.573C136.335 207.661 136.34 207.751 136.361 207.838C136.383 207.924 136.422 208.006 136.475 208.077C136.529 208.149 136.596 208.209 136.673 208.255L136.861 208.368C136.938 208.413 137.023 208.444 137.111 208.456C137.2 208.469 137.29 208.465 137.376 208.443C137.463 208.421 137.544 208.382 137.616 208.329C137.688 208.275 137.748 208.209 137.794 208.132L139.483 205.297ZM209.201 206.994C209.355 206.891 209.4 206.639 209.327 206.295C209.254 205.951 209.068 205.543 208.811 205.16C208.684 204.97 208.542 204.792 208.395 204.637C208.248 204.481 208.099 204.351 207.955 204.253C207.811 204.155 207.675 204.092 207.556 204.066C207.436 204.041 207.336 204.055 207.26 204.106C207.105 204.209 207.06 204.461 207.133 204.805C207.206 205.149 207.392 205.557 207.649 205.94C207.776 206.13 207.918 206.308 208.065 206.463C208.212 206.619 208.361 206.749 208.505 206.847C208.649 206.945 208.785 207.008 208.904 207.034C209.024 207.059 209.124 207.045 209.201 206.994ZM164.32 210.53L166.49 211.56C166.591 211.607 166.701 211.634 166.812 211.639C166.924 211.644 167.035 211.627 167.14 211.589C167.245 211.551 167.341 211.493 167.424 211.417C167.506 211.342 167.573 211.251 167.62 211.15L167.65 211.09C168.013 210.323 168.326 209.542 168.572 208.791C168.818 208.04 168.992 207.334 169.084 206.714C169.176 206.094 169.184 205.571 169.108 205.176C169.032 204.78 168.873 204.52 168.64 204.41L168.48 204.34C168.248 204.227 167.947 204.266 167.593 204.456C167.239 204.647 166.839 204.984 166.418 205.448C165.996 205.913 165.56 206.496 165.135 207.164C164.709 207.831 164.303 208.571 163.94 209.34L163.91 209.4C163.815 209.604 163.804 209.838 163.881 210.05C163.958 210.262 164.116 210.435 164.32 210.53ZM174.16 204.94C173.81 206.67 174.52 211.52 177.09 211.22C177.73 211.147 178.17 210.793 178.41 210.16C179.26 207.9 176.97 205.64 175.15 204.51C175.06 204.455 174.957 204.422 174.852 204.415C174.746 204.408 174.64 204.426 174.543 204.468C174.446 204.51 174.361 204.575 174.294 204.657C174.227 204.739 174.181 204.836 174.16 204.94ZM206.209 208.496C206.41 208.399 206.499 208.092 206.457 207.644C206.415 207.195 206.246 206.642 205.986 206.104C205.858 205.838 205.711 205.584 205.554 205.357C205.397 205.13 205.233 204.933 205.072 204.779C204.911 204.625 204.756 204.516 204.615 204.459C204.474 204.401 204.35 204.396 204.251 204.444C204.05 204.541 203.961 204.848 204.003 205.296C204.045 205.745 204.214 206.298 204.474 206.836C204.602 207.102 204.749 207.356 204.906 207.583C205.063 207.81 205.227 208.007 205.388 208.161C205.549 208.315 205.704 208.424 205.845 208.481C205.986 208.539 206.11 208.544 206.209 208.496ZM162.01 213.93C162.19 215.583 161.887 216.433 161.1 216.48C159.927 218.3 159.797 220.293 160.71 222.46C160.877 222.853 161.14 222.937 161.5 222.71C162.847 221.863 163.917 220.763 164.71 219.41C164.758 219.331 164.779 219.238 164.767 219.146C164.756 219.054 164.714 218.968 164.648 218.903C164.582 218.838 164.495 218.798 164.403 218.788C164.311 218.778 164.218 218.8 164.14 218.85L162.16 220.06C162.082 220.107 161.993 220.134 161.902 220.139C161.811 220.144 161.72 220.127 161.637 220.09C161.553 220.053 161.48 219.996 161.423 219.925C161.367 219.853 161.328 219.769 161.31 219.68C161.143 218.84 161.233 218.033 161.58 217.26C161.773 217.06 162.077 216.953 162.49 216.94C163.403 217.627 163.943 217.68 164.11 217.1C166.35 215.66 170.86 213.16 170.5 210.04C170.488 209.939 170.444 209.844 170.374 209.771C170.304 209.697 170.212 209.648 170.111 209.631C170.011 209.614 169.908 209.63 169.817 209.677C169.727 209.724 169.654 209.798 169.61 209.89C168.883 211.363 167.723 212.27 166.13 212.61C165.763 212.69 165.417 212.633 165.09 212.44C163.61 211.553 163.173 210.243 163.78 208.51C163.829 208.369 163.841 208.218 163.815 208.07C163.789 207.923 163.726 207.785 163.632 207.669C163.538 207.553 163.416 207.463 163.277 207.407C163.139 207.351 162.988 207.332 162.84 207.35C161.933 207.47 161.447 208.103 161.38 209.25C161.267 210.97 161.477 212.53 162.01 213.93ZM178.95 212.25C178.363 211.89 177.793 212.093 177.24 212.86C175.507 212.54 174.327 211.527 173.7 209.82C173.6 209.54 173.407 209.43 173.12 209.49L172.58 209.59C172.5 209.606 172.425 209.64 172.36 209.688C172.294 209.737 172.24 209.799 172.201 209.87C172.162 209.941 172.139 210.02 172.134 210.102C172.128 210.183 172.141 210.264 172.17 210.34C173.07 212.647 174.693 214.46 177.04 215.78L178.7 216.78C179.06 217.34 179.51 217.43 180.05 217.05C180.337 216.843 180.513 216.587 180.58 216.28L180.99 214.25C181.477 212.37 181.59 210.467 181.33 208.54C181.223 207.773 180.873 207.42 180.28 207.48C180.133 207.496 179.991 207.546 179.866 207.625C179.742 207.705 179.637 207.811 179.56 207.937C179.484 208.063 179.438 208.205 179.425 208.351C179.413 208.497 179.435 208.644 179.49 208.78C179.943 209.933 179.763 211.09 178.95 212.25ZM160.242 208.839C160.195 208.589 160.037 208.37 159.801 208.231C159.565 208.091 159.272 208.043 158.985 208.096C158.843 208.122 158.707 208.173 158.584 208.245C158.462 208.316 158.356 208.408 158.271 208.514C158.187 208.621 158.127 208.739 158.094 208.864C158.061 208.989 158.055 209.117 158.078 209.24C158.125 209.491 158.283 209.71 158.519 209.849C158.755 209.989 159.048 210.037 159.335 209.984C159.477 209.958 159.613 209.907 159.736 209.835C159.858 209.764 159.964 209.672 160.049 209.566C160.133 209.459 160.193 209.341 160.226 209.216C160.259 209.091 160.265 208.963 160.242 208.839ZM184.74 208.5C184.4 208.3 183.97 208.187 183.45 208.16C183.209 208.143 182.991 208.221 182.84 208.376C182.688 208.532 182.615 208.754 182.636 208.997C182.656 209.24 182.769 209.485 182.95 209.683C183.131 209.881 183.367 210.016 183.61 210.06C184.297 210.193 184.733 209.807 184.92 208.9C184.96 208.72 184.9 208.587 184.74 208.5ZM159.29 211.71L156.57 209.11C156.531 209.073 156.484 209.044 156.434 209.026C156.383 209.007 156.33 208.998 156.276 209C156.222 209.002 156.169 209.014 156.12 209.036C156.071 209.059 156.027 209.091 155.99 209.13L155.96 209.16C155.58 209.56 155.377 210.098 155.395 210.656C155.414 211.214 155.653 211.748 156.06 212.14L156.28 212.35C156.69 212.742 157.235 212.959 157.796 212.954C158.357 212.948 158.887 212.72 159.27 212.32L159.3 212.29C159.337 212.251 159.367 212.206 159.387 212.155C159.406 212.105 159.416 212.052 159.415 211.998C159.414 211.944 159.403 211.891 159.381 211.842C159.36 211.792 159.329 211.747 159.29 211.71ZM186.05 210.05L184.72 211.38C184.595 211.509 184.512 211.673 184.483 211.85C184.453 212.028 184.479 212.21 184.556 212.372C184.634 212.534 184.759 212.669 184.915 212.758C185.071 212.847 185.251 212.886 185.43 212.87C187.47 212.65 188.69 209.9 186.7 208.6C186.602 208.536 186.485 208.504 186.368 208.511C186.251 208.517 186.138 208.561 186.048 208.636C185.957 208.711 185.893 208.813 185.865 208.927C185.836 209.041 185.845 209.161 185.89 209.27C185.923 209.357 185.95 209.437 185.97 209.51C186.05 209.843 186.077 210.023 186.05 210.05ZM141.8 213.24C141.087 213.047 140.36 212.83 139.62 212.59C139.32 212.49 139.07 212.563 138.87 212.81C138.537 213.223 138.617 213.573 139.11 213.86C139.517 214.093 140.42 214.457 141.82 214.95C142.133 215.063 142.34 214.96 142.44 214.64C142.68 213.893 142.467 213.427 141.8 213.24ZM200.66 213.69C200.293 213.797 200.027 213.997 199.86 214.29C199.64 214.663 199.743 214.873 200.17 214.92C200.89 214.993 201.687 214.777 202.56 214.27L204.15 213.48C204.259 213.423 204.343 213.327 204.385 213.211C204.427 213.095 204.424 212.968 204.376 212.854C204.328 212.741 204.239 212.65 204.127 212.599C204.014 212.548 203.887 212.541 203.77 212.58L200.66 213.69ZM171.151 215.294C171.341 215.352 171.556 215.302 171.749 215.156C171.941 215.009 172.095 214.777 172.177 214.51C172.259 214.244 172.262 213.966 172.185 213.736C172.109 213.507 171.959 213.345 171.769 213.286C171.579 213.228 171.364 213.278 171.171 213.424C170.979 213.571 170.825 213.803 170.743 214.07C170.661 214.336 170.658 214.614 170.735 214.844C170.811 215.073 170.961 215.235 171.151 215.294ZM159.76 224.51C158.18 220.44 158.87 218.42 160.04 214.36C160.062 214.284 160.065 214.204 160.049 214.127C160.033 214.05 159.999 213.979 159.95 213.918C159.9 213.858 159.837 213.811 159.766 213.782C159.694 213.752 159.617 213.742 159.54 213.75L155.78 214.09C155.42 214.123 155.187 214.313 155.08 214.66C154.5 216.54 153.88 218 154.42 220.03C155.253 223.217 156.253 226.283 157.42 229.23C157.464 229.343 157.53 229.446 157.615 229.532C157.7 229.618 157.802 229.686 157.913 229.731C158.025 229.776 158.144 229.797 158.264 229.794C158.384 229.79 158.502 229.762 158.61 229.71C163 227.69 168.78 225.75 170.3 220.82C170.393 220.513 170.34 220.233 170.14 219.98L167.66 216.8C167.642 216.777 167.618 216.759 167.591 216.748C167.563 216.737 167.534 216.735 167.505 216.74C167.476 216.745 167.449 216.758 167.427 216.777C167.405 216.797 167.389 216.822 167.38 216.85C166.193 220.37 163.92 223.02 160.56 224.8C160.18 225 159.913 224.903 159.76 224.51ZM183.48 224.56C183.455 224.633 183.416 224.7 183.365 224.758C183.313 224.815 183.251 224.861 183.181 224.893C183.112 224.925 183.037 224.942 182.961 224.943C182.885 224.944 182.81 224.93 182.74 224.9C179.56 223.52 177.263 221.257 175.85 218.11C175.65 217.67 175.37 217.61 175.01 217.93L172.8 219.91C172.487 220.183 172.407 220.513 172.56 220.9C174.5 225.78 180.15 227.69 184.73 229.73C185.063 229.883 185.297 229.787 185.43 229.44C187.29 224.57 189.88 219.84 187.78 214.55C187.607 214.117 187.29 213.93 186.83 213.99L183.99 214.32C183.59 214.367 183.447 214.58 183.56 214.96C184.507 218.147 184.48 221.347 183.48 224.56ZM149.7 221.75C150.047 221.31 150.223 220.95 150.23 220.67C150.237 220.317 150.077 220.207 149.75 220.34C149.137 220.593 148.65 221.073 148.29 221.78C147.31 222.273 146.587 222.127 146.12 221.34C145.913 221 145.96 220.697 146.26 220.43L147.43 219.38C147.522 219.302 147.582 219.194 147.6 219.076C147.618 218.958 147.591 218.837 147.526 218.735C147.461 218.633 147.36 218.558 147.244 218.522C147.127 218.486 147.002 218.493 146.89 218.54L145.77 219.01C145.675 219.047 145.571 219.051 145.475 219.022C145.379 218.993 145.296 218.932 145.24 218.85L144.42 217.63C144.329 217.495 144.281 217.334 144.283 217.17C144.285 217.006 144.336 216.846 144.43 216.71C144.957 215.937 145.89 215.733 147.23 216.1C147.863 216.367 148.39 216.247 148.81 215.74C149.083 215.407 149.017 215.17 148.61 215.03C148.37 214.95 148.037 214.967 147.61 215.08C142.14 213.43 141.77 219.95 141.75 223.99C141.75 224.277 141.673 224.543 141.52 224.79C141.14 225.417 141.163 225.977 141.59 226.47C141.79 226.703 142.047 226.83 142.36 226.85C145.27 227.01 151.62 226.83 153.21 223.75C154.03 222.163 153.883 220.733 152.77 219.46C151.497 218 151.253 218.153 152.04 219.92C152.58 221.133 152.613 222.32 152.14 223.48C152.064 223.662 151.923 223.809 151.745 223.893C151.567 223.976 151.366 223.989 151.18 223.93C150.093 223.583 149.6 222.857 149.7 221.75ZM191.833 217.411C191.989 217.292 192.048 217.058 191.997 216.761C191.946 216.463 191.789 216.126 191.56 215.824C191.447 215.674 191.319 215.537 191.185 215.421C191.051 215.305 190.912 215.212 190.777 215.148C190.642 215.083 190.514 215.049 190.399 215.045C190.284 215.042 190.185 215.071 190.107 215.13C189.951 215.248 189.892 215.482 189.943 215.779C189.994 216.077 190.151 216.414 190.38 216.716C190.493 216.866 190.621 217.003 190.755 217.119C190.889 217.235 191.028 217.328 191.163 217.392C191.298 217.457 191.426 217.491 191.541 217.495C191.656 217.498 191.755 217.469 191.833 217.411ZM197.03 215.89L198.05 216.22C198.299 216.303 198.512 216.467 198.655 216.687C198.798 216.906 198.863 217.168 198.839 217.428C198.814 217.689 198.702 217.934 198.521 218.123C198.34 218.312 198.1 218.435 197.84 218.47L197 218.58C196.3 218.273 195.74 218.18 195.32 218.3C194.827 218.447 194.803 218.643 195.25 218.89L196.75 219.72C196.943 220.073 197.03 220.453 197.01 220.86C196.997 221.18 196.867 221.44 196.62 221.64C195.893 222.22 195.187 222.35 194.5 222.03C194.207 221.197 193.803 220.657 193.29 220.41C192.903 220.223 192.743 220.343 192.81 220.77C192.89 221.317 193.1 221.813 193.44 222.26C193.58 222.74 193.613 223.057 193.54 223.21C193.399 223.473 193.181 223.695 192.916 223.846C192.652 223.996 192.354 224.066 192.067 224.046C191.78 224.026 191.518 223.917 191.319 223.734C191.12 223.552 190.994 223.305 190.96 223.03L190.73 221L190.55 219.78C190.497 219.42 190.4 219.407 190.26 219.74L189.7 221.04C187.67 226.57 197.88 227.01 201.24 226.6C201.587 226.56 201.737 226.367 201.69 226.02C201.22 222.62 201.78 215.84 196.9 214.89L194.35 215.36C193.83 215.46 193.77 215.683 194.17 216.03C194.637 216.443 195.59 216.397 197.03 215.89ZM152.51 215.62C151.57 215.34 151.003 215.52 150.81 216.16C150.74 216.395 150.753 216.663 150.844 216.911C150.936 217.159 151.101 217.368 151.305 217.497C151.51 217.626 151.739 217.664 151.948 217.606C152.156 217.547 152.328 217.395 152.43 217.18L152.82 216.31C152.98 215.963 152.877 215.733 152.51 215.62ZM140.28 216.16C139.633 215.68 138.937 215.597 138.19 215.91C138.113 215.943 138.047 215.999 138.002 216.069C137.957 216.14 137.934 216.223 137.936 216.307C137.938 216.391 137.965 216.472 138.014 216.54C138.063 216.609 138.131 216.661 138.21 216.69L139.99 217.31C140.155 217.371 140.337 217.366 140.498 217.297C140.66 217.229 140.789 217.101 140.86 216.94C141.087 216.433 141.023 216.207 140.67 216.26C140.53 216.28 140.4 216.247 140.28 216.16ZM170.59 216.26C170.43 216.153 170.257 216.087 170.07 216.06C169.703 215.993 169.51 216.147 169.49 216.52C169.33 219.07 172.89 218.82 174 216.98C174.167 216.7 174.127 216.453 173.88 216.24L173.35 215.78C173.288 215.728 173.217 215.688 173.14 215.664C173.063 215.64 172.982 215.632 172.902 215.641C172.823 215.649 172.746 215.674 172.677 215.713C172.607 215.753 172.547 215.806 172.5 215.87C172.147 216.35 171.68 216.557 171.1 216.49C170.973 216.477 170.803 216.4 170.59 216.26ZM202.72 217.45L204.74 216.63C204.799 216.602 204.848 216.555 204.878 216.497C204.909 216.438 204.919 216.372 204.907 216.307C204.896 216.242 204.864 216.183 204.815 216.138C204.767 216.094 204.705 216.066 204.64 216.06L203.01 215.99C202.617 215.977 202.32 216.137 202.12 216.47C201.853 216.91 201.98 217.237 202.5 217.45C202.535 217.465 202.572 217.473 202.61 217.473C202.648 217.473 202.685 217.465 202.72 217.45ZM182.06 219.55C181.247 220.303 180.167 220.037 178.82 218.75C178.759 218.688 178.677 218.652 178.59 218.647C178.503 218.643 178.418 218.671 178.351 218.726C178.283 218.78 178.239 218.858 178.226 218.944C178.213 219.03 178.232 219.118 178.28 219.19C179.22 220.643 180.45 221.743 181.97 222.49C182.37 222.683 182.653 222.573 182.82 222.16C183.12 221.413 183.067 220.53 182.66 219.51L182.73 217.7C182.75 217.313 182.577 217.187 182.21 217.32C182.057 217.373 181.937 217.483 181.85 217.65C181.77 217.823 181.773 218.077 181.86 218.41C181.953 218.757 182.02 219.137 182.06 219.55ZM140.445 219.806C140.487 219.712 140.511 219.61 140.514 219.506C140.518 219.402 140.5 219.299 140.464 219.202C140.427 219.105 140.372 219.016 140.301 218.941C140.229 218.865 140.144 218.804 140.05 218.761L138.464 218.045C138.273 217.959 138.056 217.952 137.86 218.026C137.664 218.1 137.505 218.249 137.419 218.44L137.295 218.714C137.253 218.808 137.229 218.91 137.226 219.014C137.222 219.118 137.24 219.221 137.276 219.318C137.313 219.415 137.368 219.504 137.439 219.579C137.511 219.655 137.596 219.716 137.69 219.759L139.276 220.475C139.467 220.561 139.684 220.568 139.88 220.494C140.076 220.42 140.235 220.271 140.321 220.08L140.445 219.806ZM206.047 218.99C205.998 218.781 205.778 218.62 205.436 218.543C205.093 218.466 204.655 218.48 204.218 218.581C203.781 218.682 203.381 218.861 203.107 219.081C202.832 219.3 202.705 219.541 202.753 219.75C202.802 219.959 203.022 220.12 203.364 220.197C203.707 220.274 204.145 220.26 204.582 220.159C205.019 220.058 205.419 219.879 205.693 219.659C205.968 219.44 206.095 219.199 206.047 218.99ZM139.33 222.317C139.383 222.103 139.264 221.856 138.998 221.628C138.732 221.401 138.342 221.213 137.912 221.105C137.699 221.052 137.484 221.019 137.277 221.011C137.07 221.002 136.877 221.016 136.708 221.053C136.538 221.09 136.397 221.149 136.291 221.226C136.185 221.303 136.117 221.397 136.09 221.503C136.037 221.717 136.156 221.964 136.422 222.192C136.688 222.419 137.078 222.607 137.508 222.715C137.721 222.768 137.936 222.801 138.143 222.809C138.35 222.818 138.543 222.804 138.712 222.767C138.882 222.73 139.023 222.671 139.129 222.594C139.235 222.517 139.303 222.423 139.33 222.317ZM204.53 221.57C204.063 221.563 203.65 221.713 203.29 222.02C203.198 222.095 203.134 222.198 203.108 222.314C203.082 222.429 203.096 222.55 203.146 222.657C203.197 222.764 203.282 222.851 203.388 222.904C203.493 222.957 203.614 222.973 203.73 222.95L205.27 222.66L206.48 222.47C206.618 222.443 206.742 222.369 206.83 222.261C206.919 222.152 206.967 222.016 206.966 221.876C206.965 221.736 206.915 221.6 206.824 221.493C206.733 221.386 206.608 221.314 206.47 221.29C205.717 221.183 205.07 221.277 204.53 221.57ZM170.73 225.98L172.05 226C172.105 226.001 172.16 225.992 172.212 225.972C172.263 225.952 172.31 225.922 172.35 225.884C172.39 225.846 172.422 225.8 172.444 225.75C172.467 225.7 172.479 225.645 172.48 225.59V225.47C172.487 225.115 172.47 224.762 172.431 224.433C172.391 224.104 172.33 223.805 172.25 223.552C172.17 223.299 172.073 223.098 171.965 222.961C171.857 222.823 171.74 222.751 171.62 222.75H171.28C171.039 222.747 170.803 223.027 170.623 223.529C170.443 224.032 170.334 224.715 170.32 225.43V225.55C170.319 225.605 170.328 225.66 170.348 225.712C170.368 225.763 170.398 225.81 170.436 225.85C170.474 225.89 170.52 225.922 170.57 225.944C170.62 225.967 170.675 225.979 170.73 225.98ZM140.148 224.371C140.123 224.136 139.87 223.935 139.444 223.812C139.018 223.689 138.455 223.654 137.877 223.715C137.299 223.776 136.755 223.927 136.364 224.136C135.973 224.345 135.767 224.594 135.792 224.829C135.817 225.064 136.07 225.265 136.496 225.388C136.922 225.511 137.485 225.546 138.063 225.485C138.641 225.424 139.185 225.273 139.576 225.064C139.967 224.855 140.173 224.606 140.148 224.371ZM203.12 225.19L206.78 225.58C206.805 225.583 206.83 225.581 206.854 225.573C206.878 225.566 206.901 225.555 206.92 225.539C206.94 225.523 206.956 225.503 206.968 225.481C206.98 225.459 206.988 225.435 206.99 225.41L207 225.31C207.038 224.96 206.88 224.604 206.561 224.319C206.243 224.034 205.789 223.844 205.3 223.79L204.96 223.76C204.471 223.708 203.987 223.796 203.614 224.006C203.241 224.216 203.009 224.53 202.97 224.88L202.96 224.98C202.954 225.029 202.968 225.078 202.998 225.117C203.027 225.157 203.071 225.183 203.12 225.19ZM188.261 229.376C188.478 229.415 188.726 229.228 188.95 228.857C189.174 228.485 189.357 227.96 189.457 227.396C189.558 226.832 189.568 226.275 189.486 225.849C189.403 225.423 189.236 225.162 189.019 225.124C188.802 225.085 188.554 225.272 188.33 225.643C188.106 226.015 187.923 226.54 187.823 227.104C187.722 227.668 187.712 228.225 187.794 228.651C187.877 229.077 188.044 229.338 188.261 229.376ZM154.98 225.897C154.913 225.705 154.772 225.547 154.587 225.458C154.403 225.37 154.192 225.358 153.999 225.425L153.754 225.511C153.561 225.579 153.403 225.72 153.314 225.904C153.226 226.088 153.214 226.3 153.281 226.492L154.28 229.343C154.347 229.535 154.489 229.693 154.673 229.782C154.857 229.87 155.068 229.882 155.261 229.815L155.506 229.729C155.699 229.661 155.857 229.52 155.946 229.336C156.034 229.152 156.046 228.94 155.979 228.748L154.98 225.897ZM174.43 227.07L176.5 229.21C176.733 229.45 176.773 229.72 176.62 230.02C176.24 230.807 175.623 231.133 174.77 231C174.599 230.971 174.44 230.892 174.314 230.772C174.187 230.653 174.099 230.499 174.06 230.33C173.6 228.21 172.887 227.423 171.92 227.97L170.79 228.75L170.01 228.98C169.69 229.073 169.463 229.27 169.33 229.57C169.07 230.17 168.65 230.597 168.07 230.85C167.829 230.952 167.561 230.97 167.308 230.902C167.056 230.833 166.834 230.682 166.677 230.473C166.52 230.263 166.439 230.007 166.445 229.746C166.451 229.484 166.544 229.232 166.71 229.03L168.79 226.53C168.845 226.461 168.874 226.376 168.873 226.288C168.872 226.2 168.84 226.116 168.784 226.048C168.727 225.981 168.649 225.936 168.563 225.92C168.476 225.903 168.387 225.918 168.31 225.96C167.103 226.64 166.16 227.57 165.48 228.75L164.51 229.33C163.763 228.937 163.257 228.89 162.99 229.19L160.36 230.33C160.252 230.378 160.159 230.453 160.089 230.547C160.019 230.642 159.975 230.753 159.96 230.87C159.946 230.987 159.963 231.106 160.008 231.214C160.054 231.323 160.127 231.418 160.22 231.49C161.193 232.223 162.17 231.757 163.15 230.09C163.363 230.277 163.64 230.32 163.98 230.22C164.72 230.133 165.11 230.343 165.15 230.85C166.677 233.69 168.673 236.283 171.14 238.63C171.347 238.83 171.56 238.837 171.78 238.65C175.59 235.45 180.86 230.02 175.19 226.21C175.103 225.883 174.853 225.637 174.44 225.47C174.347 225.429 174.244 225.42 174.145 225.443C174.046 225.466 173.958 225.521 173.892 225.598C173.827 225.676 173.789 225.773 173.783 225.874C173.777 225.975 173.804 226.075 173.86 226.16L174.43 227.07ZM206.27 228.72L206.76 227.86C206.776 227.832 206.786 227.802 206.791 227.77C206.795 227.739 206.792 227.707 206.784 227.676C206.776 227.645 206.761 227.617 206.742 227.592C206.722 227.567 206.698 227.546 206.67 227.53L206.58 227.47C206.179 227.24 205.777 227.023 205.396 226.83C205.015 226.637 204.663 226.472 204.36 226.344C204.057 226.217 203.81 226.13 203.631 226.088C203.453 226.046 203.347 226.05 203.32 226.1L203.01 226.64C202.979 226.688 203.027 226.78 203.153 226.913C203.279 227.045 203.479 227.215 203.742 227.412C204.005 227.609 204.326 227.829 204.686 228.061C205.046 228.292 205.438 228.53 205.84 228.76L205.94 228.81C205.968 228.826 205.998 228.836 206.029 228.841C206.061 228.845 206.093 228.842 206.124 228.834C206.155 228.826 206.183 228.811 206.208 228.792C206.233 228.772 206.254 228.748 206.27 228.72ZM136.01 227.7L136.64 228.98C136.672 229.043 136.728 229.091 136.795 229.114C136.863 229.136 136.936 229.131 137 229.1L137.17 229.02C137.563 228.828 137.942 228.618 138.286 228.403C138.63 228.189 138.933 227.973 139.176 227.769C139.42 227.564 139.599 227.375 139.705 227.212C139.81 227.05 139.839 226.916 139.79 226.82L139.65 226.53C139.602 226.434 139.477 226.376 139.282 226.361C139.088 226.345 138.828 226.372 138.516 226.44C138.205 226.508 137.85 226.615 137.469 226.756C137.089 226.896 136.692 227.068 136.3 227.26L136.13 227.34C136.067 227.372 136.019 227.428 135.996 227.495C135.974 227.563 135.979 227.636 136.01 227.7ZM152.402 230.33C152.592 230.261 152.708 230.015 152.725 229.645C152.742 229.276 152.659 228.814 152.494 228.36C152.412 228.136 152.313 227.92 152.202 227.725C152.09 227.531 151.969 227.362 151.845 227.227C151.721 227.092 151.596 226.995 151.478 226.94C151.36 226.886 151.251 226.876 151.158 226.91C150.968 226.979 150.852 227.225 150.835 227.594C150.818 227.964 150.901 228.426 151.066 228.88C151.148 229.105 151.247 229.32 151.358 229.515C151.47 229.709 151.591 229.878 151.715 230.013C151.839 230.148 151.964 230.245 152.082 230.3C152.2 230.354 152.309 230.364 152.402 230.33ZM190.99 227.96C190.497 228.64 190.353 229.28 190.56 229.88C190.601 229.995 190.672 230.097 190.768 230.174C190.863 230.251 190.977 230.3 191.099 230.316C191.22 230.331 191.343 230.313 191.455 230.262C191.566 230.212 191.662 230.131 191.73 230.03C191.977 229.663 192.073 229.15 192.02 228.49C192.154 227.236 192.309 227.343 192.382 227.337L193.654 227.396L193.39 230.77C193.37 230.935 193.413 231.101 193.51 231.236C193.608 231.37 193.752 231.463 193.915 231.496C194.078 231.529 194.247 231.499 194.389 231.413C194.531 231.326 194.635 231.19 194.68 231.03C195.147 229.697 195.227 228.66 194.92 227.92L192.77 227.57C192.403 227.31 192.013 227.15 191.6 227.09C191.2 227.03 190.997 227.203 190.99 227.61V227.96ZM149.12 227.83L147.92 228.11C147.814 228.134 147.722 228.199 147.664 228.291C147.605 228.383 147.586 228.494 147.61 228.6L147.65 228.77C147.837 229.559 148.104 230.295 148.392 230.817C148.681 231.338 148.968 231.602 149.19 231.55L149.52 231.47C149.631 231.446 149.722 231.346 149.789 231.173C149.856 231.001 149.898 230.761 149.911 230.466C149.924 230.172 149.908 229.829 149.865 229.457C149.822 229.085 149.752 228.692 149.66 228.3L149.62 228.13C149.607 228.077 149.584 228.028 149.552 227.984C149.52 227.94 149.479 227.904 149.433 227.876C149.386 227.848 149.335 227.829 149.281 227.821C149.227 227.814 149.173 227.817 149.12 227.83ZM145.01 228.79C144.59 228.517 144.19 228.41 143.81 228.47C143.457 228.523 143.177 228.76 142.97 229.18C142.403 230.327 142.493 231.407 143.24 232.42C143.29 232.49 143.357 232.546 143.435 232.583C143.512 232.62 143.598 232.637 143.684 232.632C143.77 232.627 143.853 232.6 143.925 232.554C143.998 232.508 144.058 232.445 144.1 232.37C144.54 231.577 144.77 230.553 144.79 229.3C145.137 229.56 145.393 229.597 145.56 229.41L145.89 231.77C145.93 232.083 146.09 232.313 146.37 232.46C146.45 232.5 146.533 232.52 146.62 232.52C147.02 232.513 147.247 232.31 147.3 231.91C147.413 230.963 147.287 230 146.92 229.02C147.1 228.58 147.04 228.337 146.74 228.29C146.107 228.197 145.53 228.363 145.01 228.79ZM196.25 229.92C195.79 230.76 195.647 231.417 195.82 231.89C195.844 231.961 195.882 232.027 195.933 232.083C195.984 232.138 196.046 232.183 196.116 232.214C196.185 232.245 196.26 232.262 196.337 232.263C196.413 232.264 196.489 232.249 196.56 232.22C197.213 231.947 197.427 231.287 197.2 230.24C197.213 230.12 197.23 230 197.25 229.88C197.29 229.64 197.01 228.352 197.25 228.319C197.71 228.252 198.447 228.063 198.7 228.49C198.54 229.657 198.777 231.89 199.33 232.15C199.401 232.183 199.48 232.199 199.558 232.194C199.637 232.189 199.713 232.165 199.78 232.123C199.846 232.081 199.901 232.023 199.94 231.955C199.978 231.886 199.999 231.809 200 231.73V229.04C200 228.687 199.827 228.5 199.48 228.48C199.047 228.46 198.787 228.557 198.7 228.77C198.147 228.523 197.67 228.45 197.27 228.55L196.83 228.49C196.45 228.437 196.26 228.603 196.26 228.99L196.25 229.92ZM203.064 231.951C203.247 231.856 203.328 231.58 203.289 231.185C203.25 230.79 203.093 230.307 202.853 229.842C202.613 229.378 202.311 228.97 202.011 228.709C201.712 228.448 201.44 228.355 201.257 228.449C201.073 228.544 200.992 228.82 201.031 229.215C201.07 229.61 201.227 230.093 201.467 230.558C201.707 231.022 202.009 231.43 202.309 231.691C202.608 231.952 202.88 232.045 203.064 231.951ZM140.308 231.87C140.417 231.919 140.541 231.931 140.673 231.907C140.805 231.882 140.942 231.821 141.076 231.727C141.21 231.633 141.339 231.508 141.455 231.359C141.571 231.21 141.672 231.04 141.752 230.859C141.914 230.493 141.982 230.103 141.941 229.775C141.9 229.446 141.752 229.207 141.532 229.109C141.423 229.061 141.299 229.049 141.167 229.073C141.035 229.098 140.898 229.159 140.764 229.253C140.63 229.347 140.502 229.472 140.385 229.621C140.269 229.77 140.168 229.94 140.088 230.121C139.926 230.487 139.858 230.877 139.899 231.205C139.94 231.533 140.088 231.773 140.308 231.87ZM179.77 230.43L182.34 231.95C182.793 232.223 183.013 232.097 183 231.57C182.973 230.497 181.96 229.73 179.96 229.27C179.993 228.97 179.717 228.897 179.13 229.05C179.055 229.069 178.984 229.104 178.923 229.152C178.862 229.2 178.812 229.261 178.776 229.33C178.74 229.399 178.719 229.474 178.715 229.552C178.71 229.63 178.722 229.707 178.75 229.78C178.89 230.147 179.23 230.363 179.77 230.43ZM138.675 230.052C138.556 229.876 138.358 229.764 138.125 229.741C137.892 229.718 137.642 229.785 137.432 229.928C137.221 230.07 137.066 230.277 137.001 230.502C136.936 230.727 136.966 230.953 137.085 231.128C137.204 231.304 137.402 231.416 137.635 231.439C137.868 231.462 138.118 231.395 138.329 231.252C138.539 231.11 138.694 230.903 138.759 230.678C138.824 230.453 138.794 230.227 138.675 230.052ZM205.712 231.365C205.802 231.317 205.879 231.25 205.941 231.166C206.002 231.082 206.046 230.984 206.07 230.876C206.093 230.769 206.097 230.655 206.08 230.54C206.063 230.426 206.025 230.313 205.97 230.208C205.914 230.104 205.842 230.01 205.756 229.932C205.671 229.854 205.574 229.793 205.472 229.752C205.37 229.712 205.264 229.694 205.16 229.697C205.056 229.701 204.957 229.728 204.867 229.775C204.778 229.823 204.701 229.89 204.639 229.974C204.578 230.058 204.534 230.156 204.51 230.264C204.487 230.371 204.483 230.485 204.5 230.6C204.517 230.714 204.555 230.827 204.61 230.932C204.666 231.036 204.738 231.13 204.824 231.208C204.909 231.286 205.006 231.347 205.108 231.388C205.21 231.428 205.316 231.446 205.42 231.443C205.524 231.439 205.623 231.412 205.712 231.365ZM182.012 234.316C182.066 234.226 182.076 234.111 182.041 233.977C182.006 233.843 181.928 233.693 181.81 233.536C181.692 233.379 181.537 233.218 181.353 233.061C181.17 232.904 180.962 232.756 180.741 232.624C180.52 232.491 180.291 232.378 180.066 232.291C179.841 232.203 179.626 232.143 179.431 232.113C179.237 232.083 179.068 232.085 178.933 232.117C178.799 232.15 178.702 232.213 178.648 232.303C178.594 232.394 178.584 232.509 178.619 232.643C178.654 232.777 178.732 232.927 178.85 233.084C178.968 233.241 179.123 233.402 179.307 233.559C179.49 233.716 179.698 233.864 179.919 233.997C180.14 234.129 180.369 234.242 180.594 234.329C180.819 234.417 181.034 234.477 181.229 234.507C181.423 234.537 181.592 234.535 181.727 234.503C181.861 234.47 181.958 234.407 182.012 234.316ZM161.73 233.85C161.703 234.137 161.833 234.27 162.12 234.25C162.813 234.197 163.46 233.953 164.06 233.52C164.266 233.389 164.393 233.196 164.413 232.984C164.434 232.773 164.346 232.559 164.17 232.391C163.994 232.222 163.743 232.113 163.473 232.086C163.203 232.06 162.936 232.119 162.73 232.25C162.137 232.583 161.803 233.117 161.73 233.85ZM180.314 237.065C180.384 236.967 180.413 236.84 180.4 236.693C180.386 236.545 180.329 236.379 180.233 236.205C180.137 236.03 180.003 235.85 179.839 235.675C179.676 235.5 179.485 235.333 179.278 235.184C179.072 235.035 178.853 234.906 178.635 234.806C178.417 234.706 178.204 234.636 178.008 234.6C177.812 234.564 177.637 234.562 177.492 234.596C177.348 234.63 177.237 234.697 177.167 234.795C177.096 234.893 177.067 235.02 177.08 235.167C177.094 235.315 177.151 235.481 177.247 235.655C177.343 235.83 177.477 236.01 177.641 236.185C177.804 236.36 177.995 236.527 178.202 236.676C178.408 236.825 178.627 236.954 178.845 237.054C179.063 237.154 179.276 237.224 179.472 237.26C179.668 237.296 179.843 237.298 179.988 237.264C180.132 237.23 180.243 237.163 180.314 237.065ZM165.88 235.027C165.822 234.938 165.72 234.878 165.582 234.851C165.444 234.825 165.271 234.831 165.074 234.871C164.876 234.911 164.658 234.982 164.432 235.082C164.206 235.182 163.976 235.308 163.755 235.453C163.31 235.746 162.929 236.098 162.698 236.432C162.466 236.765 162.402 237.054 162.52 237.234C162.578 237.322 162.68 237.382 162.818 237.409C162.956 237.435 163.129 237.429 163.326 237.389C163.524 237.349 163.742 237.278 163.968 237.178C164.194 237.078 164.424 236.952 164.645 236.807C165.09 236.514 165.471 236.162 165.702 235.828C165.934 235.495 165.998 235.206 165.88 235.027ZM167.73 237.73C168.243 238.85 167.83 239.61 166.49 240.01C166.363 240.049 166.248 240.12 166.157 240.216C166.065 240.312 166 240.431 165.968 240.56C165.936 240.688 165.938 240.823 165.973 240.951C166.008 241.079 166.076 241.196 166.17 241.29L166.44 241.56C166.495 241.616 166.561 241.659 166.634 241.686C166.708 241.714 166.786 241.725 166.864 241.719C166.942 241.714 167.018 241.691 167.086 241.653C167.154 241.615 167.214 241.563 167.26 241.5L168.76 239.46C168.96 239.18 168.96 238.9 168.76 238.62C168.493 238.26 168.15 237.963 167.73 237.73L167.51 237.39C167.323 237.097 167.073 237.02 166.76 237.16L164.35 238.23C163.843 238.457 163.743 238.803 164.05 239.27L164.46 239.88C164.733 240.3 164.98 240.283 165.2 239.83C165.767 238.697 166.61 237.997 167.73 237.73ZM176.77 238.47C177.143 239.11 177.603 239.563 178.15 239.83C178.26 239.885 178.384 239.905 178.505 239.888C178.626 239.871 178.74 239.819 178.832 239.736C178.924 239.654 178.99 239.546 179.022 239.425C179.054 239.305 179.049 239.178 179.01 239.06C178.81 238.493 178.307 238.043 177.5 237.71L176.79 237.23C176.463 237.017 176.153 237.04 175.86 237.3L174.17 238.79C173.923 239.01 173.913 239.24 174.14 239.48L176.42 241.87C176.509 241.965 176.632 242.024 176.763 242.032C176.894 242.041 177.023 242 177.124 241.918C177.225 241.835 177.289 241.717 177.303 241.589C177.317 241.461 177.28 241.332 177.2 241.23C176.567 240.337 175.93 239.433 175.29 238.52C175.253 238.464 175.234 238.398 175.237 238.332C175.239 238.265 175.262 238.2 175.303 238.147C175.344 238.094 175.4 238.056 175.464 238.036C175.237 237.5 175.57 237.478 175.633 237.5L176.77 238.47ZM172.74 241.75C172.973 242.623 173.407 243.353 174.04 243.94C174.085 243.981 174.138 244.012 174.196 244.03C174.255 244.049 174.316 244.054 174.376 244.045C174.437 244.036 174.494 244.014 174.545 243.981C174.596 243.947 174.639 243.902 174.67 243.85L174.93 243.42C175.057 243.207 175.047 243.003 174.9 242.81L173.72 241.26C173.72 240.693 173.62 240.353 173.42 240.24C173.286 240.163 173.133 240.129 172.979 240.14C172.826 240.152 172.679 240.21 172.558 240.305C172.438 240.401 172.349 240.531 172.303 240.678C172.257 240.825 172.256 240.982 172.3 241.13C172.373 241.383 172.52 241.59 172.74 241.75ZM169.26 241.23C168.86 241.463 168.533 241.777 168.28 242.17C167.98 242.643 167.967 243.033 168.24 243.34C168.52 243.66 169.01 243.793 169.71 243.74C169.825 243.731 169.937 243.697 170.038 243.642C170.14 243.587 170.228 243.512 170.299 243.42C170.37 243.329 170.42 243.224 170.448 243.112C170.476 243 170.48 242.884 170.46 242.77L170.29 241.77C170.51 241.45 170.567 241.05 170.46 240.57C170.38 240.197 170.177 240.11 169.85 240.31C169.597 240.463 169.4 240.77 169.26 241.23ZM171.06 244C170.827 245.027 171.047 245.47 171.72 245.33C172.36 245.203 172.43 244.68 171.93 243.76C171.85 243.247 171.63 242.907 171.27 242.74C171.219 242.716 171.163 242.704 171.106 242.706C171.049 242.707 170.994 242.721 170.944 242.747C170.893 242.773 170.85 242.811 170.816 242.856C170.783 242.902 170.76 242.954 170.75 243.01C170.683 243.397 170.787 243.727 171.06 244Z" fill="#9B8436" fill-opacity="0.996"/>
<path d="M152.47 204.24C152.563 203.813 152.733 203.43 152.98 203.09C153.88 202.577 154.473 202.457 154.76 202.73C154.926 202.887 155.049 203.083 155.12 203.301C155.191 203.518 155.206 203.749 155.164 203.974C155.122 204.199 155.025 204.409 154.881 204.587C154.737 204.764 154.551 204.903 154.34 204.99C153.407 205.383 152.783 205.133 152.47 204.24Z" fill="#9B8436" fill-opacity="0.996"/>
<path d="M179.24 212.97C179.567 213.143 179.823 213.487 180.01 214C180.123 214.72 179.95 215.29 179.49 215.71L179.01 216.05C178.477 215.97 178.073 215.7 177.8 215.24L177.81 213.27C178.27 212.717 178.747 212.617 179.24 212.97Z" fill="#9B8436" fill-opacity="0.996"/>
<path d="M162.88 214.19C162.853 214.134 162.837 214.074 162.833 214.012C162.83 213.95 162.838 213.888 162.859 213.829C162.879 213.771 162.911 213.717 162.952 213.67C162.994 213.624 163.044 213.587 163.1 213.56L163.27 213.48C163.509 213.364 163.759 213.277 164.006 213.224C164.253 213.171 164.492 213.153 164.709 213.17C164.927 213.188 165.118 213.241 165.273 213.327C165.427 213.413 165.542 213.529 165.61 213.67L165.72 213.9C165.857 214.184 165.797 214.549 165.554 214.915C165.31 215.28 164.902 215.617 164.42 215.85L164.25 215.94C164.194 215.967 164.134 215.983 164.072 215.987C164.01 215.99 163.948 215.982 163.889 215.961C163.831 215.941 163.777 215.909 163.73 215.868C163.684 215.826 163.647 215.776 163.62 215.72L162.88 214.19Z" fill="#9B8436" fill-opacity="0.996"/>
<path d="M152.81 243.44C157.35 247.55 155.84 253.61 149.73 254.08C149.626 254.083 149.525 254.048 149.445 253.982C149.365 253.916 149.312 253.823 149.295 253.721C149.278 253.619 149.298 253.514 149.353 253.425C149.407 253.337 149.491 253.271 149.59 253.24C156.15 251.53 154.45 246.01 149.68 243.76C141.7 240.01 129.81 246.15 121.11 245.17C111.69 244.1 101.76 235.9 104.99 225.25C105.043 225.083 105.123 224.963 105.23 224.89C105.443 224.757 105.527 224.813 105.48 225.06C104.867 228.413 104.963 230.8 105.77 232.22C113.24 245.33 124.7 243.08 137.26 240.81C142.35 239.89 148.87 239.86 152.81 243.44Z" fill="#CAA63F"/>
<path d="M234.19 237.19C237.463 234.123 238.78 230.163 238.14 225.31C238.132 225.249 238.142 225.187 238.17 225.133C238.198 225.078 238.242 225.033 238.296 225.003C238.351 224.973 238.413 224.959 238.476 224.964C238.539 224.969 238.6 224.992 238.65 225.03C238.957 225.27 239.12 225.653 239.14 226.18C239.24 228.67 239.66 231.55 238.53 233.81C226.49 257.85 197.99 233.83 190.43 246.62C188.71 249.53 190.03 252.42 193.36 253.19C194 253.343 194 253.497 193.36 253.65C191.753 254.043 190.453 253.563 189.46 252.21C186.57 248.28 188.32 244.5 192.28 242.37C205.95 235.02 220.65 249.86 234.19 237.19Z" fill="#CAA63F"/>
<path d="M172.6 227.5C172 229 172.833 230.927 172.6 231.64C172.517 231.895 172.343 232.111 172.11 232.244C171.877 232.378 171.603 232.42 171.341 232.363C171.079 232.305 170.848 232.152 170.692 231.934C170.537 231.715 170.468 231.446 170.5 231.18L170.79 228.75L172.6 227.5Z" fill="#9A8436"/>
<path d="M242.751 243.608C242.886 244.194 243.361 244.586 243.813 244.482C244.266 244.379 244.523 243.819 244.389 243.232C244.254 242.646 243.779 242.254 243.327 242.358C242.874 242.461 242.617 243.021 242.751 243.608Z" fill="#9B8436" fill-opacity="0.996"/>
<path d="M99.3348 244.13C99.7273 244.564 100.348 244.643 100.721 244.306C101.094 243.97 101.078 243.344 100.685 242.91C100.293 242.476 99.6723 242.397 99.2994 242.734C98.9264 243.07 98.9423 243.696 99.3348 244.13Z" fill="#9B8436" fill-opacity="0.996"/>
<path d="M167.81 251.44C172.33 254.25 171.09 261.79 165.29 261.2C164.763 261.14 164.423 260.923 164.27 260.55C164.242 260.484 164.232 260.411 164.242 260.339C164.252 260.268 164.281 260.2 164.326 260.144C164.371 260.087 164.43 260.044 164.498 260.019C164.566 259.994 164.639 259.987 164.71 260L166.01 260.26C166.383 260.34 166.723 260.267 167.03 260.04C169.283 258.44 169.627 256.567 168.06 254.42C163.49 248.14 153.54 260.67 149.77 262.75C143.71 266.08 136.2 263.46 135.36 256.28C134.82 251.73 138.67 246.26 143.81 246.58C144.417 246.613 144.447 246.767 143.9 247.04C142.11 247.93 140.43 248.62 139.26 250.25C135.69 255.17 138.27 262 144.56 261.52C151.66 260.97 159.56 246.3 167.81 251.44Z" fill="#CAA63F"/>
<path d="M201.38 261.27C209.38 258.66 205.93 248.87 199.22 246.96C199.151 246.943 199.09 246.9 199.051 246.84C199.013 246.781 198.998 246.708 199.011 246.638C199.024 246.568 199.063 246.505 199.12 246.463C199.178 246.42 199.249 246.401 199.32 246.41C210.99 247.32 211.27 263.74 199.74 264.28C194.12 264.55 189.57 259.79 185.05 255.45C175.69 246.46 170.6 261.46 179 260.11C179.373 260.05 179.483 260.193 179.33 260.54C179.27 260.667 179.187 260.783 179.08 260.89C178.993 260.983 178.87 261.043 178.71 261.07C170.9 262.38 171.25 252.03 177.94 250.43C186.57 248.38 193.19 263.94 201.38 261.27Z" fill="#CAA63F"/>
<path d="M101.777 248.949C101.851 249.546 102.302 249.982 102.785 249.922C103.267 249.862 103.598 249.329 103.523 248.731C103.449 248.134 102.998 247.698 102.515 247.758C102.033 247.818 101.702 248.351 101.777 248.949Z" fill="#9B8436" fill-opacity="0.996"/>
<path d="M240.218 248.234C239.844 248.618 239.811 249.192 240.144 249.515C240.476 249.839 241.049 249.79 241.422 249.406C241.796 249.022 241.829 248.448 241.496 248.125C241.164 247.801 240.591 247.85 240.218 248.234Z" fill="#9B8436" fill-opacity="0.996"/>
<path d="M106.857 253.683C107.437 253.798 107.984 253.5 108.08 253.018C108.175 252.536 107.783 252.052 107.203 251.937C106.623 251.822 106.076 252.12 105.98 252.602C105.885 253.084 106.277 253.568 106.857 253.683Z" fill="#9B8436" fill-opacity="0.996"/>
<path d="M236.5 253.8C237.041 253.8 237.48 253.361 237.48 252.82C237.48 252.279 237.041 251.84 236.5 251.84C235.959 251.84 235.52 252.279 235.52 252.82C235.52 253.361 235.959 253.8 236.5 253.8Z" fill="#9B8436" fill-opacity="0.996"/>
<path d="M112.64 256.34C113.231 256.34 113.71 255.861 113.71 255.27C113.71 254.679 113.231 254.2 112.64 254.2C112.049 254.2 111.57 254.679 111.57 255.27C111.57 255.861 112.049 256.34 112.64 256.34Z" fill="#9B8436" fill-opacity="0.996"/>
<path d="M230.96 256.25C231.54 256.25 232.01 255.78 232.01 255.2C232.01 254.62 231.54 254.15 230.96 254.15C230.38 254.15 229.91 254.62 229.91 255.2C229.91 255.78 230.38 256.25 230.96 256.25Z" fill="#9B8436" fill-opacity="0.996"/>
<path d="M119.82 264.5C119.721 264.455 119.641 264.38 119.591 264.284C119.541 264.189 119.525 264.079 119.544 263.972C119.564 263.865 119.618 263.767 119.698 263.693C119.779 263.618 119.881 263.571 119.99 263.56C123.11 263.28 126.077 262.453 128.89 261.08C129.021 261.017 129.168 260.995 129.311 261.017C129.455 261.038 129.589 261.101 129.696 261.199C129.803 261.296 129.879 261.424 129.914 261.565C129.948 261.706 129.94 261.854 129.89 261.99C128.543 265.61 129.32 268.527 132.22 270.74C132.332 270.821 132.413 270.939 132.449 271.073C132.484 271.207 132.472 271.35 132.414 271.476C132.356 271.602 132.256 271.704 132.132 271.765C132.007 271.826 131.865 271.842 131.73 271.81C128.503 271.137 127.017 269.113 127.27 265.74C127.281 265.582 127.253 265.424 127.187 265.28C127.122 265.136 127.021 265.011 126.895 264.916C126.769 264.82 126.621 264.758 126.465 264.734C126.308 264.711 126.149 264.726 126 264.78C123.887 265.533 121.827 265.44 119.82 264.5Z" fill="#CAA63F"/>
<path d="M216.37 265.52C216.557 268.607 215.257 270.673 212.47 271.72C212.331 271.77 212.18 271.771 212.04 271.723C211.901 271.675 211.782 271.581 211.703 271.457C211.624 271.332 211.589 271.185 211.605 271.038C211.621 270.891 211.686 270.755 211.79 270.65C214.27 268.277 214.91 265.383 213.71 261.97C213.663 261.836 213.657 261.691 213.691 261.554C213.725 261.416 213.799 261.291 213.903 261.195C214.007 261.098 214.136 261.034 214.276 261.01C214.416 260.986 214.56 261.004 214.69 261.06C216.49 261.853 218.37 262.517 220.33 263.05C221.24 263.3 222.72 263.02 223.69 263.59C223.766 263.634 223.829 263.698 223.872 263.774C223.916 263.851 223.937 263.938 223.935 264.026C223.933 264.114 223.907 264.2 223.861 264.274C223.814 264.349 223.748 264.41 223.67 264.45C221.677 265.503 219.6 265.6 217.44 264.74C217.317 264.69 217.184 264.673 217.052 264.689C216.921 264.705 216.796 264.755 216.688 264.833C216.581 264.911 216.496 265.015 216.44 265.135C216.385 265.255 216.36 265.388 216.37 265.52Z" fill="#CAA63F"/>
<path d="M138.92 276.15C138.07 275.48 136.18 274.26 135.63 273.09C135.556 272.927 135.539 272.743 135.583 272.569C135.627 272.394 135.729 272.241 135.872 272.132C136.016 272.024 136.192 271.968 136.371 271.973C136.551 271.978 136.723 272.044 136.86 272.16C145.473 279.84 155.193 284.363 166.02 285.73C182.56 287.82 194.75 281.94 206.83 272.25C206.95 272.147 207.102 272.091 207.26 272.091C207.418 272.091 207.57 272.147 207.69 272.25C207.81 272.353 207.889 272.495 207.912 272.651C207.936 272.807 207.904 272.966 207.82 273.1C207.467 273.72 206.923 274.337 206.19 274.95C186.8 291.14 159.04 291.91 138.92 276.15Z" fill="#9B8436" fill-opacity="0.996"/>
<path d="M170.7 273.17C170.7 273.877 171.058 274.45 171.5 274.45C171.942 274.45 172.3 273.877 172.3 273.17C172.3 272.463 171.942 271.89 171.5 271.89C171.058 271.89 170.7 272.463 170.7 273.17Z" fill="#9B8436" fill-opacity="0.996"/>
<path d="M164.8 274.28C165.396 274.28 165.88 273.796 165.88 273.2C165.88 272.604 165.396 272.12 164.8 272.12C164.204 272.12 163.72 272.604 163.72 273.2C163.72 273.796 164.204 274.28 164.8 274.28Z" fill="#9B8436" fill-opacity="0.996"/>
<path d="M177.54 273.976C178.113 274.223 178.739 274.049 178.938 273.587C179.137 273.125 178.833 272.551 178.26 272.304C177.687 272.057 177.061 272.231 176.862 272.693C176.663 273.155 176.967 273.729 177.54 273.976Z" fill="#9B8436" fill-opacity="0.996"/>
</svg>
