<svg width="269" height="238" viewBox="0 0 269 238" fill="none" xmlns="http://www.w3.org/2000/svg">
<path d="M184.9 146.98C184.54 147.047 184.187 147 183.84 146.84" stroke="#CAA63F" stroke-width="2"/>
<path d="M179.17 147.92L176.19 146.9" stroke="#CAA63F" stroke-width="2"/>
<path d="M163.13 149.55L161.98 149.84" stroke="#CAA63F" stroke-width="2"/>
<path d="M157.51 148.02L156.04 147.19" stroke="#CAA63F" stroke-width="2"/>
<path d="M153.73 147.58C153.01 147.273 152.417 147.173 151.95 147.28C151.423 147.4 151.407 147.57 151.9 147.79L153.47 148.48" stroke="#CAA63F" stroke-width="2"/>
<path d="M154.49 149.26L152.94 150.99" stroke="#CAA63F" stroke-width="2"/>
<path d="M147.04 148.49C146.553 148.65 146.197 148.887 145.97 149.2" stroke="#CAA63F" stroke-width="2"/>
<path d="M143 149.33L142.51 148.25" stroke="#CAA63F" stroke-width="2"/>
<path d="M136.38 149.19C136.107 149.683 135.68 149.867 135.1 149.74" stroke="#CAA63F" stroke-width="2"/>
<path d="M134.8 149.64L132.83 149.05" stroke="#CAA63F" stroke-width="2"/>
<path d="M132.18 148.34C131.82 148.227 131.5 147.957 131.22 147.53" stroke="#CAA63F" stroke-width="2"/>
<path d="M126.01 148C125.957 148.193 126.03 148.373 126.23 148.54C126.377 148.667 126.373 148.787 126.22 148.9C126.147 148.96 126.067 149.01 125.98 149.05" stroke="#CAA63F" stroke-width="2"/>
<path d="M122.29 149.54L122.16 148.59" stroke="#CAA63F" stroke-width="2"/>
<path d="M116.57 150.55L115.21 150.49C114.877 150.47 114.72 150.293 114.74 149.96C114.753 149.713 114.837 149.5 114.99 149.32" stroke="#CAA63F" stroke-width="2"/>
<path d="M113.23 147.01L111.29 147.75" stroke="#CAA63F" stroke-width="2"/>
<path d="M107.05 149.84C106.31 149.853 105.903 149.633 105.83 149.18" stroke="#CAA63F" stroke-width="2"/>
<path d="M93.79 146.7L90.01 147.98" stroke="#CAA63F" stroke-width="2"/>
<path d="M85.22 147.01L84.48 146.96" stroke="#CAA63F" stroke-width="2"/>
<path d="M134.92 177.97L133.79 178.75" stroke="#CAA63F" stroke-width="2"/>
<path d="M128.48 178.75L127.51 179.33" stroke="#CAA63F" stroke-width="2"/>
<path d="M126.98 180.22C127.72 180.133 128.11 180.343 128.15 180.85" stroke="#CAA63F" stroke-width="2"/>
<path d="M83.86 32.86C104.13 -9.46 166.13 -11.38 185.47 32.64C185.63 33 185.53 33.2667 185.17 33.44C184.917 33.56 184.65 33.5567 184.37 33.43C184.157 33.3367 183.977 33.1433 183.83 32.85C163.03 -8.61 106.76 -7.98 85.7 32.71C85.4133 33.27 85.14 33.6267 84.88 33.78C84.748 33.8577 84.5946 33.8913 84.4422 33.8759C84.2898 33.8604 84.1463 33.7968 84.0325 33.6942C83.9187 33.5916 83.8407 33.4554 83.8097 33.3053C83.7786 33.1553 83.7963 32.9993 83.86 32.86Z" fill="#CAA63F"/>
<path d="M149.99 69.71C150.497 69.8233 150.93 69.82 151.29 69.7C151.61 69.6 151.637 69.4467 151.37 69.24L150.66 68.68C141.83 60.84 150.04 51.52 158.97 50.09C178.13 47.03 191.06 67.77 208.53 63.44C226.03 59.11 216.95 35.72 201.54 41.64C191.14 45.64 197.41 58.3 205.56 54.05C206.88 53.36 207.18 52.04 206.27 50.88C206.185 50.7715 206.142 50.6363 206.15 50.4993C206.157 50.3622 206.215 50.2326 206.313 50.1341C206.41 50.0355 206.54 49.9748 206.679 49.9631C206.818 49.9513 206.957 49.9893 207.07 50.07C209.02 51.5 209.03 54.23 207.49 56.05C203.13 61.19 194.29 58.36 192.9 51.97C191.35 44.87 198.78 39.55 205 39.42C215.09 39.2 219.2 45.09 220.65 54.3C220.662 54.3848 220.693 54.4659 220.739 54.538C220.785 54.6101 220.847 54.6714 220.919 54.7178C220.991 54.7642 221.072 54.7947 221.156 54.8071C221.241 54.8196 221.328 54.8137 221.41 54.79C225.85 53.56 232.05 50.4 234.81 56.19C235.603 57.8567 235.147 59.0833 233.44 59.87C233.073 60.0433 232.92 59.93 232.98 59.53C233.94 53.17 224.16 55.3 221.47 57.05C220.857 57.45 219.497 58.89 217.39 61.37C205.48 75.39 185.95 62.42 174.56 55.52C174.45 55.4564 174.323 55.4304 174.197 55.446C174.072 55.4616 173.955 55.5179 173.864 55.6063C173.773 55.6948 173.714 55.8104 173.695 55.9357C173.676 56.0609 173.699 56.1889 173.76 56.3C176.427 60.9467 175.773 65.0333 171.8 68.56C171.347 68.7133 170.987 68.9367 170.72 69.23C170.433 69.5433 170.483 69.7833 170.87 69.95C171.143 70.07 171.52 70.0733 172 69.96C195.913 69.9867 219.83 69.99 243.75 69.97C245.797 69.9633 247.823 69.68 249.83 69.12C250.19 69.02 250.44 68.7933 250.58 68.44L251.42 66.2C251.471 66.0654 251.564 65.9508 251.685 65.8732C251.807 65.7956 251.95 65.7591 252.093 65.7692C252.237 65.7793 252.374 65.8355 252.483 65.9292C252.592 66.023 252.668 66.1495 252.7 66.29L253.29 69C253.383 69.4267 253.617 69.5233 253.99 69.29C256.1 67.95 255.84 64.94 255.44 62.88C255.415 62.7468 255.431 62.6093 255.484 62.4847C255.537 62.3601 255.625 62.2539 255.738 62.1792C255.851 62.1046 255.984 62.0649 256.119 62.065C256.255 62.0651 256.387 62.1051 256.5 62.18C258.567 63.5533 259.28 65.49 258.64 67.99C257.86 71.05 254.67 71.73 251.62 71.73C173.747 71.75 95.8733 71.7567 18 71.75C15.29 71.75 11.72 71.03 11.01 67.98C10.67 66.48 11.19 62.82 13.31 62.53C13.4219 62.5142 13.5359 62.5284 13.6405 62.5709C13.7451 62.6135 13.8366 62.683 13.9057 62.7724C13.9748 62.8618 14.0189 62.9679 14.0338 63.0799C14.0486 63.1918 14.0335 63.3057 13.99 63.41C12.9633 65.9033 13.52 67.92 15.66 69.46C15.7637 69.5374 15.8886 69.581 16.0179 69.5849C16.1472 69.5889 16.2746 69.5529 16.3827 69.4819C16.4909 69.4109 16.5745 69.3083 16.6224 69.1881C16.6702 69.0679 16.6798 68.9359 16.65 68.81C16.45 67.87 16.6333 67.0233 17.2 66.27C17.2468 66.2076 17.3094 66.1588 17.3813 66.1286C17.4532 66.0984 17.5319 66.0878 17.6092 66.098C17.6865 66.1082 17.7598 66.1387 17.8214 66.1865C17.8831 66.2343 17.9309 66.2976 17.96 66.37C18.9067 68.7633 20.8367 69.9633 23.75 69.97C39.3567 70.0033 54.9633 70 70.57 69.96C71.2767 69.9533 72.5033 69.4167 74.25 68.35C74.5633 68.1567 74.8667 68.1667 75.16 68.38C77.76 70.26 80.7167 70.6767 84.03 69.63C84.3433 69.5367 84.5 69.3233 84.5 68.99V66.48C84.498 66.3472 84.5404 66.2181 84.6204 66.1128C84.7004 66.0075 84.8137 65.9318 84.9425 65.8976C85.0714 65.8634 85.2087 65.8725 85.333 65.9236C85.4573 65.9747 85.5617 66.0648 85.63 66.18L87.06 68.66C87.1422 68.8027 87.2517 68.9274 87.3822 69.027C87.5127 69.1266 87.6615 69.199 87.82 69.24C91.3267 70.14 94.8767 70.2767 98.47 69.65C98.8367 69.59 98.87 69.4433 98.57 69.21C93.97 65.7033 92.9833 61.3767 95.61 56.23C96.0033 56.0967 96.29 55.9067 96.47 55.66C96.7167 55.32 96.6333 55.1867 96.22 55.26L94.82 55.52C84.45 62.45 66.75 73.58 54.33 63.57C52.13 61.8 50.41 58.35 47.59 56.69C44.21 54.6833 40.64 54.5967 36.88 56.43C36.7944 56.4726 36.721 56.5372 36.6667 56.6177C36.6125 56.6982 36.5792 56.7919 36.57 56.89L36.33 59.61C36.3254 59.6791 36.3033 59.7459 36.2659 59.8042C36.2285 59.8624 36.1769 59.9103 36.116 59.9432C36.0551 59.9762 35.9868 59.9932 35.9176 59.9926C35.8483 59.992 35.7804 59.9739 35.72 59.94C35.3867 59.7667 35.12 59.5133 34.92 59.18C34.7333 58.88 34.6633 58.4933 34.71 58.02C35.45 50.67 43.01 52.62 47.43 54.71C47.5853 54.785 47.756 54.8224 47.9285 54.8193C48.1011 54.8162 48.2708 54.7727 48.4241 54.6922C48.5774 54.6116 48.7102 54.4963 48.8119 54.3553C48.9136 54.2143 48.9814 54.0516 49.01 53.88C53.79 24.78 89.26 46.03 72.83 57.39C66.54 61.74 56.48 54.02 62.56 50.07C62.6197 50.0332 62.6893 50.0157 62.7592 50.02C62.8292 50.0243 62.8962 50.0501 62.9509 50.0939C63.0056 50.1377 63.0455 50.1973 63.065 50.2647C63.0846 50.332 63.0828 50.4037 63.06 50.47C60.89 56.64 70.94 56.27 73.02 50.75C77.16 39.75 55.47 36.47 51.77 49.48C49.54 57.36 56.29 63.5 63.79 63.94C80.22 64.91 90.85 48.82 108.47 49.77C117.42 50.26 128.92 60.24 118.9 68.66C118.835 68.7127 118.787 68.7832 118.761 68.8629C118.735 68.9426 118.734 69.0281 118.756 69.1088C118.778 69.1895 118.824 69.2619 118.887 69.3172C118.949 69.3725 119.027 69.4082 119.11 69.42C125.74 70.3 130.1 67.89 130.72 61.02C131.4 53.58 127.41 47.02 124.26 40.59C120.147 32.2033 119.723 23.8933 122.99 15.66C123.57 14.21 126.06 14.81 127.05 14.77C132.863 14.55 138.683 14.58 144.51 14.86C144.837 14.88 145.057 15.0433 145.17 15.35C147.637 22.01 148.187 28.06 146.82 33.5C145.21 39.92 139.81 47.18 138.2 53.6C135.51 64.33 138.4 69.61 149.99 69.71ZM141.42 17.14C136 16.9333 130.577 17.03 125.15 17.43C124.69 17.4633 124.42 17.7067 124.34 18.16L123.6 22.52C123.533 22.9 123.687 23.14 124.06 23.24C132.22 25.45 135.13 20.21 142.98 20.53C143.333 20.5433 143.56 20.3833 143.66 20.05C143.92 19.1967 143.84 18.4867 143.42 17.92C143.067 17.44 142.4 17.18 141.42 17.14ZM130.47 68.47L129.5 69.24C129.444 69.2833 129.4 69.3408 129.373 69.4066C129.347 69.4723 129.338 69.544 129.348 69.6142C129.358 69.6845 129.387 69.7507 129.431 69.8062C129.476 69.8617 129.534 69.9044 129.6 69.93C129.967 70.07 130.45 70.0867 131.05 69.98L137.55 70.07C138.623 70.0833 138.827 69.6667 138.16 68.82C131.81 60.77 136.19 50.42 140.73 41.71C144.45 34.58 145.7 30.61 144.78 23.16C144.735 22.798 144.55 22.4676 144.265 22.2383C143.98 22.0089 143.616 21.8984 143.25 21.93C136.22 22.6 131.66 26.71 124.29 25.05C124.169 25.0221 124.044 25.0209 123.923 25.0465C123.802 25.0721 123.688 25.1239 123.589 25.1982C123.49 25.2725 123.408 25.3675 123.349 25.4767C123.291 25.5858 123.257 25.7064 123.25 25.83C122.82 33.88 125.75 38.8 129.72 46.26C132.95 52.31 135.12 62.26 130.47 68.47ZM156.92 62.17C157.95 59.9 160.53 59.19 162.67 60.53C162.87 60.6567 162.98 60.8267 163 61.04C163.04 61.4533 162.873 61.5633 162.5 61.37C160.39 60.22 158.89 61.5 158.92 63.71C159.03 72.86 175.49 68.09 173.44 59.78C171.14 50.43 158.75 50.01 152.4 54.71C144.16 60.81 149.74 70.02 158.48 69.72C158.793 69.7133 158.883 69.5667 158.75 69.28C157.61 66.85 155.61 65.1 156.92 62.17ZM111.19 68.49L110.6 69.04C110.353 69.2667 110.367 69.48 110.64 69.68C111.053 69.9933 111.417 70.0033 111.73 69.71C116.61 69.59 121.28 66.57 121.23 61.41C121.12 50.2 96.91 47.42 96.25 61.24C95.97 67.02 103.24 69.62 107.7 68.03C111.76 66.58 112.04 59.42 107.22 61.34C106.867 61.4733 106.737 61.36 106.83 61C107.88 56.99 116.9 62.12 111.19 68.49Z" fill="#CAA63F"/>
<path d="M78.63 26.98C75.06 32.78 81.69 37.5 86.77 38.27C90.4033 38.8233 93.36 39.1733 95.64 39.32C95.9933 39.3467 96.2833 39.22 96.51 38.94C98.12 36.97 99.5 35.17 102.03 34.43C110.56 31.93 118.87 36.29 120.21 45.42C120.219 45.5085 120.197 45.5974 120.146 45.6705C120.095 45.7435 120.019 45.7957 119.933 45.8176C119.847 45.8395 119.755 45.8295 119.676 45.7895C119.596 45.7496 119.534 45.6823 119.5 45.6C116.61 37.49 107.54 34.19 99.94 38.04C99.7598 38.133 99.6117 38.2781 99.5151 38.4564C99.4184 38.6347 99.3777 38.8379 99.3982 39.0397C99.4187 39.2415 99.4995 39.4324 99.63 39.5876C99.7605 39.7428 99.9347 39.8552 100.13 39.91C102.52 40.56 103.8 44.31 100.68 45.16C97.84 45.93 97.21 43.12 95.92 41.49C95.8237 41.3659 95.6959 41.2699 95.55 41.2119C95.404 41.1538 95.2452 41.1359 95.09 41.16C88.72 42.07 79.76 41.23 76.4 34.81C73.55 29.38 76.15 25.24 81.38 22.97C81.5262 22.8986 81.6936 22.8837 81.8501 22.9281C82.0066 22.9726 82.1412 23.0733 82.228 23.2109C82.3148 23.3486 82.3477 23.5134 82.3204 23.6738C82.2931 23.8342 82.2075 23.9789 82.08 24.08C81.02 25 79.34 25.83 78.63 26.98ZM100.66 42.42L98.94 41.67C98.5867 41.5167 98.44 41.63 98.5 42.01C98.6133 42.79 99.0233 43.33 99.73 43.63C100.023 43.75 100.26 43.68 100.44 43.42L100.79 42.88C100.816 42.8424 100.833 42.7996 100.841 42.7545C100.848 42.7095 100.846 42.6633 100.833 42.6194C100.821 42.5754 100.799 42.5348 100.769 42.5003C100.739 42.4658 100.702 42.4384 100.66 42.42Z" fill="#CAA63F"/>
<path d="M170.31 38.86C169.197 37.5867 167.867 36.85 166.32 36.65C158.16 35.61 152.7 38.7433 149.94 46.05C149.925 46.1032 149.899 46.1529 149.865 46.1962C149.831 46.2396 149.788 46.2758 149.74 46.3027C149.692 46.3296 149.639 46.3468 149.584 46.3532C149.529 46.3596 149.473 46.3551 149.42 46.34C149.367 46.3249 149.317 46.2995 149.274 46.2652C149.23 46.2309 149.194 46.1883 149.167 46.1401C149.14 46.0918 149.123 46.0387 149.117 45.9837C149.11 45.9288 149.115 45.8732 149.13 45.82C150.63 37.92 155.417 33.8733 163.49 33.68C167.39 33.5933 170.463 35.2733 172.71 38.72C172.793 38.8498 172.906 38.9576 173.038 39.0342C173.17 39.1108 173.319 39.1539 173.47 39.16C178.36 39.38 186.23 38.69 189.83 34.96C193.33 31.34 192.37 25.68 187.25 24C187.01 23.92 186.927 23.7567 187 23.51C187.027 23.43 187.053 23.3467 187.08 23.26C187.1 23.2067 187.14 23.1833 187.2 23.19C192.85 24.07 195.56 28.75 193.39 34.01C190.39 41.25 180.87 42.07 174.23 41.27C174.063 41.2497 173.895 41.2778 173.746 41.3506C173.596 41.4235 173.473 41.538 173.39 41.68C169.11 49.12 163.58 42.63 170.12 39.71C170.567 39.51 170.63 39.2267 170.31 38.86ZM169.221 43.4173C169.374 43.5487 169.603 43.5782 169.86 43.4991C170.116 43.42 170.377 43.2389 170.586 42.9956C170.795 42.7523 170.935 42.4668 170.975 42.2018C171.015 41.9368 170.952 41.7141 170.799 41.5827C170.646 41.4513 170.417 41.4218 170.16 41.5009C169.904 41.58 169.643 41.7611 169.434 42.0044C169.225 42.2477 169.085 42.5332 169.045 42.7982C169.005 43.0632 169.068 43.2859 169.221 43.4173Z" fill="#CAA63F"/>
<path d="M141.91 25.5C141.904 25.3739 141.946 25.2503 142.028 25.154C142.109 25.0576 142.224 24.9956 142.349 24.9804C142.475 24.9653 142.601 24.998 142.703 25.0721C142.805 25.1462 142.876 25.2562 142.9 25.38C143.96 30.71 142.35 35.4 139.46 39.96C139.419 40.0343 139.35 40.0892 139.268 40.1126C139.187 40.136 139.099 40.1261 139.025 40.085C138.951 40.0439 138.896 39.975 138.872 39.8934C138.849 39.8118 138.859 39.7243 138.9 39.65C141.06 35.1967 142.063 30.48 141.91 25.5Z" fill="#CAA63F" fill-opacity="0.996"/>
<path d="M133.88 30.78C134.36 30.78 134.75 30.5427 134.75 30.25C134.75 29.9573 134.36 29.72 133.88 29.72C133.4 29.72 133.01 29.9573 133.01 30.25C133.01 30.5427 133.4 30.78 133.88 30.78Z" fill="#CAA63F" fill-opacity="0.996"/>
<path d="M129.287 33.6405C129.79 33.9385 130.411 33.8217 130.672 33.3796C130.934 32.9375 130.737 32.3375 130.233 32.0395C129.73 31.7415 129.109 31.8583 128.848 32.3004C128.586 32.7425 128.783 33.3425 129.287 33.6405Z" fill="#CAA63F" fill-opacity="0.996"/>
<path d="M133.19 36.25C133.886 36.25 134.45 35.6859 134.45 34.99C134.45 34.2941 133.886 33.73 133.19 33.73C132.494 33.73 131.93 34.2941 131.93 34.99C131.93 35.6859 132.494 36.25 133.19 36.25Z" fill="#CAA63F" fill-opacity="0.996"/>
<path d="M128.32 38.3836C128.898 39.0157 129.809 39.1236 130.355 38.6246C130.902 38.1256 130.877 37.2086 130.3 36.5764C129.722 35.9443 128.811 35.8364 128.265 36.3354C127.718 36.8344 127.743 37.7514 128.32 38.3836Z" fill="#CAA63F" fill-opacity="0.996"/>
<path d="M132.68 42.55C133.68 42.55 134.49 41.7396 134.49 40.74C134.49 39.7404 133.68 38.93 132.68 38.93C131.68 38.93 130.87 39.7404 130.87 40.74C130.87 41.7396 131.68 42.55 132.68 42.55Z" fill="#CAA63F"/>
<path d="M1.47 70.86L6.66 68.14C6.708 68.1143 6.76193 68.1017 6.81634 68.1034C6.87076 68.1052 6.92376 68.1213 6.97 68.15L11.92 71.28C11.9762 71.3165 12.019 71.3701 12.0421 71.433C12.0652 71.4958 12.0674 71.5644 12.0483 71.6286C12.0291 71.6928 11.9897 71.749 11.936 71.7889C11.8822 71.8288 11.817 71.8502 11.75 71.85L1.6 71.45C1.52989 71.4493 1.46209 71.4249 1.40765 71.3807C1.35321 71.3365 1.31536 71.2752 1.30028 71.2067C1.28519 71.1382 1.29376 71.0667 1.32458 71.0037C1.35541 70.9407 1.40667 70.8901 1.47 70.86Z" fill="#CAA63F"/>
<path d="M260.21 69.82L261.7 68.13C261.806 68.0101 261.949 67.9285 262.106 67.8978C262.263 67.8671 262.426 67.889 262.57 67.96L268.43 70.99C268.497 71.0276 268.55 71.0862 268.582 71.1568C268.613 71.2273 268.621 71.3058 268.604 71.3801C268.587 71.4543 268.546 71.52 268.487 71.5671C268.428 71.6141 268.356 71.6397 268.28 71.64L258.48 71.77C258.385 71.7758 258.291 71.7483 258.214 71.6922C258.137 71.6361 258.082 71.5549 258.058 71.4626C258.034 71.3703 258.043 71.2726 258.084 71.1864C258.125 71.1001 258.194 71.0307 258.28 70.99L259.5 70.37C259.773 70.23 260.01 70.0467 260.21 69.82Z" fill="#CAA63F"/>
<path d="M10.99 144.88C11.11 144.877 11.2269 144.918 11.3177 144.997C11.4084 145.076 11.4664 145.185 11.4803 145.305C11.4941 145.424 11.4627 145.544 11.3923 145.641C11.3219 145.738 11.2176 145.806 11.1 145.83C9.70666 146.13 8.68333 146.913 8.02999 148.18C7.93712 148.36 7.77798 148.497 7.58705 148.56C7.39613 148.624 7.1888 148.609 7.00999 148.52L0.839996 145.45C0.0666622 145.063 0.109997 144.87 0.969997 144.87L10.99 144.88Z" fill="#CAA63F"/>
<path d="M184.9 146.98C184.54 147.047 184.187 147 183.84 146.84C182.5 146.84 181.323 147.273 180.31 148.14L179.17 147.92L176.19 146.9C172.897 146.627 170.143 147.04 167.93 148.14C167.177 147.647 166.447 147.437 165.74 147.51C165.353 147.55 165.263 147.73 165.47 148.05C165.757 148.49 166.273 148.817 167.02 149.03C168.427 149.303 168.883 150.087 168.39 151.38C168.331 151.529 168.236 151.661 168.114 151.764C167.991 151.867 167.844 151.938 167.687 151.97C167.53 152.002 167.367 151.994 167.214 151.946C167.061 151.899 166.922 151.815 166.81 151.7C166.07 150.94 165.3 150.147 164.5 149.32C164.253 149.067 164.027 148.957 163.82 148.99C163.56 149.037 163.33 149.223 163.13 149.55L161.98 149.84C160.527 148.407 159.037 147.8 157.51 148.02L156.04 147.19C155.367 146.857 154.757 146.867 154.21 147.22C153.843 147.233 153.683 147.353 153.73 147.58C153.01 147.273 152.417 147.173 151.95 147.28C151.423 147.4 151.407 147.57 151.9 147.79L153.47 148.48C153.63 148.813 153.97 149.073 154.49 149.26L152.94 150.99C151.393 148.583 149.58 147.503 147.5 147.75C147.073 147.803 146.92 148.05 147.04 148.49C146.553 148.65 146.197 148.887 145.97 149.2L143 149.33L142.51 148.25L143.67 147.82C144.51 147.893 145.04 147.73 145.26 147.33C145.291 147.271 145.306 147.205 145.304 147.139C145.302 147.072 145.283 147.007 145.249 146.95C145.215 146.893 145.167 146.846 145.109 146.812C145.052 146.779 144.986 146.761 144.92 146.76L138.51 146.75C138.15 146.75 137.913 146.92 137.8 147.26C137.613 147.84 137.343 148.32 136.99 148.7L136.38 149.19C136.107 149.683 135.68 149.867 135.1 149.74C135 149.707 134.9 149.673 134.8 149.64L132.83 149.05L132.18 148.34C131.82 148.227 131.5 147.957 131.22 147.53C131.067 147.037 130.827 146.777 130.5 146.75C129.787 146.69 128.217 146.707 125.79 146.8C124.79 146.6 124.077 146.653 123.65 146.96C123.601 146.993 123.562 147.038 123.536 147.091C123.509 147.143 123.496 147.202 123.498 147.26C123.5 147.319 123.517 147.377 123.547 147.427C123.577 147.478 123.619 147.52 123.67 147.55C124.097 147.81 124.717 147.94 125.53 147.94C125.67 148.007 125.83 148.027 126.01 148C125.957 148.193 126.03 148.373 126.23 148.54C126.377 148.667 126.373 148.787 126.22 148.9C126.147 148.96 126.067 149.01 125.98 149.05L122.29 149.54L122.16 148.59C120.57 146.28 117.63 148.91 116.57 150.55L115.21 150.49C114.877 150.47 114.72 150.293 114.74 149.96C114.753 149.713 114.837 149.5 114.99 149.32C115.263 149.16 115.44 148.973 115.52 148.76L117.85 147.33C117.948 147.265 118.022 147.168 118.056 147.054C118.091 146.941 118.085 146.819 118.039 146.711C117.993 146.603 117.911 146.515 117.807 146.464C117.703 146.412 117.583 146.4 117.47 146.43L115.01 147.08L113.23 147.01L111.29 147.75C109.663 147.817 108.25 148.513 107.05 149.84C106.31 149.853 105.903 149.633 105.83 149.18C105.81 149.06 105.773 148.963 105.72 148.89C105.587 148.69 105.43 148.673 105.25 148.84L102.2 151.58C102.079 151.69 101.921 151.75 101.758 151.746C101.596 151.742 101.442 151.676 101.33 151.56L100.61 150.84C100.263 150.5 100.29 150.193 100.69 149.92L102.3 148.79C102.793 148.643 103.127 148.407 103.3 148.08C103.48 147.74 103.377 147.553 102.99 147.52C102.623 147.487 102.173 147.653 101.64 148.02C100.68 148.107 99.76 147.793 98.88 147.08C98.6723 146.917 98.4163 146.826 98.15 146.82H94.3823L92 147C91.5733 146.98 91.1773 147 90.5 147C88.5 147 86.4533 146.963 85.22 147.01L84.48 146.96C65.69 145.93 46.58 146.46 27.75 146.45C24.46 146.44 18.59 146.27 18.14 150.46C18.1186 150.609 18.0434 150.746 17.9286 150.844C17.8137 150.942 17.6671 150.994 17.5162 150.992C17.3653 150.99 17.2204 150.932 17.1088 150.83C16.9972 150.729 16.9265 150.59 16.91 150.44L16.68 147.7C16.66 147.427 16.5133 147.297 16.24 147.31C13.19 147.45 13.38 151.36 14.13 153.27C14.1752 153.387 14.1845 153.515 14.1568 153.637C14.129 153.759 14.0654 153.87 13.9742 153.956C13.8829 154.042 13.7681 154.099 13.6445 154.119C13.5208 154.139 13.3939 154.122 13.28 154.07C7.07 151.18 12.34 144.82 17.5 144.81C95.5 144.81 173.5 144.783 251.5 144.73C257.02 144.73 263.37 151.18 255.91 154.52C255.57 154.673 255.423 154.567 255.47 154.2C255.77 151.82 256.43 147.89 253.49 147.25C253.417 147.235 253.342 147.238 253.271 147.259C253.2 147.28 253.135 147.318 253.083 147.37C253.032 147.422 252.994 147.486 252.974 147.556C252.954 147.626 252.953 147.699 252.97 147.77C253.217 148.897 252.923 149.823 252.09 150.55C251.73 150.87 251.5 150.793 251.4 150.32C250.913 148.06 249.343 146.903 246.69 146.85C228.957 146.483 211.227 146.363 193.5 146.49C190.707 146.51 187.84 146.673 184.9 146.98ZM107.07 147.83C107.59 147.823 108.04 147.63 108.42 147.25C108.86 146.803 108.767 146.6 108.14 146.64L105.88 146.8C105.761 146.807 105.647 146.849 105.553 146.921C105.458 146.993 105.387 147.092 105.348 147.204C105.309 147.317 105.305 147.438 105.336 147.553C105.366 147.668 105.431 147.772 105.52 147.85C105.813 148.11 106.173 148.137 106.6 147.93C106.747 147.863 106.903 147.83 107.07 147.83ZM163.668 147.454C163.672 147.37 163.64 147.284 163.571 147.203C163.503 147.121 163.401 147.044 163.27 146.977C163.139 146.91 162.982 146.854 162.808 146.812C162.634 146.769 162.447 146.742 162.257 146.731C161.873 146.709 161.501 146.755 161.222 146.859C160.944 146.963 160.782 147.117 160.772 147.286C160.768 147.37 160.8 147.456 160.868 147.537C160.937 147.619 161.039 147.696 161.17 147.763C161.301 147.83 161.458 147.886 161.632 147.928C161.806 147.971 161.993 147.998 162.183 148.009C162.567 148.031 162.939 147.985 163.218 147.881C163.496 147.777 163.658 147.623 163.668 147.454Z" fill="#CAA63F"/>
<path d="M259.64 146.31L258.39 145.81C258.291 145.772 258.209 145.7 258.158 145.608C258.106 145.515 258.089 145.408 258.11 145.304C258.13 145.2 258.186 145.106 258.269 145.04C258.351 144.973 258.454 144.938 258.56 144.94L268.24 144.92C269.187 144.92 269.24 145.137 268.4 145.57L263.04 148.36C262.854 148.457 262.646 148.505 262.437 148.498C262.228 148.491 262.026 148.43 261.85 148.32C261.27 147.96 260.797 147.503 260.43 146.95C260.23 146.657 259.967 146.443 259.64 146.31Z" fill="#CAA63F"/>
<path d="M93.79 146.7C93.49 146.927 93.3067 147.153 93.24 147.38C93.18 147.587 93.2733 147.823 93.52 148.09C95.6667 150.363 98.27 152.067 101.33 153.2C101.65 153.32 101.963 153.307 102.27 153.16C103.797 152.427 104.983 151.1 105.83 149.18C105.903 149.633 106.31 149.853 107.05 149.84C104.73 152.9 102.983 156.26 101.81 159.92C101.75 160.109 101.763 160.313 101.846 160.493C101.929 160.672 102.077 160.814 102.26 160.89C106.71 162.76 111.33 164.79 116.25 163.46C116.607 163.365 116.914 163.137 117.108 162.823C117.301 162.508 117.366 162.131 117.29 161.77C117.083 160.763 117.203 159.83 117.65 158.97C117.708 158.858 117.73 158.731 117.713 158.605C117.697 158.48 117.643 158.363 117.558 158.27C117.473 158.176 117.362 158.111 117.239 158.082C117.116 158.054 116.987 158.063 116.87 158.11L112.73 159.79C112.443 159.903 112.157 159.903 111.87 159.79C110.55 159.237 109.19 158.97 107.79 158.99C107.605 158.993 107.422 158.947 107.26 158.857C107.098 158.766 106.963 158.635 106.869 158.475C106.774 158.316 106.724 158.134 106.722 157.949C106.721 157.763 106.768 157.581 106.86 157.42C108.527 154.487 110.89 152.397 113.95 151.15C114.062 151.104 114.159 151.026 114.228 150.926C114.296 150.826 114.334 150.708 114.336 150.587C114.338 150.465 114.305 150.346 114.24 150.243C114.175 150.141 114.081 150.06 113.97 150.01C112.983 149.577 112.09 148.823 111.29 147.75L113.23 147.01C113.243 148.35 113.83 149.12 114.99 149.32C114.837 149.5 114.753 149.713 114.74 149.96C114.72 150.293 114.877 150.47 115.21 150.49L116.57 150.55L115.44 151.96C115.12 152.747 114.617 153.467 113.93 154.12L112.8 153.44C112.447 153.233 112.12 153.267 111.82 153.54L108.86 156.21C108.699 156.354 108.586 156.543 108.536 156.753C108.486 156.963 108.501 157.183 108.579 157.385C108.657 157.586 108.795 157.758 108.974 157.879C109.153 158 109.364 158.063 109.58 158.06L114.26 158.01C114.377 158.019 114.492 157.982 114.581 157.906C114.67 157.83 114.726 157.722 114.735 157.605C114.744 157.488 114.707 157.373 114.631 157.284C114.555 157.195 114.447 157.139 114.33 157.13L112.18 156.76C111.86 156.707 111.65 156.53 111.55 156.23C110.97 154.6 112.96 153.81 113.83 155.13C113.96 155.318 114.145 155.462 114.36 155.54C117.52 156.707 120.42 157.077 123.06 156.65C123.907 156.51 124.283 155.997 124.19 155.11C124.15 154.743 123.95 154.6 123.59 154.68C122.01 155.007 120.587 154.767 119.32 153.96C119.02 153.767 118.873 153.493 118.88 153.14C118.92 150.953 120.013 149.437 122.16 148.59L122.29 149.54C121.223 149.833 120.443 150.53 119.95 151.63C119.815 151.929 119.767 152.26 119.811 152.585C119.855 152.91 119.989 153.216 120.199 153.468C120.408 153.72 120.685 153.909 120.996 154.012C121.307 154.114 121.641 154.128 121.96 154.05C124.287 153.483 126.197 152.2 127.69 150.2C127.754 150.114 127.793 150.011 127.801 149.904C127.809 149.796 127.787 149.689 127.737 149.594C127.687 149.498 127.611 149.419 127.517 149.366C127.424 149.312 127.318 149.286 127.21 149.29C126.75 149.303 126.34 149.223 125.98 149.05C126.067 149.01 126.147 148.96 126.22 148.9C126.373 148.787 126.377 148.667 126.23 148.54C126.03 148.373 125.957 148.193 126.01 148C127.79 148.347 129.527 148.19 131.22 147.53C131.5 147.957 131.82 148.227 132.18 148.34C129.68 149.553 127.82 151.37 126.6 153.79C126.531 153.928 126.506 154.084 126.53 154.236C126.554 154.389 126.625 154.53 126.733 154.64C126.841 154.75 126.98 154.824 127.132 154.851C127.284 154.878 127.441 154.856 127.58 154.79C130.08 153.59 131.83 151.677 132.83 149.05L134.8 149.64C134.513 149.68 134.27 149.75 134.07 149.85C133.883 149.95 133.74 150.14 133.64 150.42C132.753 153.047 132.893 155.66 134.06 158.26C134.09 158.326 134.138 158.383 134.199 158.423C134.26 158.464 134.331 158.486 134.404 158.488C134.477 158.49 134.549 158.472 134.612 158.435C134.675 158.398 134.726 158.345 134.76 158.28C136.213 155.54 136.327 152.693 135.1 149.74C135.68 149.867 136.107 149.683 136.38 149.19C137.46 152.05 139.233 153.817 141.7 154.49C142.193 154.63 142.38 154.45 142.26 153.95C141.74 151.843 140.27 150.11 137.85 148.75C137.803 148.07 138.54 147.813 140.06 147.98C140.9 148.267 141.717 148.357 142.51 148.25L143 149.33L141.96 149.56C141.892 149.576 141.829 149.61 141.778 149.658C141.727 149.706 141.689 149.767 141.67 149.833C141.65 149.9 141.649 149.97 141.667 150.036C141.685 150.103 141.72 150.163 141.77 150.21L145.14 153.49C145.408 153.752 145.74 153.94 146.103 154.035C146.465 154.131 146.847 154.131 147.209 154.035C147.572 153.939 147.903 153.751 148.172 153.489C148.44 153.227 148.636 152.9 148.74 152.54C149.233 150.86 148.31 149.747 145.97 149.2C146.197 148.887 146.553 148.65 147.04 148.49C148.553 149.29 149.72 150.563 150.54 152.31C150.693 152.643 150.957 152.793 151.33 152.76C152.01 152.693 152.56 152.78 152.98 153.02L153.8 153.99L153.72 154.75L151.69 155.34L150.5 153.91C150.267 153.63 150.01 153.61 149.73 153.85C148.583 154.803 147.253 155.173 145.74 154.96C145.594 154.938 145.445 154.97 145.321 155.049C145.197 155.128 145.105 155.25 145.064 155.392C145.022 155.533 145.033 155.685 145.095 155.819C145.157 155.953 145.265 156.06 145.4 156.12C147.607 157.133 149.75 157.11 151.83 156.05L154.54 155.86C154.96 155.707 155.197 155.42 155.25 155C155.297 154.64 155.133 154.29 154.76 153.95L153.55 152.24C153.47 151.48 153.267 151.063 152.94 150.99L154.49 149.26C154.703 149.22 154.877 149.06 155.01 148.78C155.503 148.82 155.847 148.29 156.04 147.19L157.51 148.02C156.837 149.06 156.003 149.683 155.01 149.89C154.879 149.92 154.761 149.991 154.673 150.093C154.586 150.195 154.533 150.323 154.523 150.457C154.513 150.591 154.546 150.725 154.617 150.839C154.689 150.953 154.795 151.041 154.92 151.09C158.287 152.35 160.847 154.573 162.6 157.76C162.76 158.06 162.687 158.287 162.38 158.44C158.953 160.12 155.667 160.027 152.52 158.16C152.398 158.089 152.255 158.061 152.114 158.08C151.974 158.099 151.844 158.164 151.746 158.264C151.647 158.365 151.586 158.495 151.573 158.634C151.559 158.773 151.593 158.913 151.67 159.03C152.297 160.003 152.317 160.97 151.73 161.93C151.684 162.006 151.654 162.09 151.642 162.177C151.629 162.265 151.635 162.353 151.659 162.438C151.682 162.522 151.723 162.601 151.778 162.668C151.833 162.736 151.902 162.791 151.98 162.83C156.49 165.19 162.47 162.82 166.87 160.66C167.177 160.507 167.283 160.267 167.19 159.94C166.157 156.173 164.42 152.807 161.98 149.84L163.13 149.55L166.76 153.06C167.007 153.3 167.297 153.37 167.63 153.27C171.23 152.17 174.083 150.047 176.19 146.9L179.17 147.92C177.51 148.453 176.133 149.527 175.04 151.14C174.927 151.313 174.923 151.49 175.03 151.67L176.39 154.02C176.523 154.247 176.713 154.327 176.96 154.26C177.073 154.233 177.177 154.183 177.27 154.11C177.47 153.93 177.533 153.663 177.46 153.31C177.293 152.53 176.793 152.013 175.96 151.76C175.573 151.64 175.52 151.437 175.8 151.15C175.873 151.077 175.953 151.017 176.04 150.97C176.28 150.823 176.513 150.833 176.74 151L178.33 152.17C178.424 152.241 178.537 152.282 178.654 152.285C178.771 152.289 178.887 152.255 178.985 152.19C179.084 152.124 179.16 152.029 179.204 151.918C179.248 151.808 179.257 151.686 179.23 151.57C179.05 150.837 178.607 150.26 177.9 149.84C177.824 149.795 177.764 149.728 177.728 149.648C177.693 149.568 177.683 149.478 177.7 149.391C177.718 149.304 177.761 149.223 177.826 149.161C177.89 149.098 177.972 149.056 178.06 149.04C178.9 148.913 179.437 149.26 179.67 150.08C179.694 150.168 179.738 150.249 179.797 150.318C179.857 150.387 179.931 150.442 180.014 150.479C180.097 150.516 180.187 150.535 180.278 150.533C180.369 150.532 180.458 150.51 180.54 150.47C181.44 150.023 181.72 149.317 181.38 148.35C182.467 147.923 183.287 147.42 183.84 146.84C184.187 147 184.54 147.047 184.9 146.98C182.75 150.87 179.81 155 175.63 156.87C172.7 158.18 167.44 159.84 169.37 164.4C171.457 169.32 171.917 174.693 170.75 180.52C169.68 185.91 156.36 183.32 153 181.92C150.73 180.98 149.2 181.16 147.27 182.34C146.97 182.52 146.767 182.78 146.66 183.12C144.773 189.487 140.863 194.147 134.93 197.1C134.657 197.233 134.383 197.23 134.11 197.09C128.83 194.323 125.163 190.253 123.11 184.88C122.13 182.32 119.92 180.2 117.28 181.28C111.073 183.833 105.247 184.307 99.8 182.7C99.629 182.65 99.4721 182.561 99.3418 182.439C99.2116 182.318 99.1116 182.167 99.05 182C97.0367 176.687 97.0667 171.48 99.14 166.38C100.64 162.7 100.54 159.36 96.37 158.09C90.85 156.39 87.36 152.2 84.48 146.96L85.22 147.01L87.93 148.66C87.55 148.947 87.32 149.267 87.24 149.62C87.2081 149.753 87.2158 149.893 87.2623 150.021C87.3088 150.15 87.3919 150.262 87.5015 150.344C87.6111 150.426 87.7423 150.474 87.8789 150.482C88.0155 150.49 88.1514 150.458 88.27 150.39L90.92 148.88C91.4933 148.553 91.4533 148.353 90.8 148.28C90.4667 148.247 90.2033 148.147 90.01 147.98L93.79 146.7ZM89.19 151.8L89.98 152.75C90.0227 152.8 90.0833 152.831 90.1488 152.837C90.2144 152.842 90.2794 152.822 90.33 152.78L90.41 152.72C90.8108 152.387 91.197 152.045 91.5464 151.713C91.8958 151.381 92.2015 151.065 92.4459 150.785C92.6904 150.504 92.8687 150.264 92.9707 150.077C93.0726 149.891 93.0962 149.763 93.04 149.7L92.75 149.35C92.6974 149.284 92.5663 149.285 92.3643 149.351C92.1623 149.418 91.8933 149.549 91.5728 149.737C91.2523 149.926 90.8866 150.168 90.4965 150.45C90.1065 150.732 89.6999 151.048 89.3 151.38L89.22 151.44C89.1938 151.461 89.1721 151.488 89.1563 151.517C89.1405 151.547 89.1309 151.58 89.1281 151.614C89.1253 151.647 89.1293 151.681 89.14 151.713C89.1506 151.745 89.1676 151.775 89.19 151.8ZM91.07 153.7L91.61 154.32C91.9967 154.767 92.3533 154.743 92.68 154.25L94.38 151.67C94.56 151.39 94.4933 151.2 94.18 151.1L93.84 150.99C93.5467 150.897 93.3333 150.99 93.2 151.27C92.7867 152.177 92.1367 152.77 91.25 153.05C91.1857 153.07 91.1275 153.105 91.0806 153.153C91.0337 153.202 90.9998 153.261 90.9818 153.326C90.9639 153.39 90.9626 153.459 90.978 153.524C90.9934 153.59 91.025 153.65 91.07 153.7ZM96.8593 153.418C96.8938 153.353 96.9152 153.282 96.9223 153.209C96.9293 153.136 96.9219 153.062 96.9004 152.992C96.8789 152.921 96.8437 152.856 96.7969 152.799C96.7501 152.742 96.6926 152.695 96.6277 152.661L95.9567 152.304C95.8918 152.27 95.8207 152.248 95.7475 152.241C95.6743 152.234 95.6004 152.241 95.5301 152.263C95.4597 152.284 95.3943 152.32 95.3376 152.366C95.2808 152.413 95.2338 152.471 95.1993 152.536L94.1007 154.602C94.0662 154.667 94.0448 154.738 94.0377 154.811C94.0307 154.884 94.0381 154.958 94.0596 155.028C94.0811 155.099 94.1163 155.164 94.1631 155.221C94.2099 155.278 94.2674 155.325 94.3323 155.359L95.0033 155.716C95.0682 155.75 95.1393 155.772 95.2125 155.779C95.2857 155.786 95.3596 155.779 95.4299 155.757C95.5003 155.736 95.5657 155.7 95.6224 155.654C95.6792 155.607 95.7262 155.549 95.7607 155.484L96.8593 153.418ZM173.988 152.9C173.912 152.766 173.787 152.668 173.638 152.626C173.49 152.585 173.332 152.604 173.198 152.68L172.762 152.925C172.696 152.963 172.637 153.013 172.59 153.073C172.543 153.133 172.509 153.201 172.488 153.275C172.468 153.348 172.462 153.425 172.471 153.5C172.48 153.576 172.504 153.649 172.542 153.715L173.592 155.58C173.668 155.714 173.793 155.812 173.942 155.854C174.09 155.895 174.248 155.876 174.382 155.8L174.818 155.555C174.884 155.517 174.943 155.467 174.99 155.407C175.037 155.347 175.071 155.279 175.092 155.205C175.112 155.132 175.118 155.055 175.109 154.98C175.1 154.904 175.076 154.831 175.038 154.765L173.988 152.9ZM157.96 155.48C157.853 155.96 157.627 156.33 157.28 156.59C156.993 156.817 156.673 156.88 156.32 156.78C155.827 156.633 155.417 156.717 155.09 157.03C155.013 157.104 154.959 157.199 154.936 157.303C154.913 157.407 154.921 157.516 154.96 157.615C154.998 157.715 155.065 157.8 155.153 157.862C155.24 157.923 155.343 157.957 155.45 157.96L159.88 158.01C159.956 158.01 160.031 157.995 160.1 157.966C160.17 157.936 160.234 157.894 160.287 157.84C160.34 157.786 160.381 157.722 160.41 157.651C160.438 157.581 160.451 157.506 160.45 157.43C160.43 156.67 159.857 155.93 158.73 155.21C158.28 153.98 157.66 152.6 156.01 153.38C155.57 153.587 155.57 153.787 156.01 153.98C156.863 154.36 157.513 154.86 157.96 155.48ZM97.1423 156.711C97.3422 156.851 97.6305 156.847 97.944 156.7C98.2574 156.553 98.5702 156.275 98.8136 155.928C99.057 155.58 99.211 155.191 99.2418 154.846C99.2726 154.502 99.1776 154.229 98.9777 154.089C98.7778 153.949 98.4895 153.953 98.176 154.1C97.8626 154.247 97.5498 154.525 97.3064 154.872C97.063 155.22 96.909 155.609 96.8782 155.954C96.8474 156.298 96.9424 156.571 97.1423 156.711ZM102.483 155.297C102.529 155.22 102.559 155.136 102.572 155.047C102.585 154.959 102.58 154.869 102.559 154.782C102.537 154.696 102.498 154.614 102.445 154.543C102.391 154.471 102.324 154.411 102.247 154.365L102.059 154.252C101.982 154.207 101.897 154.176 101.809 154.164C101.72 154.151 101.63 154.155 101.544 154.177C101.457 154.199 101.376 154.238 101.304 154.291C101.232 154.345 101.172 154.411 101.126 154.488L99.4366 157.323C99.3909 157.4 99.3607 157.484 99.3478 157.573C99.3349 157.661 99.3396 157.751 99.3615 157.838C99.3834 157.924 99.4221 158.006 99.4755 158.077C99.5288 158.149 99.5958 158.209 99.6725 158.255L99.8614 158.368C99.9381 158.413 100.023 158.444 100.111 158.456C100.2 158.469 100.29 158.465 100.376 158.443C100.463 158.421 100.544 158.382 100.616 158.329C100.688 158.275 100.748 158.209 100.794 158.132L102.483 155.297ZM172.201 156.994C172.355 156.891 172.4 156.639 172.327 156.295C172.254 155.951 172.068 155.543 171.811 155.16C171.684 154.97 171.542 154.792 171.395 154.637C171.248 154.481 171.099 154.351 170.955 154.253C170.811 154.155 170.675 154.092 170.556 154.066C170.436 154.041 170.336 154.055 170.26 154.106C170.105 154.209 170.06 154.461 170.133 154.805C170.206 155.149 170.392 155.557 170.649 155.94C170.776 156.13 170.918 156.308 171.065 156.463C171.212 156.619 171.361 156.749 171.505 156.847C171.649 156.945 171.785 157.008 171.904 157.034C172.024 157.059 172.124 157.045 172.201 156.994ZM127.32 160.53L129.49 161.56C129.591 161.607 129.701 161.634 129.812 161.639C129.924 161.644 130.035 161.627 130.14 161.589C130.245 161.551 130.341 161.493 130.424 161.417C130.506 161.342 130.573 161.251 130.62 161.15L130.65 161.09C131.013 160.323 131.326 159.542 131.572 158.791C131.818 158.04 131.992 157.334 132.084 156.714C132.176 156.094 132.184 155.571 132.108 155.176C132.032 154.78 131.873 154.52 131.64 154.41L131.48 154.34C131.248 154.227 130.947 154.266 130.593 154.456C130.239 154.647 129.839 154.984 129.418 155.448C128.996 155.913 128.56 156.496 128.135 157.164C127.709 157.831 127.303 158.571 126.94 159.34L126.91 159.4C126.815 159.604 126.804 159.838 126.881 160.05C126.958 160.262 127.116 160.435 127.32 160.53ZM137.16 154.94C136.81 156.67 137.52 161.52 140.09 161.22C140.73 161.147 141.17 160.793 141.41 160.16C142.26 157.9 139.97 155.64 138.15 154.51C138.06 154.455 137.957 154.422 137.852 154.415C137.746 154.408 137.64 154.426 137.543 154.468C137.446 154.51 137.361 154.575 137.294 154.657C137.227 154.739 137.181 154.836 137.16 154.94ZM169.209 158.496C169.41 158.399 169.499 158.092 169.457 157.644C169.415 157.195 169.246 156.642 168.986 156.104C168.858 155.838 168.711 155.584 168.554 155.357C168.397 155.13 168.233 154.933 168.072 154.779C167.911 154.625 167.756 154.516 167.615 154.459C167.474 154.401 167.35 154.396 167.251 154.444C167.05 154.541 166.961 154.848 167.003 155.296C167.045 155.745 167.214 156.298 167.474 156.836C167.602 157.102 167.749 157.356 167.906 157.583C168.063 157.81 168.227 158.007 168.388 158.161C168.549 158.315 168.704 158.424 168.845 158.481C168.986 158.539 169.11 158.544 169.209 158.496ZM125.01 163.93C125.19 165.583 124.887 166.433 124.1 166.48C122.927 168.3 122.797 170.293 123.71 172.46C123.877 172.853 124.14 172.937 124.5 172.71C125.847 171.863 126.917 170.763 127.71 169.41C127.758 169.331 127.779 169.238 127.767 169.146C127.756 169.054 127.714 168.968 127.648 168.903C127.582 168.838 127.495 168.798 127.403 168.788C127.311 168.778 127.218 168.8 127.14 168.85L125.16 170.06C125.082 170.107 124.993 170.134 124.902 170.139C124.811 170.144 124.72 170.127 124.637 170.09C124.553 170.053 124.48 169.996 124.423 169.925C124.367 169.853 124.328 169.769 124.31 169.68C124.143 168.84 124.233 168.033 124.58 167.26C124.773 167.06 125.077 166.953 125.49 166.94C126.403 167.627 126.943 167.68 127.11 167.1C129.35 165.66 133.86 163.16 133.5 160.04C133.488 159.939 133.444 159.844 133.374 159.771C133.304 159.697 133.212 159.648 133.111 159.631C133.011 159.614 132.908 159.63 132.817 159.677C132.727 159.724 132.654 159.798 132.61 159.89C131.883 161.363 130.723 162.27 129.13 162.61C128.763 162.69 128.417 162.633 128.09 162.44C126.61 161.553 126.173 160.243 126.78 158.51C126.829 158.369 126.841 158.218 126.815 158.07C126.789 157.923 126.726 157.785 126.632 157.669C126.538 157.553 126.416 157.463 126.277 157.407C126.139 157.351 125.988 157.332 125.84 157.35C124.933 157.47 124.447 158.103 124.38 159.25C124.267 160.97 124.477 162.53 125.01 163.93ZM141.95 162.25C141.363 161.89 140.793 162.093 140.24 162.86C138.507 162.54 137.327 161.527 136.7 159.82C136.6 159.54 136.407 159.43 136.12 159.49L135.58 159.59C135.5 159.606 135.425 159.64 135.36 159.688C135.294 159.737 135.24 159.799 135.201 159.87C135.162 159.941 135.139 160.02 135.134 160.102C135.128 160.183 135.141 160.264 135.17 160.34C136.07 162.647 137.693 164.46 140.04 165.78L141.7 166.78C142.06 167.34 142.51 167.43 143.05 167.05C143.337 166.843 143.513 166.587 143.58 166.28L143.99 164.25C144.477 162.37 144.59 160.467 144.33 158.54C144.223 157.773 143.873 157.42 143.28 157.48C143.133 157.496 142.991 157.546 142.866 157.625C142.742 157.705 142.637 157.811 142.56 157.937C142.484 158.063 142.438 158.205 142.425 158.351C142.413 158.497 142.435 158.644 142.49 158.78C142.943 159.933 142.763 161.09 141.95 162.25ZM123.242 158.839C123.195 158.589 123.037 158.37 122.801 158.231C122.565 158.091 122.272 158.043 121.985 158.096C121.843 158.122 121.707 158.173 121.584 158.245C121.462 158.316 121.356 158.408 121.271 158.514C121.187 158.621 121.127 158.739 121.094 158.864C121.061 158.989 121.055 159.117 121.078 159.24C121.125 159.491 121.283 159.71 121.519 159.849C121.755 159.989 122.048 160.037 122.335 159.984C122.477 159.958 122.613 159.907 122.736 159.835C122.858 159.764 122.964 159.672 123.049 159.566C123.133 159.459 123.193 159.341 123.226 159.216C123.259 159.091 123.265 158.963 123.242 158.839ZM147.74 158.5C147.4 158.3 146.97 158.187 146.45 158.16C146.209 158.143 145.991 158.221 145.84 158.376C145.688 158.532 145.615 158.754 145.636 158.997C145.656 159.24 145.769 159.485 145.95 159.683C146.131 159.881 146.367 160.016 146.61 160.06C147.297 160.193 147.733 159.807 147.92 158.9C147.96 158.72 147.9 158.587 147.74 158.5ZM122.29 161.71L119.57 159.11C119.531 159.073 119.484 159.044 119.434 159.026C119.383 159.007 119.33 158.998 119.276 159C119.222 159.002 119.169 159.014 119.12 159.036C119.071 159.059 119.027 159.091 118.99 159.13L118.96 159.16C118.58 159.56 118.377 160.098 118.395 160.656C118.414 161.214 118.653 161.748 119.06 162.14L119.28 162.35C119.69 162.742 120.235 162.959 120.796 162.954C121.357 162.948 121.887 162.72 122.27 162.32L122.3 162.29C122.337 162.251 122.367 162.206 122.387 162.155C122.406 162.105 122.416 162.052 122.415 161.998C122.414 161.944 122.403 161.891 122.381 161.842C122.36 161.792 122.329 161.747 122.29 161.71ZM149.05 160.05L147.72 161.38C147.595 161.509 147.512 161.673 147.483 161.85C147.453 162.028 147.479 162.21 147.556 162.372C147.634 162.534 147.759 162.669 147.915 162.758C148.071 162.847 148.251 162.886 148.43 162.87C150.47 162.65 151.69 159.9 149.7 158.6C149.602 158.536 149.485 158.504 149.368 158.511C149.251 158.517 149.138 158.561 149.048 158.636C148.957 158.711 148.893 158.813 148.865 158.927C148.836 159.041 148.845 159.161 148.89 159.27C148.923 159.357 148.95 159.437 148.97 159.51C149.05 159.843 149.077 160.023 149.05 160.05ZM104.8 163.24C104.087 163.047 103.36 162.83 102.62 162.59C102.32 162.49 102.07 162.563 101.87 162.81C101.537 163.223 101.617 163.573 102.11 163.86C102.517 164.093 103.42 164.457 104.82 164.95C105.133 165.063 105.34 164.96 105.44 164.64C105.68 163.893 105.467 163.427 104.8 163.24ZM163.66 163.69C163.293 163.797 163.027 163.997 162.86 164.29C162.64 164.663 162.743 164.873 163.17 164.92C163.89 164.993 164.687 164.777 165.56 164.27L167.15 163.48C167.259 163.423 167.343 163.327 167.385 163.211C167.427 163.095 167.424 162.968 167.376 162.854C167.328 162.741 167.239 162.65 167.127 162.599C167.014 162.548 166.887 162.541 166.77 162.58L163.66 163.69ZM134.151 165.294C134.341 165.352 134.556 165.302 134.749 165.156C134.941 165.009 135.095 164.777 135.177 164.51C135.259 164.244 135.262 163.966 135.185 163.736C135.109 163.507 134.959 163.345 134.769 163.286C134.579 163.228 134.364 163.278 134.171 163.424C133.979 163.571 133.825 163.803 133.743 164.07C133.661 164.336 133.658 164.614 133.735 164.844C133.811 165.073 133.961 165.235 134.151 165.294ZM122.76 174.51C121.18 170.44 121.87 168.42 123.04 164.36C123.062 164.284 123.065 164.204 123.049 164.127C123.033 164.05 122.999 163.979 122.95 163.918C122.9 163.858 122.837 163.811 122.766 163.782C122.694 163.752 122.617 163.742 122.54 163.75L118.78 164.09C118.42 164.123 118.187 164.313 118.08 164.66C117.5 166.54 116.88 168 117.42 170.03C118.253 173.217 119.253 176.283 120.42 179.23C120.464 179.343 120.53 179.446 120.615 179.532C120.7 179.618 120.802 179.686 120.913 179.731C121.025 179.776 121.144 179.797 121.264 179.794C121.384 179.79 121.502 179.762 121.61 179.71C126 177.69 131.78 175.75 133.3 170.82C133.393 170.513 133.34 170.233 133.14 169.98L130.66 166.8C130.642 166.777 130.618 166.759 130.591 166.748C130.563 166.737 130.534 166.735 130.505 166.74C130.476 166.745 130.449 166.758 130.427 166.777C130.405 166.797 130.389 166.822 130.38 166.85C129.193 170.37 126.92 173.02 123.56 174.8C123.18 175 122.913 174.903 122.76 174.51ZM146.48 174.56C146.455 174.633 146.416 174.7 146.365 174.758C146.313 174.815 146.251 174.861 146.181 174.893C146.112 174.925 146.037 174.942 145.961 174.943C145.885 174.944 145.81 174.93 145.74 174.9C142.56 173.52 140.263 171.257 138.85 168.11C138.65 167.67 138.37 167.61 138.01 167.93L135.8 169.91C135.487 170.183 135.407 170.513 135.56 170.9C137.5 175.78 143.15 177.69 147.73 179.73C148.063 179.883 148.297 179.787 148.43 179.44C150.29 174.57 152.88 169.84 150.78 164.55C150.607 164.117 150.29 163.93 149.83 163.99L146.99 164.32C146.59 164.367 146.447 164.58 146.56 164.96C147.507 168.147 147.48 171.347 146.48 174.56ZM112.7 171.75C113.047 171.31 113.223 170.95 113.23 170.67C113.237 170.317 113.077 170.207 112.75 170.34C112.137 170.593 111.65 171.073 111.29 171.78C110.31 172.273 109.587 172.127 109.12 171.34C108.913 171 108.96 170.697 109.26 170.43L110.43 169.38C110.522 169.302 110.582 169.194 110.6 169.076C110.618 168.958 110.591 168.837 110.526 168.735C110.461 168.633 110.36 168.558 110.244 168.522C110.127 168.486 110.002 168.493 109.89 168.54L108.77 169.01C108.675 169.047 108.571 169.051 108.475 169.022C108.379 168.993 108.296 168.932 108.24 168.85L107.42 167.63C107.329 167.495 107.281 167.334 107.283 167.17C107.285 167.006 107.336 166.846 107.43 166.71C107.957 165.937 108.89 165.733 110.23 166.1C110.863 166.367 111.39 166.247 111.81 165.74C112.083 165.407 112.017 165.17 111.61 165.03C111.37 164.95 111.037 164.967 110.61 165.08C105.14 163.43 104.77 169.95 104.75 173.99C104.75 174.277 104.673 174.543 104.52 174.79C104.14 175.417 104.163 175.977 104.59 176.47C104.79 176.703 105.047 176.83 105.36 176.85C108.27 177.01 114.62 176.83 116.21 173.75C117.03 172.163 116.883 170.733 115.77 169.46C114.497 168 114.253 168.153 115.04 169.92C115.58 171.133 115.613 172.32 115.14 173.48C115.064 173.662 114.923 173.809 114.745 173.893C114.567 173.976 114.366 173.989 114.18 173.93C113.093 173.583 112.6 172.857 112.7 171.75ZM154.833 167.411C154.989 167.292 155.048 167.058 154.997 166.761C154.946 166.463 154.789 166.126 154.56 165.824C154.447 165.674 154.319 165.537 154.185 165.421C154.051 165.305 153.912 165.212 153.777 165.148C153.642 165.083 153.514 165.049 153.399 165.045C153.284 165.042 153.185 165.071 153.107 165.13C152.951 165.248 152.892 165.482 152.943 165.779C152.994 166.077 153.151 166.414 153.38 166.716C153.493 166.866 153.621 167.003 153.755 167.119C153.889 167.235 154.028 167.328 154.163 167.392C154.298 167.457 154.426 167.491 154.541 167.495C154.656 167.498 154.755 167.469 154.833 167.411ZM160.03 165.89L161.05 166.22C161.299 166.303 161.512 166.467 161.655 166.687C161.798 166.906 161.863 167.168 161.839 167.428C161.814 167.689 161.702 167.934 161.521 168.123C161.34 168.312 161.1 168.435 160.84 168.47L160 168.58C159.3 168.273 158.74 168.18 158.32 168.3C157.827 168.447 157.803 168.643 158.25 168.89L159.75 169.72C159.943 170.073 160.03 170.453 160.01 170.86C159.997 171.18 159.867 171.44 159.62 171.64C158.893 172.22 158.187 172.35 157.5 172.03C157.207 171.197 156.803 170.657 156.29 170.41C155.903 170.223 155.743 170.343 155.81 170.77C155.89 171.317 156.1 171.813 156.44 172.26C156.58 172.74 156.613 173.057 156.54 173.21C156.399 173.473 156.181 173.695 155.916 173.846C155.652 173.996 155.354 174.066 155.067 174.046C154.78 174.026 154.518 173.917 154.319 173.734C154.12 173.552 153.994 173.305 153.96 173.03L153.73 171L153.55 169.78C153.497 169.42 153.4 169.407 153.26 169.74L152.7 171.04C150.67 176.57 160.88 177.01 164.24 176.6C164.587 176.56 164.737 176.367 164.69 176.02C164.22 172.62 164.78 165.84 159.9 164.89L157.35 165.36C156.83 165.46 156.77 165.683 157.17 166.03C157.637 166.443 158.59 166.397 160.03 165.89ZM115.51 165.62C114.57 165.34 114.003 165.52 113.81 166.16C113.74 166.395 113.753 166.663 113.844 166.911C113.936 167.159 114.101 167.368 114.305 167.497C114.51 167.626 114.739 167.664 114.948 167.606C115.156 167.547 115.328 167.395 115.43 167.18L115.82 166.31C115.98 165.963 115.877 165.733 115.51 165.62ZM103.28 166.16C102.633 165.68 101.937 165.597 101.19 165.91C101.113 165.943 101.047 165.999 101.002 166.069C100.957 166.14 100.934 166.223 100.936 166.307C100.938 166.391 100.965 166.472 101.014 166.54C101.063 166.609 101.131 166.661 101.21 166.69L102.99 167.31C103.155 167.371 103.337 167.366 103.498 167.297C103.66 167.229 103.789 167.101 103.86 166.94C104.087 166.433 104.023 166.207 103.67 166.26C103.53 166.28 103.4 166.247 103.28 166.16ZM133.59 166.26C133.43 166.153 133.257 166.087 133.07 166.06C132.703 165.993 132.51 166.147 132.49 166.52C132.33 169.07 135.89 168.82 137 166.98C137.167 166.7 137.127 166.453 136.88 166.24L136.35 165.78C136.288 165.728 136.217 165.688 136.14 165.664C136.063 165.64 135.982 165.632 135.902 165.641C135.823 165.649 135.746 165.674 135.677 165.713C135.607 165.753 135.547 165.806 135.5 165.87C135.147 166.35 134.68 166.557 134.1 166.49C133.973 166.477 133.803 166.4 133.59 166.26ZM165.72 167.45L167.74 166.63C167.799 166.602 167.848 166.555 167.878 166.497C167.909 166.438 167.919 166.372 167.907 166.307C167.896 166.242 167.864 166.183 167.815 166.138C167.767 166.094 167.705 166.066 167.64 166.06L166.01 165.99C165.617 165.977 165.32 166.137 165.12 166.47C164.853 166.91 164.98 167.237 165.5 167.45C165.535 167.465 165.572 167.473 165.61 167.473C165.648 167.473 165.685 167.465 165.72 167.45ZM145.06 169.55C144.247 170.303 143.167 170.037 141.82 168.75C141.759 168.688 141.677 168.652 141.59 168.647C141.503 168.643 141.418 168.671 141.351 168.726C141.283 168.78 141.239 168.858 141.226 168.944C141.213 169.03 141.232 169.118 141.28 169.19C142.22 170.643 143.45 171.743 144.97 172.49C145.37 172.683 145.653 172.573 145.82 172.16C146.12 171.413 146.067 170.53 145.66 169.51L145.73 167.7C145.75 167.313 145.577 167.187 145.21 167.32C145.057 167.373 144.937 167.483 144.85 167.65C144.77 167.823 144.773 168.077 144.86 168.41C144.953 168.757 145.02 169.137 145.06 169.55ZM103.445 169.806C103.487 169.712 103.511 169.61 103.514 169.506C103.518 169.402 103.5 169.299 103.464 169.202C103.427 169.105 103.372 169.016 103.301 168.941C103.229 168.865 103.144 168.804 103.05 168.761L101.464 168.045C101.273 167.959 101.056 167.952 100.86 168.026C100.664 168.1 100.505 168.249 100.419 168.44L100.295 168.714C100.253 168.808 100.229 168.91 100.226 169.014C100.222 169.118 100.24 169.221 100.276 169.318C100.313 169.415 100.368 169.504 100.439 169.579C100.511 169.655 100.596 169.716 100.69 169.759L102.276 170.475C102.467 170.561 102.684 170.568 102.88 170.494C103.076 170.42 103.235 170.271 103.321 170.08L103.445 169.806ZM169.047 168.99C168.998 168.781 168.778 168.62 168.436 168.543C168.093 168.466 167.655 168.48 167.218 168.581C166.781 168.682 166.381 168.861 166.107 169.081C165.832 169.3 165.705 169.541 165.753 169.75C165.802 169.959 166.022 170.12 166.364 170.197C166.707 170.274 167.145 170.26 167.582 170.159C168.019 170.058 168.419 169.879 168.693 169.659C168.968 169.44 169.095 169.199 169.047 168.99ZM102.33 172.317C102.383 172.103 102.264 171.856 101.998 171.628C101.732 171.401 101.342 171.213 100.912 171.105C100.699 171.052 100.484 171.019 100.277 171.011C100.07 171.002 99.8768 171.016 99.7077 171.053C99.5385 171.09 99.3969 171.149 99.291 171.226C99.185 171.303 99.1168 171.397 99.0903 171.503C99.0367 171.717 99.1559 171.964 99.4218 172.192C99.6876 172.419 100.078 172.607 100.508 172.715C100.721 172.768 100.936 172.801 101.143 172.809C101.35 172.818 101.543 172.804 101.712 172.767C101.882 172.73 102.023 172.671 102.129 172.594C102.235 172.517 102.303 172.423 102.33 172.317ZM167.53 171.57C167.063 171.563 166.65 171.713 166.29 172.02C166.198 172.095 166.134 172.198 166.108 172.314C166.082 172.429 166.096 172.55 166.146 172.657C166.197 172.764 166.282 172.851 166.388 172.904C166.493 172.957 166.614 172.973 166.73 172.95L168.27 172.66L169.48 172.47C169.618 172.443 169.742 172.369 169.83 172.261C169.919 172.152 169.967 172.016 169.966 171.876C169.965 171.736 169.915 171.6 169.824 171.493C169.733 171.386 169.608 171.314 169.47 171.29C168.717 171.183 168.07 171.277 167.53 171.57ZM133.73 175.98L135.05 176C135.105 176.001 135.16 175.992 135.212 175.972C135.263 175.952 135.31 175.922 135.35 175.884C135.39 175.846 135.422 175.8 135.444 175.75C135.467 175.7 135.479 175.645 135.48 175.59V175.47C135.487 175.115 135.47 174.762 135.431 174.433C135.391 174.104 135.33 173.805 135.25 173.552C135.17 173.299 135.073 173.098 134.965 172.961C134.857 172.823 134.74 172.751 134.62 172.75H134.28C134.039 172.747 133.803 173.027 133.623 173.529C133.443 174.032 133.334 174.715 133.32 175.43V175.55C133.319 175.605 133.328 175.66 133.348 175.712C133.368 175.763 133.398 175.81 133.436 175.85C133.474 175.89 133.52 175.922 133.57 175.944C133.62 175.967 133.675 175.979 133.73 175.98ZM103.148 174.371C103.123 174.136 102.87 173.935 102.444 173.812C102.018 173.689 101.455 173.654 100.877 173.715C100.299 173.776 99.7552 173.927 99.3642 174.136C98.9732 174.345 98.7674 174.594 98.792 174.829C98.8167 175.064 99.0698 175.265 99.4957 175.388C99.9216 175.511 100.485 175.546 101.063 175.485C101.641 175.424 102.185 175.273 102.576 175.064C102.967 174.855 103.173 174.606 103.148 174.371ZM166.12 175.19L169.78 175.58C169.805 175.583 169.83 175.581 169.854 175.573C169.878 175.566 169.901 175.555 169.92 175.539C169.94 175.523 169.956 175.503 169.968 175.481C169.98 175.459 169.988 175.435 169.99 175.41L170 175.31C170.038 174.96 169.88 174.604 169.561 174.319C169.243 174.034 168.789 173.844 168.3 173.79L167.96 173.76C167.471 173.708 166.987 173.796 166.614 174.006C166.241 174.216 166.009 174.53 165.97 174.88L165.96 174.98C165.954 175.029 165.968 175.078 165.998 175.117C166.027 175.157 166.071 175.183 166.12 175.19ZM151.261 179.376C151.478 179.415 151.726 179.228 151.95 178.857C152.174 178.485 152.357 177.96 152.457 177.396C152.558 176.832 152.568 176.275 152.486 175.849C152.403 175.423 152.236 175.162 152.019 175.124C151.802 175.085 151.554 175.272 151.33 175.643C151.106 176.015 150.923 176.54 150.823 177.104C150.722 177.668 150.712 178.225 150.794 178.651C150.877 179.077 151.044 179.338 151.261 179.376ZM117.98 175.897C117.913 175.705 117.772 175.547 117.587 175.458C117.403 175.37 117.192 175.358 116.999 175.425L116.754 175.511C116.561 175.579 116.403 175.72 116.314 175.904C116.226 176.088 116.214 176.3 116.281 176.492L117.28 179.343C117.347 179.535 117.489 179.693 117.673 179.782C117.857 179.87 118.068 179.882 118.261 179.815L118.506 179.729C118.699 179.661 118.857 179.52 118.946 179.336C119.034 179.152 119.046 178.94 118.979 178.748L117.98 175.897ZM137.43 177.07L139.5 179.21C139.733 179.45 139.773 179.72 139.62 180.02C139.24 180.807 138.623 181.133 137.77 181C137.599 180.971 137.44 180.892 137.314 180.772C137.187 180.653 137.099 180.499 137.06 180.33C136.6 178.21 135.887 177.423 134.92 177.97L133.79 178.75L133.01 178.98C132.69 179.073 132.463 179.27 132.33 179.57C132.07 180.17 131.65 180.597 131.07 180.85C130.829 180.952 130.561 180.97 130.308 180.902C130.056 180.833 129.834 180.682 129.677 180.473C129.52 180.263 129.439 180.007 129.445 179.746C129.451 179.484 129.544 179.232 129.71 179.03L131.79 176.53C131.845 176.461 131.874 176.376 131.873 176.288C131.872 176.2 131.84 176.116 131.784 176.048C131.727 175.981 131.649 175.936 131.563 175.92C131.476 175.903 131.387 175.918 131.31 175.96C130.103 176.64 129.16 177.57 128.48 178.75L127.51 179.33C126.763 178.937 126.257 178.89 125.99 179.19L123.36 180.33C123.252 180.378 123.159 180.453 123.089 180.547C123.019 180.642 122.975 180.753 122.96 180.87C122.946 180.987 122.963 181.106 123.008 181.214C123.054 181.323 123.127 181.418 123.22 181.49C124.193 182.223 125.17 181.757 126.15 180.09C126.363 180.277 126.64 180.32 126.98 180.22C127.72 180.133 128.11 180.343 128.15 180.85C129.677 183.69 131.673 186.283 134.14 188.63C134.347 188.83 134.56 188.837 134.78 188.65C138.59 185.45 143.86 180.02 138.19 176.21C138.103 175.883 137.853 175.637 137.44 175.47C137.347 175.429 137.244 175.42 137.145 175.443C137.046 175.466 136.958 175.521 136.892 175.598C136.827 175.676 136.789 175.773 136.783 175.874C136.777 175.975 136.804 176.075 136.86 176.16L137.43 177.07ZM169.27 178.72L169.76 177.86C169.776 177.832 169.786 177.802 169.791 177.77C169.795 177.739 169.792 177.707 169.784 177.676C169.776 177.645 169.761 177.617 169.742 177.592C169.722 177.567 169.698 177.546 169.67 177.53L169.58 177.47C169.179 177.24 168.777 177.023 168.396 176.83C168.015 176.637 167.663 176.472 167.36 176.344C167.057 176.217 166.81 176.13 166.631 176.088C166.453 176.046 166.347 176.05 166.32 176.1L166.01 176.64C165.979 176.688 166.027 176.78 166.153 176.913C166.279 177.045 166.479 177.215 166.742 177.412C167.005 177.609 167.326 177.829 167.686 178.061C168.046 178.292 168.438 178.53 168.84 178.76L168.94 178.81C168.968 178.826 168.998 178.836 169.029 178.841C169.061 178.845 169.093 178.842 169.124 178.834C169.155 178.826 169.183 178.811 169.208 178.792C169.233 178.772 169.254 178.748 169.27 178.72ZM99.01 177.7L99.64 178.98C99.6722 179.043 99.728 179.091 99.7954 179.114C99.8628 179.136 99.9363 179.131 100 179.1L100.17 179.02C100.563 178.828 100.942 178.618 101.286 178.403C101.63 178.189 101.933 177.973 102.176 177.769C102.42 177.564 102.599 177.375 102.705 177.212C102.81 177.05 102.839 176.916 102.79 176.82L102.65 176.53C102.602 176.434 102.477 176.376 102.282 176.361C102.088 176.345 101.828 176.372 101.516 176.44C101.205 176.508 100.85 176.615 100.469 176.756C100.089 176.896 99.6916 177.068 99.3 177.26L99.13 177.34C99.0667 177.372 99.0186 177.428 98.9961 177.495C98.9736 177.563 98.9786 177.636 99.01 177.7ZM115.402 180.33C115.592 180.261 115.708 180.015 115.725 179.645C115.742 179.276 115.659 178.814 115.494 178.36C115.412 178.136 115.313 177.92 115.202 177.725C115.09 177.531 114.969 177.362 114.845 177.227C114.721 177.092 114.596 176.995 114.478 176.94C114.36 176.886 114.251 176.876 114.158 176.91C113.968 176.979 113.852 177.225 113.835 177.594C113.818 177.964 113.901 178.426 114.066 178.88C114.148 179.105 114.247 179.32 114.358 179.515C114.47 179.709 114.591 179.878 114.715 180.013C114.839 180.148 114.964 180.245 115.082 180.3C115.2 180.354 115.309 180.364 115.402 180.33ZM153.99 177.96C153.497 178.64 153.353 179.28 153.56 179.88C153.601 179.995 153.672 180.097 153.768 180.174C153.863 180.251 153.977 180.3 154.099 180.316C154.22 180.331 154.343 180.313 154.455 180.262C154.566 180.212 154.662 180.131 154.73 180.03C154.977 179.663 155.073 179.15 155.02 178.49C155.154 177.236 155.309 177.343 155.382 177.337L156.654 177.396L156.39 180.77C156.37 180.935 156.413 181.101 156.51 181.236C156.608 181.37 156.752 181.463 156.915 181.496C157.078 181.529 157.247 181.499 157.389 181.413C157.531 181.326 157.635 181.19 157.68 181.03C158.147 179.697 158.227 178.66 157.92 177.92L155.77 177.57C155.403 177.31 155.013 177.15 154.6 177.09C154.2 177.03 153.997 177.203 153.99 177.61V177.96ZM112.12 177.83L110.92 178.11C110.814 178.134 110.722 178.199 110.664 178.291C110.605 178.383 110.586 178.494 110.61 178.6L110.65 178.77C110.837 179.559 111.104 180.295 111.392 180.817C111.681 181.338 111.968 181.602 112.19 181.55L112.52 181.47C112.631 181.446 112.722 181.346 112.789 181.173C112.856 181.001 112.898 180.761 112.911 180.466C112.924 180.172 112.908 179.829 112.865 179.457C112.822 179.085 112.752 178.692 112.66 178.3L112.62 178.13C112.607 178.077 112.584 178.028 112.552 177.984C112.52 177.94 112.479 177.904 112.433 177.876C112.386 177.848 112.335 177.829 112.281 177.821C112.227 177.814 112.173 177.817 112.12 177.83ZM108.01 178.79C107.59 178.517 107.19 178.41 106.81 178.47C106.457 178.523 106.177 178.76 105.97 179.18C105.403 180.327 105.493 181.407 106.24 182.42C106.29 182.49 106.357 182.546 106.435 182.583C106.512 182.62 106.598 182.637 106.684 182.632C106.77 182.627 106.853 182.6 106.925 182.554C106.998 182.508 107.058 182.445 107.1 182.37C107.54 181.577 107.77 180.553 107.79 179.3C108.137 179.56 108.393 179.597 108.56 179.41L108.89 181.77C108.93 182.083 109.09 182.313 109.37 182.46C109.45 182.5 109.533 182.52 109.62 182.52C110.02 182.513 110.247 182.31 110.3 181.91C110.413 180.963 110.287 180 109.92 179.02C110.1 178.58 110.04 178.337 109.74 178.29C109.107 178.197 108.53 178.363 108.01 178.79ZM159.25 179.92C158.79 180.76 158.647 181.417 158.82 181.89C158.844 181.961 158.882 182.027 158.933 182.083C158.984 182.138 159.046 182.183 159.116 182.214C159.185 182.245 159.26 182.262 159.337 182.263C159.413 182.264 159.489 182.249 159.56 182.22C160.213 181.947 160.427 181.287 160.2 180.24C160.213 180.12 160.23 180 160.25 179.88C160.29 179.64 160.01 178.352 160.25 178.319C160.71 178.252 161.447 178.063 161.7 178.49C161.54 179.657 161.777 181.89 162.33 182.15C162.401 182.183 162.48 182.199 162.558 182.194C162.637 182.189 162.713 182.165 162.78 182.123C162.846 182.081 162.901 182.023 162.94 181.955C162.978 181.886 162.999 181.809 163 181.73V179.04C163 178.687 162.827 178.5 162.48 178.48C162.047 178.46 161.787 178.557 161.7 178.77C161.147 178.523 160.67 178.45 160.27 178.55L159.83 178.49C159.45 178.437 159.26 178.603 159.26 178.99L159.25 179.92ZM166.064 181.951C166.247 181.856 166.328 181.58 166.289 181.185C166.25 180.79 166.093 180.307 165.853 179.842C165.613 179.378 165.311 178.97 165.011 178.709C164.712 178.448 164.44 178.355 164.257 178.449C164.073 178.544 163.992 178.82 164.031 179.215C164.07 179.61 164.227 180.093 164.467 180.558C164.707 181.022 165.009 181.43 165.309 181.691C165.608 181.952 165.88 182.045 166.064 181.951ZM103.308 181.87C103.417 181.919 103.541 181.931 103.673 181.907C103.805 181.882 103.942 181.821 104.076 181.727C104.21 181.633 104.339 181.508 104.455 181.359C104.571 181.21 104.672 181.04 104.752 180.859C104.914 180.493 104.982 180.103 104.941 179.775C104.9 179.446 104.752 179.207 104.532 179.109C104.423 179.061 104.299 179.049 104.167 179.073C104.035 179.098 103.898 179.159 103.764 179.253C103.63 179.347 103.502 179.472 103.385 179.621C103.269 179.77 103.168 179.94 103.088 180.121C102.926 180.487 102.858 180.877 102.899 181.205C102.94 181.533 103.088 181.773 103.308 181.87ZM142.77 180.43L145.34 181.95C145.793 182.223 146.013 182.097 146 181.57C145.973 180.497 144.96 179.73 142.96 179.27C142.993 178.97 142.717 178.897 142.13 179.05C142.055 179.069 141.984 179.104 141.923 179.152C141.862 179.2 141.812 179.261 141.776 179.33C141.74 179.399 141.719 179.474 141.715 179.552C141.71 179.63 141.722 179.707 141.75 179.78C141.89 180.147 142.23 180.363 142.77 180.43ZM101.675 180.052C101.556 179.876 101.358 179.764 101.125 179.741C100.892 179.718 100.642 179.785 100.432 179.928C100.221 180.07 100.066 180.277 100.001 180.502C99.9358 180.727 99.9662 180.953 100.085 181.128C100.204 181.304 100.402 181.416 100.635 181.439C100.868 181.462 101.118 181.395 101.329 181.252C101.539 181.11 101.694 180.903 101.759 180.678C101.824 180.453 101.794 180.227 101.675 180.052ZM168.712 181.365C168.802 181.317 168.879 181.25 168.941 181.166C169.002 181.082 169.046 180.984 169.07 180.876C169.093 180.769 169.097 180.655 169.08 180.54C169.063 180.426 169.025 180.313 168.97 180.208C168.914 180.104 168.842 180.01 168.756 179.932C168.671 179.854 168.574 179.793 168.472 179.752C168.37 179.712 168.264 179.694 168.16 179.697C168.056 179.701 167.957 179.728 167.867 179.775C167.778 179.823 167.701 179.89 167.639 179.974C167.578 180.058 167.534 180.156 167.51 180.264C167.487 180.371 167.483 180.485 167.5 180.6C167.517 180.714 167.555 180.827 167.61 180.932C167.666 181.036 167.738 181.13 167.824 181.208C167.909 181.286 168.006 181.347 168.108 181.388C168.21 181.428 168.316 181.446 168.42 181.443C168.524 181.439 168.623 181.412 168.712 181.365ZM145.012 184.316C145.066 184.226 145.076 184.111 145.041 183.977C145.006 183.843 144.928 183.693 144.81 183.536C144.692 183.379 144.537 183.218 144.353 183.061C144.17 182.904 143.962 182.756 143.741 182.624C143.52 182.491 143.291 182.378 143.066 182.291C142.841 182.203 142.626 182.143 142.431 182.113C142.237 182.083 142.068 182.085 141.933 182.117C141.799 182.15 141.702 182.213 141.648 182.303C141.594 182.394 141.584 182.509 141.619 182.643C141.654 182.777 141.732 182.927 141.85 183.084C141.968 183.241 142.123 183.402 142.307 183.559C142.49 183.716 142.698 183.864 142.919 183.997C143.14 184.129 143.369 184.242 143.594 184.329C143.819 184.417 144.034 184.477 144.229 184.507C144.423 184.537 144.592 184.535 144.727 184.503C144.861 184.47 144.958 184.407 145.012 184.316ZM124.73 183.85C124.703 184.137 124.833 184.27 125.12 184.25C125.813 184.197 126.46 183.953 127.06 183.52C127.266 183.389 127.393 183.196 127.413 182.984C127.434 182.773 127.346 182.559 127.17 182.391C126.994 182.222 126.743 182.113 126.473 182.086C126.203 182.06 125.936 182.119 125.73 182.25C125.137 182.583 124.803 183.117 124.73 183.85ZM143.314 187.065C143.384 186.967 143.413 186.84 143.4 186.693C143.386 186.545 143.329 186.379 143.233 186.205C143.137 186.03 143.003 185.85 142.839 185.675C142.676 185.5 142.485 185.333 142.278 185.184C142.072 185.035 141.853 184.906 141.635 184.806C141.417 184.706 141.204 184.636 141.008 184.6C140.812 184.564 140.637 184.562 140.492 184.596C140.348 184.63 140.237 184.697 140.167 184.795C140.096 184.893 140.067 185.02 140.08 185.167C140.094 185.315 140.151 185.481 140.247 185.655C140.343 185.83 140.477 186.01 140.641 186.185C140.804 186.36 140.995 186.527 141.202 186.676C141.408 186.825 141.627 186.954 141.845 187.054C142.063 187.154 142.276 187.224 142.472 187.26C142.668 187.296 142.843 187.298 142.988 187.264C143.132 187.23 143.243 187.163 143.314 187.065ZM128.88 185.027C128.822 184.938 128.72 184.878 128.582 184.851C128.444 184.825 128.271 184.831 128.074 184.871C127.876 184.911 127.658 184.982 127.432 185.082C127.206 185.182 126.976 185.308 126.755 185.453C126.31 185.746 125.929 186.098 125.698 186.432C125.466 186.765 125.402 187.054 125.52 187.234C125.578 187.322 125.68 187.382 125.818 187.409C125.956 187.435 126.129 187.429 126.326 187.389C126.524 187.349 126.742 187.278 126.968 187.178C127.194 187.078 127.424 186.952 127.645 186.807C128.09 186.514 128.471 186.162 128.702 185.828C128.934 185.495 128.998 185.206 128.88 185.027ZM130.73 187.73C131.243 188.85 130.83 189.61 129.49 190.01C129.363 190.049 129.248 190.12 129.157 190.216C129.065 190.312 129 190.431 128.968 190.56C128.936 190.688 128.938 190.823 128.973 190.951C129.008 191.079 129.076 191.196 129.17 191.29L129.44 191.56C129.495 191.616 129.561 191.659 129.634 191.686C129.708 191.714 129.786 191.725 129.864 191.719C129.942 191.714 130.018 191.691 130.086 191.653C130.154 191.615 130.214 191.563 130.26 191.5L131.76 189.46C131.96 189.18 131.96 188.9 131.76 188.62C131.493 188.26 131.15 187.963 130.73 187.73L130.51 187.39C130.323 187.097 130.073 187.02 129.76 187.16L127.35 188.23C126.843 188.457 126.743 188.803 127.05 189.27L127.46 189.88C127.733 190.3 127.98 190.283 128.2 189.83C128.767 188.697 129.61 187.997 130.73 187.73ZM139.77 188.47C140.143 189.11 140.603 189.563 141.15 189.83C141.26 189.885 141.384 189.905 141.505 189.888C141.626 189.871 141.74 189.819 141.832 189.736C141.924 189.654 141.99 189.546 142.022 189.425C142.054 189.305 142.049 189.178 142.01 189.06C141.81 188.493 141.307 188.043 140.5 187.71L139.79 187.23C139.463 187.017 139.153 187.04 138.86 187.3L137.17 188.79C136.923 189.01 136.913 189.24 137.14 189.48L139.42 191.87C139.509 191.965 139.632 192.024 139.763 192.032C139.894 192.041 140.023 192 140.124 191.918C140.225 191.835 140.289 191.717 140.303 191.589C140.317 191.461 140.28 191.332 140.2 191.23C139.567 190.337 138.93 189.433 138.29 188.52C138.253 188.464 138.234 188.398 138.237 188.332C138.239 188.265 138.262 188.2 138.303 188.147C138.344 188.094 138.4 188.056 138.464 188.036C138.237 187.5 138.57 187.478 138.633 187.5L139.77 188.47ZM135.74 191.75C135.973 192.623 136.407 193.353 137.04 193.94C137.085 193.981 137.138 194.012 137.196 194.03C137.255 194.049 137.316 194.054 137.376 194.045C137.437 194.036 137.494 194.014 137.545 193.981C137.596 193.947 137.639 193.902 137.67 193.85L137.93 193.42C138.057 193.207 138.047 193.003 137.9 192.81L136.72 191.26C136.72 190.693 136.62 190.353 136.42 190.24C136.286 190.163 136.133 190.129 135.979 190.14C135.826 190.152 135.679 190.21 135.558 190.305C135.438 190.401 135.349 190.531 135.303 190.678C135.257 190.825 135.256 190.982 135.3 191.13C135.373 191.383 135.52 191.59 135.74 191.75ZM132.26 191.23C131.86 191.463 131.533 191.777 131.28 192.17C130.98 192.643 130.967 193.033 131.24 193.34C131.52 193.66 132.01 193.793 132.71 193.74C132.825 193.731 132.937 193.697 133.038 193.642C133.14 193.587 133.228 193.512 133.299 193.42C133.37 193.329 133.42 193.224 133.448 193.112C133.476 193 133.48 192.884 133.46 192.77L133.29 191.77C133.51 191.45 133.567 191.05 133.46 190.57C133.38 190.197 133.177 190.11 132.85 190.31C132.597 190.463 132.4 190.77 132.26 191.23ZM134.06 194C133.827 195.027 134.047 195.47 134.72 195.33C135.36 195.203 135.43 194.68 134.93 193.76C134.85 193.247 134.63 192.907 134.27 192.74C134.219 192.716 134.163 192.704 134.106 192.706C134.049 192.707 133.994 192.721 133.944 192.747C133.893 192.773 133.85 192.811 133.816 192.856C133.783 192.902 133.76 192.954 133.75 193.01C133.683 193.397 133.787 193.727 134.06 194Z" fill="#CAA63F" fill-opacity="0.996"/>
<path d="M115.47 154.24C115.563 153.813 115.733 153.43 115.98 153.09C116.88 152.577 117.473 152.457 117.76 152.73C117.926 152.887 118.049 153.083 118.12 153.301C118.191 153.518 118.206 153.749 118.164 153.974C118.122 154.199 118.025 154.409 117.881 154.587C117.737 154.764 117.551 154.903 117.34 154.99C116.407 155.383 115.783 155.133 115.47 154.24Z" fill="#CAA63F" fill-opacity="0.996"/>
<path d="M142.24 162.97C142.567 163.143 142.823 163.487 143.01 164C143.123 164.72 142.95 165.29 142.49 165.71L142.01 166.05C141.477 165.97 141.073 165.7 140.8 165.24L140.81 163.27C141.27 162.717 141.747 162.617 142.24 162.97Z" fill="#CAA63F" fill-opacity="0.996"/>
<path d="M125.88 164.19C125.853 164.134 125.837 164.074 125.833 164.012C125.83 163.95 125.838 163.888 125.859 163.829C125.879 163.771 125.911 163.717 125.952 163.67C125.994 163.624 126.044 163.587 126.1 163.56L126.27 163.48C126.509 163.364 126.759 163.277 127.006 163.224C127.253 163.171 127.492 163.153 127.709 163.17C127.927 163.188 128.118 163.241 128.273 163.327C128.427 163.413 128.542 163.529 128.61 163.67L128.72 163.9C128.857 164.184 128.797 164.549 128.554 164.915C128.31 165.28 127.902 165.617 127.42 165.85L127.25 165.94C127.194 165.967 127.134 165.983 127.072 165.987C127.01 165.99 126.948 165.982 126.889 165.961C126.831 165.941 126.777 165.909 126.73 165.868C126.684 165.826 126.647 165.776 126.62 165.72L125.88 164.19Z" fill="#CAA63F" fill-opacity="0.996"/>
<path d="M115.81 193.44C120.35 197.55 118.84 203.61 112.73 204.08C112.626 204.083 112.525 204.048 112.445 203.982C112.365 203.916 112.312 203.823 112.295 203.721C112.278 203.619 112.298 203.514 112.353 203.425C112.407 203.337 112.491 203.271 112.59 203.24C119.15 201.53 117.45 196.01 112.68 193.76C104.7 190.01 92.81 196.15 84.11 195.17C74.69 194.1 64.76 185.9 67.99 175.25C68.0433 175.083 68.1233 174.963 68.23 174.89C68.4433 174.757 68.5267 174.813 68.48 175.06C67.8667 178.413 67.9633 180.8 68.77 182.22C76.24 195.33 87.7 193.08 100.26 190.81C105.35 189.89 111.87 189.86 115.81 193.44Z" fill="#CAA63F"/>
<path d="M197.19 187.19C200.463 184.123 201.78 180.163 201.14 175.31C201.132 175.249 201.142 175.187 201.17 175.133C201.198 175.078 201.242 175.033 201.296 175.003C201.351 174.973 201.413 174.959 201.476 174.964C201.539 174.969 201.6 174.992 201.65 175.03C201.957 175.27 202.12 175.653 202.14 176.18C202.24 178.67 202.66 181.55 201.53 183.81C189.49 207.85 160.99 183.83 153.43 196.62C151.71 199.53 153.03 202.42 156.36 203.19C157 203.343 157 203.497 156.36 203.65C154.753 204.043 153.453 203.563 152.46 202.21C149.57 198.28 151.32 194.5 155.28 192.37C168.95 185.02 183.65 199.86 197.19 187.19Z" fill="#CAA63F"/>
<path d="M135.6 177.5C135 179 135.833 180.927 135.6 181.64C135.517 181.895 135.343 182.111 135.11 182.244C134.877 182.378 134.603 182.42 134.341 182.363C134.079 182.305 133.848 182.152 133.692 181.934C133.537 181.715 133.468 181.446 133.5 181.18L133.79 178.75L135.6 177.5Z" fill="#CAA63F"/>
<path d="M205.751 193.608C205.886 194.194 206.361 194.586 206.813 194.482C207.266 194.379 207.523 193.819 207.389 193.232C207.254 192.646 206.779 192.254 206.327 192.358C205.874 192.461 205.617 193.021 205.751 193.608Z" fill="#CAA63F" fill-opacity="0.996"/>
<path d="M62.3348 194.13C62.7273 194.564 63.3478 194.643 63.7207 194.306C64.0936 193.97 64.0777 193.344 63.6852 192.91C63.2927 192.476 62.6723 192.397 62.2994 192.734C61.9264 193.07 61.9423 193.696 62.3348 194.13Z" fill="#CAA63F" fill-opacity="0.996"/>
<path d="M130.81 201.44C135.33 204.25 134.09 211.79 128.29 211.2C127.763 211.14 127.423 210.923 127.27 210.55C127.242 210.484 127.232 210.411 127.242 210.339C127.252 210.268 127.281 210.2 127.326 210.144C127.371 210.087 127.43 210.044 127.498 210.019C127.566 209.994 127.639 209.987 127.71 210L129.01 210.26C129.383 210.34 129.723 210.267 130.03 210.04C132.283 208.44 132.627 206.567 131.06 204.42C126.49 198.14 116.54 210.67 112.77 212.75C106.71 216.08 99.2 213.46 98.36 206.28C97.82 201.73 101.67 196.26 106.81 196.58C107.417 196.613 107.447 196.767 106.9 197.04C105.11 197.93 103.43 198.62 102.26 200.25C98.69 205.17 101.27 212 107.56 211.52C114.66 210.97 122.56 196.3 130.81 201.44Z" fill="#CAA63F"/>
<path d="M164.38 211.27C172.38 208.66 168.93 198.87 162.22 196.96C162.151 196.943 162.09 196.9 162.051 196.84C162.013 196.781 161.998 196.708 162.011 196.638C162.024 196.568 162.063 196.505 162.12 196.463C162.178 196.42 162.249 196.401 162.32 196.41C173.99 197.32 174.27 213.74 162.74 214.28C157.12 214.55 152.57 209.79 148.05 205.45C138.69 196.46 133.6 211.46 142 210.11C142.373 210.05 142.483 210.193 142.33 210.54C142.27 210.667 142.187 210.783 142.08 210.89C141.993 210.983 141.87 211.043 141.71 211.07C133.9 212.38 134.25 202.03 140.94 200.43C149.57 198.38 156.19 213.94 164.38 211.27Z" fill="#CAA63F"/>
<path d="M64.7767 198.949C64.8512 199.546 65.3024 199.982 65.7847 199.922C66.267 199.862 66.5977 199.329 66.5233 198.731C66.4488 198.134 65.9976 197.698 65.5153 197.758C65.033 197.818 64.7023 198.351 64.7767 198.949Z" fill="#CAA63F" fill-opacity="0.996"/>
<path d="M203.218 198.234C202.844 198.618 202.811 199.192 203.144 199.515C203.476 199.839 204.049 199.79 204.422 199.406C204.796 199.022 204.829 198.448 204.496 198.125C204.164 197.801 203.591 197.85 203.218 198.234Z" fill="#CAA63F" fill-opacity="0.996"/>
<path d="M69.8571 203.683C70.4368 203.798 70.9841 203.5 71.0796 203.018C71.1751 202.536 70.7826 202.052 70.2029 201.937C69.6232 201.822 69.0758 202.12 68.9804 202.602C68.8849 203.084 69.2774 203.568 69.8571 203.683Z" fill="#CAA63F" fill-opacity="0.996"/>
<path d="M199.5 203.8C200.041 203.8 200.48 203.361 200.48 202.82C200.48 202.279 200.041 201.84 199.5 201.84C198.959 201.84 198.52 202.279 198.52 202.82C198.52 203.361 198.959 203.8 199.5 203.8Z" fill="#CAA63F" fill-opacity="0.996"/>
<path d="M75.64 206.34C76.2309 206.34 76.71 205.861 76.71 205.27C76.71 204.679 76.2309 204.2 75.64 204.2C75.0491 204.2 74.57 204.679 74.57 205.27C74.57 205.861 75.0491 206.34 75.64 206.34Z" fill="#CAA63F" fill-opacity="0.996"/>
<path d="M193.96 206.25C194.54 206.25 195.01 205.78 195.01 205.2C195.01 204.62 194.54 204.15 193.96 204.15C193.38 204.15 192.91 204.62 192.91 205.2C192.91 205.78 193.38 206.25 193.96 206.25Z" fill="#CAA63F" fill-opacity="0.996"/>
<path d="M82.82 214.5C82.7215 214.455 82.6411 214.38 82.5913 214.284C82.5415 214.189 82.5249 214.079 82.5443 213.972C82.5636 213.865 82.6177 213.767 82.6983 213.693C82.7788 213.618 82.8813 213.571 82.99 213.56C86.11 213.28 89.0767 212.453 91.89 211.08C92.0209 211.017 92.1675 210.995 92.3111 211.017C92.4546 211.038 92.5886 211.101 92.6959 211.199C92.8032 211.296 92.879 211.424 92.9136 211.565C92.9482 211.706 92.9399 211.854 92.89 211.99C91.5433 215.61 92.32 218.527 95.22 220.74C95.3324 220.821 95.4132 220.939 95.4486 221.073C95.4839 221.207 95.4717 221.35 95.4139 221.476C95.3561 221.602 95.2564 221.704 95.1317 221.765C95.007 221.826 94.865 221.842 94.73 221.81C91.5033 221.137 90.0167 219.113 90.27 215.74C90.281 215.582 90.2525 215.424 90.1871 215.28C90.1216 215.136 90.0213 215.011 89.8952 214.916C89.7691 214.82 89.6211 214.758 89.4648 214.734C89.3085 214.711 89.1487 214.726 89 214.78C86.8867 215.533 84.8267 215.44 82.82 214.5Z" fill="#CAA63F"/>
<path d="M179.37 215.52C179.557 218.607 178.257 220.673 175.47 221.72C175.331 221.77 175.18 221.771 175.04 221.723C174.901 221.675 174.782 221.581 174.703 221.457C174.624 221.332 174.589 221.185 174.605 221.038C174.621 220.891 174.686 220.755 174.79 220.65C177.27 218.277 177.91 215.383 176.71 211.97C176.663 211.836 176.657 211.691 176.691 211.554C176.725 211.416 176.799 211.291 176.903 211.195C177.007 211.098 177.136 211.034 177.276 211.01C177.416 210.986 177.56 211.004 177.69 211.06C179.49 211.853 181.37 212.517 183.33 213.05C184.24 213.3 185.72 213.02 186.69 213.59C186.766 213.634 186.829 213.698 186.872 213.774C186.916 213.851 186.937 213.938 186.935 214.026C186.933 214.114 186.907 214.2 186.861 214.274C186.814 214.349 186.748 214.41 186.67 214.45C184.677 215.503 182.6 215.6 180.44 214.74C180.317 214.69 180.184 214.673 180.052 214.689C179.921 214.705 179.796 214.755 179.688 214.833C179.581 214.911 179.496 215.015 179.44 215.135C179.385 215.255 179.36 215.388 179.37 215.52Z" fill="#CAA63F"/>
<path d="M101.92 226.15C101.07 225.48 99.18 224.26 98.63 223.09C98.5555 222.927 98.5389 222.743 98.583 222.569C98.6271 222.394 98.7291 222.241 98.8724 222.132C99.0157 222.024 99.1916 221.968 99.3711 221.973C99.5506 221.978 99.7231 222.044 99.86 222.16C108.473 229.84 118.193 234.363 129.02 235.73C145.56 237.82 157.75 231.94 169.83 222.25C169.95 222.147 170.102 222.091 170.26 222.091C170.418 222.091 170.57 222.147 170.69 222.25C170.81 222.353 170.889 222.495 170.912 222.651C170.936 222.807 170.904 222.966 170.82 223.1C170.467 223.72 169.923 224.337 169.19 224.95C149.8 241.14 122.04 241.91 101.92 226.15Z" fill="#CAA63F" fill-opacity="0.996"/>
<path d="M133.7 223.17C133.7 223.877 134.058 224.45 134.5 224.45C134.942 224.45 135.3 223.877 135.3 223.17C135.3 222.463 134.942 221.89 134.5 221.89C134.058 221.89 133.7 222.463 133.7 223.17Z" fill="#CAA63F" fill-opacity="0.996"/>
<path d="M127.8 224.28C128.396 224.28 128.88 223.796 128.88 223.2C128.88 222.604 128.396 222.12 127.8 222.12C127.204 222.12 126.72 222.604 126.72 223.2C126.72 223.796 127.204 224.28 127.8 224.28Z" fill="#CAA63F" fill-opacity="0.996"/>
<path d="M140.54 223.976C141.113 224.223 141.739 224.049 141.938 223.587C142.137 223.125 141.833 222.551 141.26 222.304C140.687 222.057 140.061 222.231 139.862 222.693C139.663 223.155 139.967 223.729 140.54 223.976Z" fill="#CAA63F" fill-opacity="0.996"/>
</svg>
